CommonSerif-News.ufo
<glyph name="exclam" format="2">
  <advance width="284"/>
  <unicode hex="0021"/>
  <outline>
    <contour>
      <point x="142.166" y="658" type="curve" smooth="yes"/>
      <point x="117" y="658"/>
      <point x="86" y="639"/>
      <point x="86" y="584.667" type="curve" smooth="yes"/>
      <point x="86" y="466.394"/>
      <point x="124.678" y="332.489"/>
      <point x="124.915" y="213.397" type="curve" smooth="yes"/>
      <point x="124.936" y="197.714"/>
      <point x="130.457" y="189.667"/>
      <point x="142.166" y="189.667" type="curve" smooth="yes"/>
      <point x="153.527" y="189.667"/>
      <point x="158.481" y="197.921"/>
      <point x="158.5" y="213.333" type="curve" smooth="yes"/>
      <point x="158.67" y="331.997"/>
      <point x="198.333" y="466.575"/>
      <point x="198.333" y="584.667" type="curve" smooth="yes"/>
      <point x="198.333" y="638.167"/>
      <point x="168.333" y="658"/>
    </contour>
    <contour>
      <point x="85.833" y="45.833" type="curve" smooth="yes"/>
      <point x="85.833" y="15.333"/>
      <point x="111.167" y="-10"/>
      <point x="142" y="-10" type="curve" smooth="yes"/>
      <point x="172.833" y="-10"/>
      <point x="198.5" y="15.167"/>
      <point x="198.5" y="45.847" type="curve" smooth="yes"/>
      <point x="198.5" y="76.333"/>
      <point x="173.166" y="101.5"/>
      <point x="142.333" y="101.5" type="curve" smooth="yes"/>
      <point x="111.5" y="101.5"/>
      <point x="85.833" y="76.5"/>
    </contour>
  </outline>
</glyph>
<glyph name="numbersign" format="2">
  <advance width="473"/>
  <unicode hex="0023"/>
  <outline>
    <contour>
      <point x="211.833" y="198.586" type="line"/>
      <point x="211.833" y="239.086" type="line"/>
      <point x="46.5" y="239.086" type="line" smooth="yes"/>
      <point x="37.5" y="239.086"/>
      <point x="26.5" y="224.919"/>
      <point x="26.5" y="213.086" type="curve" smooth="yes"/>
      <point x="26.5" y="206.752"/>
      <point x="29.5" y="198.586"/>
      <point x="37.333" y="198.586" type="curve" smooth="yes"/>
    </contour>
    <contour>
      <point x="241.59" y="368.212" type="line"/>
      <point x="241.59" y="408.712" type="line"/>
      <point x="76.2573" y="408.712" type="line" smooth="yes"/>
      <point x="67.2573" y="408.712"/>
      <point x="56.2573" y="394.545"/>
      <point x="56.2573" y="382.712" type="curve" smooth="yes"/>
      <point x="56.2573" y="376.378"/>
      <point x="59.2573" y="368.212"/>
      <point x="67.0903" y="368.212" type="curve" smooth="yes"/>
    </contour>
    <contour>
      <point x="92.5" y="14" type="curve"/>
      <point x="105.7" y="9"/>
      <point x="119.3" y="9"/>
      <point x="132.5" y="14" type="curve"/>
      <point x="150.458" y="125.65"/>
      <point x="207.709" y="481.517"/>
      <point x="225.667" y="593.167" type="curve"/>
      <point x="212.137" y="598.167"/>
      <point x="198.197" y="598.167"/>
      <point x="184.667" y="593.167" type="curve"/>
      <point x="166.902" y="481.517"/>
      <point x="110.265" y="125.65"/>
    </contour>
    <contour>
      <point x="243.667" y="14" type="curve"/>
      <point x="257.032" y="9"/>
      <point x="270.802" y="9"/>
      <point x="284.167" y="14" type="curve"/>
      <point x="301.684" y="125.65"/>
      <point x="357.649" y="481.517"/>
      <point x="375.167" y="593.167" type="curve"/>
      <point x="361.857" y="598.167"/>
      <point x="348.143" y="598.167"/>
      <point x="334.833" y="593.167" type="curve"/>
      <point x="317.261" y="481.517"/>
      <point x="261.239" y="125.65"/>
    </contour>
    <contour>
      <point x="141.718" y="198.702" type="line"/>
      <point x="294.507" y="198.702" type="line"/>
      <point x="294.507" y="239.556" type="line"/>
      <point x="141.718" y="239.556" type="line"/>
    </contour>
    <contour>
      <point x="171.985" y="368.217" type="line"/>
      <point x="319.972" y="368.217" type="line"/>
      <point x="319.972" y="408.782" type="line"/>
      <point x="171.985" y="408.782" type="line"/>
    </contour>
    <contour>
      <point x="262.012" y="198.626" type="line"/>
      <point x="395.345" y="198.626" type="line" smooth="yes"/>
      <point x="407.178" y="198.626"/>
      <point x="417.012" y="213.126"/>
      <point x="417.012" y="225.126" type="curve" smooth="yes"/>
      <point x="417.012" y="230.792"/>
      <point x="414.012" y="239.126"/>
      <point x="405.345" y="239.126" type="curve" smooth="yes"/>
      <point x="262.012" y="239.126" type="line"/>
    </contour>
    <contour>
      <point x="288.485" y="368.215" type="line"/>
      <point x="421.818" y="368.215" type="line" smooth="yes"/>
      <point x="433.651" y="368.215"/>
      <point x="443.485" y="382.715"/>
      <point x="443.485" y="394.715" type="curve" smooth="yes"/>
      <point x="443.485" y="400.381"/>
      <point x="440.485" y="408.715"/>
      <point x="431.818" y="408.715" type="curve" smooth="yes"/>
      <point x="288.485" y="408.715" type="line"/>
    </contour>
  </outline>
</glyph>
<glyph name="dollar" format="2">
  <advance width="473"/>
  <unicode hex="0024"/>
  <outline>
    <contour>
      <point x="52.667" y="11.499" type="curve"/>
      <point x="106.834" y="11.499"/>
      <point x="159" y="-9.167"/>
      <point x="217.333" y="-9.167" type="curve" smooth="yes"/>
      <point x="325.5" y="-9.167"/>
      <point x="425.333" y="58.499"/>
      <point x="425.333" y="171" type="curve" smooth="yes"/>
      <point x="425.333" y="241"/>
      <point x="368.693" y="305.463"/>
      <point x="271.666" y="344.833" type="curve" smooth="yes"/>
      <point x="222.5" y="364" type="line" smooth="yes"/>
      <point x="165.105" y="387.278"/>
      <point x="128.667" y="412"/>
      <point x="128.667" y="478.167" type="curve" smooth="yes"/>
      <point x="128.667" y="535"/>
      <point x="178" y="577.167"/>
      <point x="233" y="577.167" type="curve" smooth="yes"/>
      <point x="309.666" y="577.167"/>
      <point x="342.333" y="520.834"/>
      <point x="362" y="455.667" type="curve"/>
      <point x="371.667" y="455"/>
      <point x="387.167" y="456"/>
      <point x="395.5" y="461.5" type="curve"/>
      <point x="393" y="507.167"/>
      <point x="389" y="535.167"/>
      <point x="379.667" y="585" type="curve"/>
      <point x="328.5" y="591.167"/>
      <point x="298.333" y="610"/>
      <point x="237.833" y="610" type="curve" smooth="yes"/>
      <point x="138.667" y="610"/>
      <point x="53.5" y="550.667"/>
      <point x="53.5" y="450.833" type="curve" smooth="yes"/>
      <point x="53.5" y="365.167"/>
      <point x="93" y="320.833"/>
      <point x="205.833" y="275.833" type="curve" smooth="yes"/>
      <point x="239.333" y="263" type="line" smooth="yes"/>
      <point x="305" y="237.5"/>
      <point x="340.833" y="195.666"/>
      <point x="340.833" y="133.666" type="curve" smooth="yes"/>
      <point x="340.833" y="59.999"/>
      <point x="295.333" y="24.166"/>
      <point x="224.5" y="24.166" type="curve" smooth="yes"/>
      <point x="137.5" y="24.166"/>
      <point x="85" y="74.833"/>
      <point x="66.5" y="157.5" type="curve"/>
      <point x="53.833" y="161"/>
      <point x="42.833" y="159.166"/>
      <point x="33.833" y="154.5" type="curve"/>
      <point x="37.166" y="82.833"/>
      <point x="41.833" y="55.499"/>
    </contour>
    <contour>
      <point x="193.5" y="11.999" type="line"/>
      <point x="231" y="10.166" type="line"/>
      <point x="245.666" y="274.333" type="line"/>
      <point x="209" y="289.5" type="line"/>
    </contour>
    <contour>
      <point x="212.667" y="356.167" type="line"/>
      <point x="249.166" y="338.5" type="line"/>
      <point x="263" y="588.834" type="line"/>
      <point x="226.167" y="592" type="line"/>
    </contour>
    <contour>
      <point x="188.333" y="-98" type="line"/>
      <point x="198.333" y="-98"/>
      <point x="218" y="-97"/>
      <point x="226" y="-93" type="curve"/>
      <point x="231" y="6" type="line"/>
      <point x="194.333" y="7" type="line"/>
    </contour>
    <contour>
      <point x="225.333" y="595" type="line"/>
      <point x="263" y="594" type="line"/>
      <point x="269" y="695" type="line"/>
      <point x="256" y="695"/>
      <point x="240.333" y="693"/>
      <point x="231.333" y="690" type="curve"/>
    </contour>
  </outline>
</glyph>
<glyph name="percent" format="2">
  <advance width="637"/>
  <unicode hex="0025"/>
  <outline>
    <contour>
      <point x="56" y="411.167" type="curve" smooth="yes"/>
      <point x="56" y="357.333"/>
      <point x="85.8333" y="302"/>
      <point x="149.5" y="302" type="curve" smooth="yes"/>
      <point x="232.667" y="302"/>
      <point x="278.333" y="409.333"/>
      <point x="278.333" y="479.167" type="curve" smooth="yes"/>
      <point x="278.333" y="487.667"/>
      <point x="277.5" y="496.167"/>
      <point x="275.667" y="503" type="curve"/>
      <point x="294.667" y="492.167"/>
      <point x="331.333" y="482.333"/>
      <point x="354" y="482.333" type="curve" smooth="yes"/>
      <point x="384" y="482.333"/>
      <point x="423" y="486.833"/>
      <point x="461.167" y="502" type="curve"/>
      <point x="101" y="1.83333" type="line"/>
      <point x="138.333" y="-12.6667" type="line"/>
      <point x="548.5" y="557.167" type="line"/>
      <point x="514" y="574" type="line"/>
      <point x="481.333" y="531.667"/>
      <point x="406" y="520.667"/>
      <point x="364" y="520.667" type="curve" smooth="yes"/>
      <point x="343" y="520.667"/>
      <point x="308.333" y="522"/>
      <point x="257.667" y="545.667" type="curve"/>
      <point x="246.5" y="558.333"/>
      <point x="218.167" y="570.167"/>
      <point x="190.5" y="570.167" type="curve" smooth="yes"/>
      <point x="115.667" y="570.167"/>
      <point x="56" y="497.833"/>
    </contour>
    <contour>
      <point x="376.667" y="96.8333" type="curve" smooth="yes"/>
      <point x="376.667" y="41.3333"/>
      <point x="408.167" y="-13.1667"/>
      <point x="471" y="-13.1667" type="curve" smooth="yes"/>
      <point x="553.333" y="-13.1667"/>
      <point x="599" y="91.6667"/>
      <point x="599" y="164" type="curve" smooth="yes"/>
      <point x="599" y="236.833"/>
      <point x="553.333" y="255"/>
      <point x="512" y="255" type="curve" smooth="yes"/>
      <point x="435.5" y="255"/>
      <point x="376.667" y="178.5"/>
    </contour>
    <contour>
      <point x="116.5" y="393.167" type="curve" smooth="yes"/>
      <point x="116.5" y="447.667"/>
      <point x="151.167" y="538.333"/>
      <point x="201.5" y="538.333" type="curve" smooth="yes"/>
      <point x="218.833" y="538.333"/>
      <point x="243.833" y="528.333"/>
      <point x="243.833" y="478" type="curve" smooth="yes"/>
      <point x="243.833" y="422.667"/>
      <point x="211.5" y="334.333"/>
      <point x="157.333" y="334.333" type="curve" smooth="yes"/>
      <point x="139.333" y="334.333"/>
      <point x="116.5" y="346.333"/>
    </contour>
    <contour>
      <point x="438" y="78" type="curve" smooth="yes"/>
      <point x="438" y="132.5"/>
      <point x="472.667" y="223.167"/>
      <point x="523" y="223.167" type="curve" smooth="yes"/>
      <point x="537" y="223.167"/>
      <point x="564.5" y="214.833"/>
      <point x="564.5" y="162.833" type="curve" smooth="yes"/>
      <point x="564.5" y="109.167"/>
      <point x="533" y="19.1667"/>
      <point x="478.833" y="19.1667" type="curve" smooth="yes"/>
      <point x="460" y="19.1667"/>
      <point x="438" y="31.1667"/>
    </contour>
  </outline>
</glyph>
<glyph name="ampersand" format="2">
  <advance width="709"/>
  <unicode hex="0026"/>
  <outline>
    <contour>
      <point x="42.3333" y="154" type="curve" smooth="yes"/>
      <point x="42.3333" y="36.6667"/>
      <point x="125.5" y="-10"/>
      <point x="234.5" y="-10" type="curve" smooth="yes"/>
      <point x="318.5" y="-10"/>
      <point x="374.667" y="29.8333"/>
      <point x="420.167" y="89.3333" type="curve"/>
      <point x="445.667" y="56.5" type="line" smooth="yes"/>
      <point x="492" y="-4.33333"/>
      <point x="528.5" y="-10"/>
      <point x="565.167" y="-10" type="curve" smooth="yes"/>
      <point x="601.833" y="-10"/>
      <point x="647.667" y="16.6667"/>
      <point x="673.167" y="83.5" type="curve"/>
      <point x="669" y="90.1667"/>
      <point x="663.5" y="97.8333"/>
      <point x="652.667" y="97.8333" type="curve"/>
      <point x="632.5" y="61.1667"/>
      <point x="608.833" y="45.1667"/>
      <point x="576" y="45.1667" type="curve" smooth="yes"/>
      <point x="555.167" y="45.1667"/>
      <point x="524.167" y="70"/>
      <point x="493.833" y="113" type="curve" smooth="yes"/>
      <point x="462.5" y="156.833" type="line"/>
      <point x="503.333" y="213.667"/>
      <point x="529.833" y="259.5"/>
      <point x="556" y="305.667" type="curve" smooth="yes"/>
      <point x="598.667" y="381.333"/>
      <point x="608.833" y="390.167"/>
      <point x="668.167" y="394.5" type="curve"/>
      <point x="674.167" y="400.5"/>
      <point x="674.167" y="421.667"/>
      <point x="668.167" y="427.667" type="curve"/>
      <point x="647.833" y="426.667"/>
      <point x="614.667" y="425.667"/>
      <point x="582.667" y="425.667" type="curve" smooth="yes"/>
      <point x="548.167" y="425.667"/>
      <point x="507.833" y="426.667"/>
      <point x="486.667" y="427.667" type="curve"/>
      <point x="480.667" y="421.667"/>
      <point x="480.667" y="400.5"/>
      <point x="486.667" y="394.5" type="curve"/>
      <point x="541.333" y="391.333"/>
      <point x="552.167" y="380"/>
      <point x="518.167" y="316.833" type="curve" smooth="yes"/>
      <point x="500.333" y="282"/>
      <point x="475.667" y="239.833"/>
      <point x="440.167" y="188.667" type="curve"/>
      <point x="401.167" y="241.167"/>
      <point x="342.667" y="323.833"/>
      <point x="314.167" y="371.833" type="curve"/>
      <point x="397.667" y="417.5"/>
      <point x="463.333" y="481"/>
      <point x="463.333" y="540.333" type="curve" smooth="yes"/>
      <point x="463.333" y="601.167"/>
      <point x="406.5" y="648.833"/>
      <point x="332.833" y="648.833" type="curve" smooth="yes"/>
      <point x="232.667" y="648.833"/>
      <point x="172.667" y="579.833"/>
      <point x="172.667" y="512.667" type="curve" smooth="yes"/>
      <point x="172.667" y="473.333"/>
      <point x="187.667" y="435.167"/>
      <point x="225.833" y="371.667" type="curve"/>
      <point x="93.5" y="299.167"/>
      <point x="42.3333" y="231.333"/>
    </contour>
    <contour>
      <point x="132" y="158.333" type="curve" smooth="yes"/>
      <point x="132" y="225.5"/>
      <point x="151.667" y="278.5"/>
      <point x="247.667" y="334.5" type="curve"/>
      <point x="261.167" y="309.667"/>
      <point x="340.5" y="194.833"/>
      <point x="395.833" y="121.833" type="curve"/>
      <point x="349.833" y="59"/>
      <point x="314.167" y="26"/>
      <point x="247.833" y="26" type="curve" smooth="yes"/>
      <point x="184.167" y="26"/>
      <point x="132" y="63.6667"/>
    </contour>
    <contour>
      <point x="292.833" y="409.667" type="curve"/>
      <point x="267.5" y="454.833"/>
      <point x="252.167" y="496.833"/>
      <point x="252.167" y="521.833" type="curve" smooth="yes"/>
      <point x="252.167" y="584.5"/>
      <point x="297.167" y="614.333"/>
      <point x="325.667" y="614.333" type="curve" smooth="yes"/>
      <point x="365.5" y="614.333"/>
      <point x="388.833" y="583.333"/>
      <point x="388.833" y="538.667" type="curve" smooth="yes"/>
      <point x="388.833" y="502.5"/>
      <point x="353.167" y="450.167"/>
    </contour>
  </outline>
</glyph>
<glyph name="quotesingle" format="2">
  <advance width="194"/>
  <unicode hex="0027"/>
  <outline>
    <contour>
      <point x="79.6667" y="424.167" type="line"/>
      <point x="91.3333" y="421.833" type="line"/>
      <point x="109" y="427.833" type="line"/>
      <point x="142.667" y="610.5" type="line"/>
      <point x="142.667" y="626.833"/>
      <point x="134.667" y="644.167"/>
      <point x="107.667" y="644.167" type="curve" smooth="yes"/>
      <point x="73.8333" y="644.167"/>
      <point x="52.6667" y="615.667"/>
      <point x="52.6667" y="593.5" type="curve"/>
    </contour>
  </outline>
</glyph>
<glyph name="parenleft" format="2">
  <advance width="301"/>
  <unicode hex="0028"/>
  <outline>
    <contour>
      <point x="42.6667" y="252.167" type="curve" smooth="yes"/>
      <point x="42.6667" y="207.167"/>
      <point x="46.8333" y="-22.8333"/>
      <point x="258" y="-205.5" type="curve"/>
      <point x="267.238" y="-202.869"/>
      <point x="277.242" y="-193.475"/>
      <point x="280.5" y="-186" type="curve"/>
      <point x="247.667" y="-148.333"/>
      <point x="131" y="-11"/>
      <point x="131" y="252.167" type="curve" smooth="yes"/>
      <point x="131" y="515.333"/>
      <point x="248.833" y="652.667"/>
      <point x="280.5" y="688.5" type="curve"/>
      <point x="277.175" y="697.835"/>
      <point x="268.373" y="707.273"/>
      <point x="258.333" y="709.167" type="curve"/>
      <point x="137.333" y="605.333"/>
      <point x="42.6667" y="437.5"/>
    </contour>
  </outline>
</glyph>
<glyph name="parenright" format="2">
  <advance width="301"/>
  <unicode hex="0029"/>
  <outline>
    <contour>
      <point x="258.167" y="251.833" type="curve" smooth="yes"/>
      <point x="258.167" y="296.833"/>
      <point x="254" y="526.833"/>
      <point x="42.8333" y="709.5" type="curve"/>
      <point x="33.5958" y="706.869"/>
      <point x="23.5909" y="697.475"/>
      <point x="20.3333" y="690" type="curve"/>
      <point x="53.1667" y="652.333"/>
      <point x="169.833" y="515"/>
      <point x="169.833" y="251.833" type="curve" smooth="yes"/>
      <point x="169.833" y="-11.3333"/>
      <point x="52" y="-148.667"/>
      <point x="20.3333" y="-184.5" type="curve"/>
      <point x="23.6585" y="-193.835"/>
      <point x="32.4603" y="-203.273"/>
      <point x="42.5" y="-205.167" type="curve"/>
      <point x="163.5" y="-101.333"/>
      <point x="258.167" y="66.5"/>
    </contour>
  </outline>
</glyph>
<glyph name="asterisk" format="2">
  <advance width="380"/>
  <unicode hex="002A"/>
  <outline>
    <contour>
      <point x="89" y="463.513" type="curve" smooth="yes"/>
      <point x="89" y="446.598"/>
      <point x="101.725" y="434.333"/>
      <point x="119.285" y="434.333" type="curve" smooth="yes"/>
      <point x="159.052" y="434.333"/>
      <point x="170.044" y="505.354"/>
      <point x="188" y="537.546" type="curve"/>
      <point x="209.126" y="505.717"/>
      <point x="218.643" y="434.333"/>
      <point x="258.221" y="434.333" type="curve" smooth="yes"/>
      <point x="275.251" y="434.333"/>
      <point x="288.5" y="447.544"/>
      <point x="288.5" y="464.515" type="curve" smooth="yes"/>
      <point x="288.5" y="502.95"/>
      <point x="231.406" y="521.39"/>
      <point x="205.167" y="549.675" type="curve"/>
      <point x="221.087" y="552.322"/>
      <point x="237.812" y="553.5"/>
      <point x="260" y="553.5" type="curve" smooth="yes"/>
      <point x="305.125" y="553.5"/>
      <point x="329" y="566.504"/>
      <point x="329" y="590.968" type="curve" smooth="yes"/>
      <point x="329" y="608.545"/>
      <point x="314.179" y="622.015"/>
      <point x="294.84" y="622.026" type="curve" smooth="yes"/>
      <point x="264.045" y="622.045"/>
      <point x="229.378" y="581.673"/>
      <point x="200.167" y="569.034" type="curve"/>
      <point x="202.408" y="601.208"/>
      <point x="221.162" y="635.489"/>
      <point x="221.162" y="665.709" type="curve" smooth="yes"/>
      <point x="221.162" y="687.164"/>
      <point x="207.944" y="701.135"/>
      <point x="187.734" y="701.135" type="curve" smooth="yes"/>
      <point x="166.982" y="701.135"/>
      <point x="154.093" y="687.597"/>
      <point x="154.093" y="665.622" type="curve" smooth="yes"/>
      <point x="154.093" y="638.955"/>
      <point x="175.432" y="603.942"/>
      <point x="178.833" y="569.879" type="curve"/>
      <point x="144.98" y="584.053"/>
      <point x="113.833" y="621.667"/>
      <point x="83" y="621.667" type="curve" smooth="yes"/>
      <point x="63.06" y="621.667"/>
      <point x="49.7194" y="608.941"/>
      <point x="49.7714" y="589.936" type="curve" smooth="yes"/>
      <point x="49.8456" y="564.504"/>
      <point x="66.2124" y="553.069"/>
      <point x="102.255" y="553.263" type="curve" smooth="yes"/>
      <point x="125.507" y="553.385"/>
      <point x="150.692" y="556.662"/>
      <point x="172.833" y="549.839" type="curve"/>
      <point x="146.384" y="520.125"/>
      <point x="89" y="505.085"/>
    </contour>
  </outline>
</glyph>
<glyph name="plus" format="2">
  <advance width="548"/>
  <unicode hex="002B"/>
  <outline>
    <contour>
      <point x="56.833" y="239.833" type="curve" smooth="yes"/>
      <point x="56.833" y="230.667"/>
      <point x="63.167" y="222.5"/>
      <point x="72.667" y="222.5" type="curve" smooth="yes"/>
      <point x="247" y="222.5" type="line"/>
      <point x="247" y="53.667" type="line" smooth="yes"/>
      <point x="247" y="44.167"/>
      <point x="255.167" y="37.833"/>
      <point x="264.333" y="37.833" type="curve" smooth="yes"/>
      <point x="280.5" y="37.833"/>
      <point x="301" y="52.333"/>
      <point x="301" y="65.333" type="curve" smooth="yes"/>
      <point x="301" y="222.5" type="line"/>
      <point x="462" y="222.5" type="line" smooth="yes"/>
      <point x="475.833" y="222.5"/>
      <point x="491.167" y="246.333"/>
      <point x="491.167" y="258.5" type="curve" smooth="yes"/>
      <point x="491.167" y="267.5"/>
      <point x="486.5" y="276.5"/>
      <point x="476.167" y="276.5" type="curve" smooth="yes"/>
      <point x="301" y="276.5" type="line"/>
      <point x="301" y="447.167" type="line" smooth="yes"/>
      <point x="301" y="457.667"/>
      <point x="292" y="462.167"/>
      <point x="282.667" y="462.167" type="curve" smooth="yes"/>
      <point x="270.833" y="462.167"/>
      <point x="247" y="446.833"/>
      <point x="247" y="433" type="curve" smooth="yes"/>
      <point x="247" y="276.5" type="line"/>
      <point x="84.333" y="276.5" type="line" smooth="yes"/>
      <point x="71.333" y="276.5"/>
      <point x="56.833" y="256.167"/>
    </contour>
  </outline>
</glyph>
<glyph name="comma" format="2">
  <advance width="224"/>
  <unicode hex="002C"/>
  <outline>
    <contour>
      <point x="106.211" y="100.333" type="curve" smooth="yes"/>
      <point x="73.666" y="100.333"/>
      <point x="50.667" y="78.168"/>
      <point x="50.667" y="48.77" type="curve" smooth="yes"/>
      <point x="50.667" y="22.176"/>
      <point x="70.096" y="9.848"/>
      <point x="88.167" y="4.5" type="curve" smooth="yes"/>
      <point x="95.5" y="2.333" type="line" smooth="yes"/>
      <point x="120.632" y="-4.945"/>
      <point x="130" y="-12.389"/>
      <point x="130" y="-26.361" type="curve" smooth="yes"/>
      <point x="130" y="-53.981"/>
      <point x="92.995" y="-100.268"/>
      <point x="40.667" y="-113.5" type="curve"/>
      <point x="40.667" y="-124.448"/>
      <point x="42.705" y="-131.346"/>
      <point x="49.334" y="-138.667" type="curve"/>
      <point x="116.953" y="-127.46"/>
      <point x="174.833" y="-70.418"/>
      <point x="174.833" y="5.949" type="curve" smooth="yes"/>
      <point x="174.833" y="61.361"/>
      <point x="148.346" y="100.333"/>
    </contour>
  </outline>
</glyph>
<glyph name="slash" format="2">
  <advance width="322"/>
  <unicode hex="002F"/>
  <outline>
    <contour>
      <point x="294.5" y="652" type="line"/>
      <point x="249.833" y="652" type="line"/>
      <point x="12.8333" y="-52.6667" type="line"/>
      <point x="57.5" y="-52.6667" type="line"/>
    </contour>
  </outline>
</glyph>
<glyph name="zero" format="2">
  <advance width="473"/>
  <unicode hex="0030"/>
  <outline>
    <contour>
      <point x="37.5" y="294.667" type="curve" smooth="yes"/>
      <point x="37.5" y="121.834"/>
      <point x="122" y="-10"/>
      <point x="232.5" y="-10" type="curve" smooth="yes"/>
      <point x="347.5" y="-10"/>
      <point x="432.334" y="122.334"/>
      <point x="432.334" y="303.667" type="curve" smooth="yes"/>
      <point x="432.334" y="479.666"/>
      <point x="349.667" y="610"/>
      <point x="236.667" y="610" type="curve" smooth="yes"/>
      <point x="122" y="610"/>
      <point x="37.5" y="475.833"/>
    </contour>
    <contour>
      <point x="133.833" y="283.667" type="curve" smooth="yes"/>
      <point x="133.833" y="468.833"/>
      <point x="171.166" y="573.833"/>
      <point x="236.667" y="573.833" type="curve" smooth="yes"/>
      <point x="295.834" y="573.833"/>
      <point x="336.167" y="472.166"/>
      <point x="336.167" y="322.833" type="curve" smooth="yes"/>
      <point x="336.167" y="134.667"/>
      <point x="298.5" y="26.167"/>
      <point x="233.5" y="26.167" type="curve" smooth="yes"/>
      <point x="171" y="26.167"/>
      <point x="133.833" y="122.334"/>
    </contour>
  </outline>
</glyph>
<glyph name="one" format="2">
  <advance width="473"/>
  <unicode hex="0031"/>
  <outline>
    <contour>
      <point x="117.333" y="-2" type="curve"/>
      <point x="171.833" y="-1"/>
      <point x="209.666" y="0"/>
      <point x="261.333" y="0" type="curve" smooth="yes"/>
      <point x="307.999" y="0"/>
      <point x="335.499" y="-1"/>
      <point x="390.833" y="-2" type="curve"/>
      <point x="397.499" y="4"/>
      <point x="397.499" y="25.167"/>
      <point x="390.833" y="31.167" type="curve"/>
      <point x="323.333" y="34.167"/>
      <point x="301.166" y="39"/>
      <point x="301.166" y="122" type="curve" smooth="yes"/>
      <point x="301.166" y="471.334" type="line" smooth="yes"/>
      <point x="301.166" y="530.167"/>
      <point x="303.199" y="589.55"/>
      <point x="304.999" y="601.334" type="curve"/>
      <point x="304.999" y="607.667"/>
      <point x="301.999" y="608.334"/>
      <point x="297.166" y="608.334" type="curve"/>
      <point x="238.502" y="571.817"/>
      <point x="169.686" y="539.284"/>
      <point x="89.5" y="507.834" type="curve"/>
      <point x="91.333" y="495.834"/>
      <point x="95.833" y="484.834"/>
      <point x="105.666" y="478.167" type="curve"/>
      <point x="151.095" y="496.575"/>
      <point x="175.766" y="503.217"/>
      <point x="194.166" y="503.167" type="curve" smooth="yes"/>
      <point x="210.044" y="503.103"/>
      <point x="215.333" y="492.369"/>
      <point x="215.333" y="468.009" type="curve" smooth="yes"/>
      <point x="215.333" y="122" type="line" smooth="yes"/>
      <point x="215.333" y="39"/>
      <point x="184.833" y="34.167"/>
      <point x="117.333" y="31.167" type="curve"/>
      <point x="110.666" y="25.167"/>
      <point x="110.666" y="4"/>
    </contour>
  </outline>
</glyph>
<glyph name="two" format="2">
  <advance width="473"/>
  <unicode hex="0032"/>
  <outline>
    <contour>
      <point x="47.71" y="20.613" type="curve" smooth="yes"/>
      <point x="47.71" y="15.241"/>
      <point x="49.357" y="5.627"/>
      <point x="51.5" y="-1.667" type="curve"/>
      <point x="61.107" y="-1.5"/>
      <point x="103.898" y="0"/>
      <point x="136.21" y="0" type="curve" smooth="yes"/>
      <point x="315.197" y="0" type="line" smooth="yes"/>
      <point x="346.959" y="0"/>
      <point x="386.031" y="-1.5"/>
      <point x="395.187" y="-1.667" type="curve"/>
      <point x="400.165" y="42.817"/>
      <point x="410.359" y="116.717"/>
      <point x="419.999" y="157.184" type="curve"/>
      <point x="412.893" y="162.343"/>
      <point x="400.782" y="164.673"/>
      <point x="388.745" y="163.009" type="curve"/>
      <point x="372.464" y="97.521"/>
      <point x="334.224" y="67.333"/>
      <point x="288.279" y="67.333" type="curve" smooth="yes"/>
      <point x="144.331" y="67.333" type="line"/>
      <point x="144.825" y="107.598"/>
      <point x="190.378" y="160.14"/>
      <point x="209.918" y="178.643" type="curve" smooth="yes"/>
      <point x="277.066" y="242.055" type="line" smooth="yes"/>
      <point x="387.745" y="348.531"/>
      <point x="417.166" y="391.57"/>
      <point x="417.166" y="455.906" type="curve" smooth="yes"/>
      <point x="417.166" y="548.549"/>
      <point x="346.517" y="610"/>
      <point x="250.007" y="610" type="curve" smooth="yes"/>
      <point x="142.83" y="610"/>
      <point x="59.167" y="536.821"/>
      <point x="59.167" y="465.061" type="curve" smooth="yes"/>
      <point x="59.167" y="441.633"/>
      <point x="78.749" y="423.572"/>
      <point x="102.333" y="423.572" type="curve" smooth="yes"/>
      <point x="130.855" y="423.572"/>
      <point x="151.275" y="440.407"/>
      <point x="151.275" y="465.725" type="curve" smooth="yes"/>
      <point x="151.275" y="473.217"/>
      <point x="149.257" y="479.381"/>
      <point x="147.072" y="486.712" type="curve" smooth="yes"/>
      <point x="144.888" y="493.707"/>
      <point x="139.333" y="502.534"/>
      <point x="139.333" y="511.031" type="curve" smooth="yes"/>
      <point x="139.333" y="537.8"/>
      <point x="167.784" y="573.333"/>
      <point x="236.402" y="573.333" type="curve" smooth="yes"/>
      <point x="276.405" y="573.333"/>
      <point x="323.833" y="546.025"/>
      <point x="323.833" y="452.076" type="curve" smooth="yes"/>
      <point x="323.833" y="386.059"/>
      <point x="301.293" y="333.088"/>
      <point x="240.783" y="274.552" type="curve" smooth="yes"/>
      <point x="168.851" y="204.771" type="line" smooth="yes"/>
      <point x="112.501" y="149.755"/>
      <point x="47.71" y="80.468"/>
    </contour>
  </outline>
</glyph>
<glyph name="three" format="2">
  <advance width="473"/>
  <unicode hex="0033"/>
  <outline>
    <contour>
      <point x="216.779" y="573.333" type="curve" smooth="yes"/>
      <point x="266.916" y="573.333"/>
      <point x="298.5" y="543.02"/>
      <point x="298.5" y="494.958" type="curve" smooth="yes"/>
      <point x="298.5" y="423.756"/>
      <point x="230.153" y="356.901"/>
      <point x="143.636" y="343.215" type="curve"/>
      <point x="148.923" y="309.838" type="line"/>
      <point x="158.318" y="311.961"/>
      <point x="168.657" y="312.842"/>
      <point x="182.08" y="312.842" type="curve" smooth="yes"/>
      <point x="279.94" y="312.842"/>
      <point x="328.667" y="270.278"/>
      <point x="328.667" y="185.076" type="curve" smooth="yes"/>
      <point x="328.667" y="96.682"/>
      <point x="275.099" y="26.667"/>
      <point x="207.575" y="26.667" type="curve" smooth="yes"/>
      <point x="177.873" y="26.667"/>
      <point x="152.487" y="40.72"/>
      <point x="134.146" y="67.224" type="curve" smooth="yes"/>
      <point x="120.965" y="86.22"/>
      <point x="106.326" y="95.572"/>
      <point x="89.769" y="95.572" type="curve" smooth="yes"/>
      <point x="66.647" y="95.572"/>
      <point x="44.333" y="76.997"/>
      <point x="44.333" y="57.76" type="curve" smooth="yes"/>
      <point x="44.333" y="23.12"/>
      <point x="118.359" y="-10"/>
      <point x="195.749" y="-10" type="curve" smooth="yes"/>
      <point x="323.468" y="-10"/>
      <point x="422" y="80.449"/>
      <point x="422" y="197.8" type="curve" smooth="yes"/>
      <point x="422" y="284.103"/>
      <point x="368.53" y="344.886"/>
      <point x="281.089" y="358.031" type="curve"/>
      <point x="280.245" y="359.966" type="line"/>
      <point x="352.225" y="393.48"/>
      <point x="384.833" y="434.709"/>
      <point x="384.833" y="490.903" type="curve" smooth="yes"/>
      <point x="384.833" y="564.134"/>
      <point x="328.944" y="610"/>
      <point x="239.436" y="610" type="curve" smooth="yes"/>
      <point x="142.487" y="610"/>
      <point x="49.333" y="549.763"/>
      <point x="49.333" y="487.105" type="curve" smooth="yes"/>
      <point x="49.333" y="462.687"/>
      <point x="63.606" y="447.147"/>
      <point x="86.2" y="447.147" type="curve" smooth="yes"/>
      <point x="111.063" y="447.147"/>
      <point x="126.788" y="465.925"/>
      <point x="126.788" y="495.429" type="curve" smooth="yes"/>
      <point x="126.788" y="540.58"/>
      <point x="164.584" y="573.333"/>
    </contour>
  </outline>
</glyph>
<glyph name="four" format="2">
  <advance width="473"/>
  <unicode hex="0034"/>
  <outline>
    <contour>
      <point x="60.677" y="170.333" type="curve" smooth="yes"/>
      <point x="269.333" y="170.333" type="line"/>
      <point x="269.333" y="112.833" type="line" smooth="yes"/>
      <point x="269.333" y="39.948"/>
      <point x="257.478" y="36.031"/>
      <point x="186.333" y="31.167" type="curve"/>
      <point x="179.666" y="25.167"/>
      <point x="179.666" y="4"/>
      <point x="186.333" y="-2" type="curve"/>
      <point x="223.333" y="-1"/>
      <point x="265.666" y="0"/>
      <point x="304.833" y="0" type="curve" smooth="yes"/>
      <point x="321.166" y="0" type="line" smooth="yes"/>
      <point x="359.5" y="0"/>
      <point x="388.333" y="-1"/>
      <point x="427.166" y="-2" type="curve"/>
      <point x="433.833" y="4"/>
      <point x="433.833" y="25.167"/>
      <point x="427.166" y="31.167" type="curve"/>
      <point x="369.934" y="36.021"/>
      <point x="353.333" y="40.747"/>
      <point x="353.333" y="112.833" type="curve" smooth="yes"/>
      <point x="353.333" y="170.333" type="line"/>
      <point x="424.833" y="170.333" type="line" smooth="yes"/>
      <point x="438.833" y="170.333"/>
      <point x="453.833" y="189.333"/>
      <point x="453.833" y="201.333" type="curve" smooth="yes"/>
      <point x="453.833" y="211.333"/>
      <point x="449.833" y="217.333"/>
      <point x="438.833" y="217.333" type="curve" smooth="yes"/>
      <point x="353.333" y="217.333" type="line"/>
      <point x="353.333" y="513" type="line" smooth="yes"/>
      <point x="353.333" y="559.5"/>
      <point x="353.5" y="596.5"/>
      <point x="355.333" y="608" type="curve"/>
      <point x="353.333" y="610" type="line"/>
      <point x="313.288" y="610" type="line" smooth="yes"/>
      <point x="305.455" y="610"/>
      <point x="300.103" y="603.906"/>
      <point x="295.543" y="598.162" type="curve" smooth="yes"/>
      <point x="289.052" y="589.961" type="line" smooth="yes"/>
      <point x="224.332" y="508.982"/>
      <point x="121.598" y="361.464"/>
      <point x="35.833" y="227.166" type="curve" smooth="yes"/>
      <point x="27" y="213.333" type="line"/>
      <point x="32.672" y="177.264"/>
      <point x="46.608" y="170.333"/>
    </contour>
    <contour>
      <point x="79.5" y="217.333" type="line"/>
      <point x="130.961" y="301.828"/>
      <point x="203" y="415.666"/>
      <point x="269.333" y="506" type="curve"/>
      <point x="269.333" y="217.333" type="line"/>
    </contour>
  </outline>
</glyph>
<glyph name="five" format="2">
  <advance width="473"/>
  <unicode hex="0035"/>
  <outline>
    <contour>
      <point x="53.6667" y="65.1667" type="curve" smooth="yes"/>
      <point x="53.6667" y="24.8223"/>
      <point x="122.404" y="-10.8333"/>
      <point x="200.167" y="-10.8333" type="curve" smooth="yes"/>
      <point x="327.25" y="-10.8333"/>
      <point x="416.729" y="80.6869"/>
      <point x="416.729" y="210.466" type="curve" smooth="yes"/>
      <point x="416.729" y="315.534"/>
      <point x="340.404" y="391.832"/>
      <point x="235.066" y="391.877" type="curve" smooth="yes"/>
      <point x="201.475" y="391.89"/>
      <point x="161.378" y="385.352"/>
      <point x="134.333" y="376" type="curve"/>
      <point x="154.167" y="537.167" type="line"/>
      <point x="191.974" y="531.275"/>
      <point x="228.349" y="528.833"/>
      <point x="273" y="528.833" type="curve" smooth="yes"/>
      <point x="288.333" y="528.833" type="line" smooth="yes"/>
      <point x="312.161" y="528.833"/>
      <point x="348.722" y="531.228"/>
      <point x="382.5" y="534.833" type="curve"/>
      <point x="399" y="605.833" type="line"/>
      <point x="389.333" y="611.333" type="line"/>
      <point x="335.282" y="604.04"/>
      <point x="288.048" y="600"/>
      <point x="237.667" y="600" type="curve" smooth="yes"/>
      <point x="221.5" y="600" type="line" smooth="yes"/>
      <point x="187.272" y="600"/>
      <point x="152.27" y="601.02"/>
      <point x="112.667" y="605.833" type="curve"/>
      <point x="77.6667" y="316.167" type="line"/>
      <point x="84.6773" y="310.552" type="line"/>
      <point x="119.292" y="328.143"/>
      <point x="169.824" y="340.5"/>
      <point x="206.333" y="340.5" type="curve" smooth="yes"/>
      <point x="279.24" y="340.5"/>
      <point x="319.667" y="286.509"/>
      <point x="319.667" y="188.833" type="curve" smooth="yes"/>
      <point x="319.667" y="95.7407"/>
      <point x="273.745" y="25.6667"/>
      <point x="213" y="25.6667" type="curve" smooth="yes"/>
      <point x="191.12" y="25.6667"/>
      <point x="175.26" y="35.4316"/>
      <point x="156.333" y="60.6667" type="curve" smooth="yes"/>
      <point x="147.333" y="72.6667" type="line" smooth="yes"/>
      <point x="132.073" y="93.014"/>
      <point x="113.42" y="103.833"/>
      <point x="93.8333" y="103.833" type="curve" smooth="yes"/>
      <point x="72.3687" y="103.833"/>
      <point x="53.6667" y="85.8064"/>
    </contour>
  </outline>
</glyph>
<glyph name="six" format="2">
  <advance width="473"/>
  <unicode hex="0036"/>
  <outline>
    <contour>
      <point x="44" y="234.414" type="curve" smooth="yes"/>
      <point x="44" y="29.8298"/>
      <point x="159.656" y="-10.8333"/>
      <point x="240.5" y="-10.8333" type="curve" smooth="yes"/>
      <point x="372.095" y="-10.8333"/>
      <point x="430.333" y="108.382"/>
      <point x="430.333" y="202.463" type="curve" smooth="yes"/>
      <point x="430.333" y="313.261"/>
      <point x="353.581" y="365"/>
      <point x="246.833" y="365" type="curve" smooth="yes"/>
      <point x="218.715" y="365"/>
      <point x="179.775" y="355.765"/>
      <point x="149.333" y="340.833" type="curve"/>
      <point x="179.921" y="461.326"/>
      <point x="261.502" y="545.873"/>
      <point x="381.667" y="582.333" type="curve"/>
      <point x="382.167" y="594.333"/>
      <point x="378.667" y="605"/>
      <point x="370.667" y="610.833" type="curve"/>
      <point x="184.929" y="565.114"/>
      <point x="44" y="426.254"/>
    </contour>
    <contour>
      <point x="133.833" y="226.121" type="curve" smooth="yes"/>
      <point x="133.833" y="252.326"/>
      <point x="136.006" y="278.288"/>
      <point x="141" y="304.03" type="curve"/>
      <point x="174.833" y="326.336"/>
      <point x="205.833" y="327.5"/>
      <point x="223" y="327.5" type="curve" smooth="yes"/>
      <point x="307.266" y="327.5"/>
      <point x="338.833" y="251.144"/>
      <point x="338.833" y="195.317" type="curve" smooth="yes"/>
      <point x="338.833" y="132.43"/>
      <point x="327.021" y="25.1667"/>
      <point x="251.667" y="25.1667" type="curve" smooth="yes"/>
      <point x="187.993" y="25.1667"/>
      <point x="133.833" y="64.7487"/>
    </contour>
  </outline>
</glyph>
<glyph name="seven" format="2">
  <advance width="473"/>
  <unicode hex="0037"/>
  <outline>
    <contour>
      <point x="123.5" y="-5" type="curve"/>
      <point x="131.167" y="-12.8333" type="line"/>
      <point x="204.833" y="-8.66667" type="line"/>
      <point x="258.643" y="167.941"/>
      <point x="318.333" y="324.833"/>
      <point x="433.167" y="597.667" type="curve"/>
      <point x="418.833" y="609.167" type="line"/>
      <point x="400" y="605"/>
      <point x="377" y="600"/>
      <point x="340.667" y="600" type="curve" smooth="yes"/>
      <point x="127.167" y="600" type="line" smooth="yes"/>
      <point x="93.1667" y="600"/>
      <point x="94.5" y="610"/>
      <point x="76.5" y="614" type="curve"/>
      <point x="73.5" y="614"/>
      <point x="72.5" y="614"/>
      <point x="72.5" y="611" type="curve" smooth="yes"/>
      <point x="72.5" y="563"/>
      <point x="62.9303" y="497.277"/>
      <point x="52.5" y="444.833" type="curve"/>
      <point x="63.8333" y="441.667"/>
      <point x="73.8333" y="440.667"/>
      <point x="85" y="441.833" type="curve"/>
      <point x="107" y="521.833"/>
      <point x="140.167" y="528.833"/>
      <point x="172.333" y="528.833" type="curve" smooth="yes"/>
      <point x="354" y="528.833" type="line"/>
      <point x="278" y="344.5"/>
      <point x="193.167" y="145.667"/>
    </contour>
  </outline>
</glyph>
<glyph name="eight" format="2">
  <advance width="473"/>
  <unicode hex="0038"/>
  <outline>
    <contour>
      <point x="402.667" y="491.305" type="curve" smooth="yes"/>
      <point x="402.667" y="562.163"/>
      <point x="338.833" y="610"/>
      <point x="246.167" y="610" type="curve" smooth="yes"/>
      <point x="141.667" y="610"/>
      <point x="70" y="550.992"/>
      <point x="70" y="465.297" type="curve" smooth="yes"/>
      <point x="70" y="412.78"/>
      <point x="97.6667" y="371.936"/>
      <point x="159.333" y="335.092" type="curve" smooth="yes"/>
      <point x="184.5" y="319.922" type="line"/>
      <point x="92.5" y="274.906"/>
      <point x="44" y="213.39" name=".hr01"/>
      <point x="44" y="139.035" type="curve" smooth="yes"/>
      <point x="44" y="48.0055"/>
      <point x="114.333" y="-10"/>
      <point x="225" y="-10" type="curve" smooth="yes"/>
      <point x="341.833" y="-10"/>
      <point x="429.167" y="66.178"/>
      <point x="429.167" y="169.043" type="curve" smooth="yes"/>
      <point x="429.167" y="225.561"/>
      <point x="400.5" y="275.41"/>
      <point x="351.833" y="304.087" type="curve" smooth="yes"/>
      <point x="280.667" y="345.43" type="line"/>
      <point x="354.333" y="379.436"/>
      <point x="402.667" y="436.786"/>
    </contour>
    <contour>
      <point x="235.333" y="26.6667" type="curve" smooth="yes"/>
      <point x="167.333" y="26.6667"/>
      <point x="120.333" y="73.3456"/>
      <point x="120.333" y="141.536" type="curve" smooth="yes"/>
      <point x="120.333" y="203.557"/>
      <point x="154.833" y="263.405"/>
      <point x="213.833" y="301.081" type="curve"/>
      <point x="261.167" y="274.572" type="line"/>
      <point x="321" y="238.563"/>
      <point x="349.5" y="195.054"/>
      <point x="349.5" y="137.869" type="curve" smooth="yes"/>
      <point x="349.5" y="71.3465"/>
      <point x="303" y="26.6667"/>
    </contour>
    <contour>
      <point x="239.333" y="574.333" type="curve" smooth="yes"/>
      <point x="290.667" y="574.333"/>
      <point x="324.167" y="541.49"/>
      <point x="324.167" y="490.64" type="curve" smooth="yes"/>
      <point x="324.167" y="449.294"/>
      <point x="296.333" y="401.611"/>
      <point x="251" y="366.938" type="curve"/>
      <point x="217.667" y="387.112" type="line" smooth="yes"/>
      <point x="173" y="414.117"/>
      <point x="149.667" y="447.63"/>
      <point x="149.667" y="484.142" type="curve" smooth="yes"/>
      <point x="149.667" y="539.323" name=".hr02"/>
      <point x="184.333" y="574.333"/>
    </contour>
  </outline>
</glyph>
<glyph name="nine" format="2">
  <advance width="473"/>
  <unicode hex="0039"/>
  <outline>
    <contour>
      <point x="97.667" y="16.834" type="curve"/>
      <point x="97.167" y="4.834"/>
      <point x="100.667" y="-5.833"/>
      <point x="108.667" y="-11.666" type="curve"/>
      <point x="289.5" y="32"/>
      <point x="435.334" y="167.5"/>
      <point x="435.334" y="364.753" type="curve" smooth="yes"/>
      <point x="435.334" y="569.337"/>
      <point x="319.834" y="610"/>
      <point x="238.833" y="610" type="curve" smooth="yes"/>
      <point x="103.667" y="610"/>
      <point x="49" y="482.935"/>
      <point x="49" y="396.704" type="curve" smooth="yes"/>
      <point x="49" y="293.595"/>
      <point x="120.333" y="234.167"/>
      <point x="232.5" y="234.167" type="curve" smooth="yes"/>
      <point x="260.5" y="234.167"/>
      <point x="299.5" y="243.5"/>
      <point x="329.834" y="258.334" type="curve"/>
      <point x="299.334" y="135.834"/>
      <point x="215.667" y="53.167"/>
    </contour>
    <contour>
      <point x="338.334" y="295.137" type="curve"/>
      <point x="304.5" y="272.831"/>
      <point x="273.5" y="271.667"/>
      <point x="256.334" y="271.667" type="curve" smooth="yes"/>
      <point x="176" y="271.667"/>
      <point x="140.5" y="343.92"/>
      <point x="140.5" y="414.683" type="curve" smooth="yes"/>
      <point x="140.5" y="524.224"/>
      <point x="180.833" y="574"/>
      <point x="227.667" y="574" type="curve" smooth="yes"/>
      <point x="296.167" y="574"/>
      <point x="345.167" y="522.166"/>
      <point x="345.167" y="367.915" type="curve" smooth="yes"/>
      <point x="345.167" y="344.428"/>
      <point x="343.5" y="318.624"/>
    </contour>
  </outline>
</glyph>
<glyph name="semicolon" format="2">
  <advance width="239"/>
  <unicode hex="003B"/>
  <outline>
    <contour>
      <point x="124.044" y="100.333" type="curve" smooth="yes"/>
      <point x="91.499" y="100.333"/>
      <point x="68.5" y="78.167"/>
      <point x="68.5" y="48.77" type="curve" smooth="yes"/>
      <point x="68.5" y="22.176"/>
      <point x="87.928" y="9.847"/>
      <point x="106" y="4.5" type="curve" smooth="yes"/>
      <point x="113.333" y="2.333" type="line" smooth="yes"/>
      <point x="138.464" y="-4.945"/>
      <point x="147.833" y="-12.389"/>
      <point x="147.833" y="-26.362" type="curve" smooth="yes"/>
      <point x="147.833" y="-53.981"/>
      <point x="110.828" y="-100.268"/>
      <point x="58.5" y="-113.5" type="curve"/>
      <point x="58.5" y="-124.449"/>
      <point x="60.537" y="-131.346"/>
      <point x="67.166" y="-138.667" type="curve"/>
      <point x="134.786" y="-127.461"/>
      <point x="192.666" y="-70.418"/>
      <point x="192.666" y="5.948" type="curve" smooth="yes"/>
      <point x="192.666" y="61.361"/>
      <point x="166.179" y="100.333"/>
    </contour>
    <contour>
      <point x="68.333" y="356.334" type="curve" smooth="yes"/>
      <point x="68.333" y="325.834"/>
      <point x="93.666" y="300.834"/>
      <point x="124.5" y="300.834" type="curve" smooth="yes"/>
      <point x="155.333" y="300.834"/>
      <point x="181" y="326.167"/>
      <point x="181" y="356.667" type="curve" smooth="yes"/>
      <point x="181" y="387.334"/>
      <point x="155.666" y="412.334"/>
      <point x="124.833" y="412.334" type="curve" smooth="yes"/>
      <point x="94" y="412.334"/>
      <point x="68.333" y="387.001"/>
    </contour>
  </outline>
</glyph>
<glyph name="less" format="2">
  <advance width="544"/>
  <unicode hex="003C"/>
  <outline>
    <contour>
      <point x="140.5" y="239.167" type="line"/>
      <point x="457.667" y="354.333" type="line"/>
      <point x="468.5" y="367.726"/>
      <point x="469.333" y="399.957"/>
      <point x="457.667" y="406.333" type="curve"/>
      <point x="61.167" y="262.833" type="line"/>
      <point x="53.667" y="247.266"/>
      <point x="53.667" y="229.274"/>
      <point x="61.167" y="215.5" type="curve"/>
      <point x="457.667" y="71.167" type="line"/>
      <point x="469.333" y="77.543"/>
      <point x="468.5" y="109.774"/>
      <point x="457.667" y="123.167" type="curve"/>
    </contour>
  </outline>
</glyph>
<glyph name="equal" format="2">
  <advance width="550"/>
  <unicode hex="003D"/>
  <outline>
    <contour>
      <point x="59.833" y="319.333" type="curve" smooth="yes"/>
      <point x="59.833" y="310.735"/>
      <point x="66.376" y="301.833"/>
      <point x="76" y="301.833" type="curve" smooth="yes"/>
      <point x="461.333" y="301.833" type="line" smooth="yes"/>
      <point x="473.796" y="301.833"/>
      <point x="491.333" y="325.4"/>
      <point x="491.333" y="338.333" type="curve" smooth="yes"/>
      <point x="491.333" y="346.928"/>
      <point x="486.455" y="355.833"/>
      <point x="476" y="355.833" type="curve" smooth="yes"/>
      <point x="89.833" y="355.833" type="line" smooth="yes"/>
      <point x="78.204" y="355.833"/>
      <point x="59.833" y="336.433"/>
    </contour>
    <contour>
      <point x="59.833" y="157.333" type="curve" smooth="yes"/>
      <point x="59.833" y="148.707"/>
      <point x="66.344" y="139.833"/>
      <point x="76" y="139.833" type="curve" smooth="yes"/>
      <point x="461.333" y="139.833" type="line" smooth="yes"/>
      <point x="473.796" y="139.833"/>
      <point x="491.333" y="163.4"/>
      <point x="491.333" y="176.333" type="curve" smooth="yes"/>
      <point x="491.333" y="184.985"/>
      <point x="486.517" y="193.833"/>
      <point x="476" y="193.833" type="curve" smooth="yes"/>
      <point x="89.833" y="193.833" type="line" smooth="yes"/>
      <point x="78.204" y="193.833"/>
      <point x="59.833" y="174.433"/>
    </contour>
  </outline>
</glyph>
<glyph name="greater" format="2">
  <advance width="544"/>
  <unicode hex="003E"/>
  <outline>
    <contour>
      <point x="403.167" y="236.333" type="line"/>
      <point x="86.167" y="121.167" type="line"/>
      <point x="75.333" y="107.774"/>
      <point x="74.5" y="75.543"/>
      <point x="86.167" y="69.167" type="curve"/>
      <point x="482.667" y="212.5" type="line"/>
      <point x="490.167" y="228.067"/>
      <point x="490.167" y="246.06"/>
      <point x="482.667" y="259.833" type="curve"/>
      <point x="86.167" y="404.333" type="line"/>
      <point x="74.5" y="397.957"/>
      <point x="75.333" y="365.726"/>
      <point x="86.167" y="352.333" type="curve"/>
    </contour>
  </outline>
</glyph>
<glyph name="question" format="2">
  <advance width="434"/>
  <unicode hex="003F"/>
  <outline>
    <contour>
      <point x="177.5" y="196" type="line" smooth="yes"/>
      <point x="177.5" y="184.99"/>
      <point x="181.855" y="175.333"/>
      <point x="197.538" y="175.333" type="curve" smooth="yes"/>
      <point x="213.46" y="175.333"/>
      <point x="215.833" y="183.893"/>
      <point x="215.833" y="195.167" type="curve" smooth="yes"/>
      <point x="215.833" y="228.167" type="line" smooth="yes"/>
      <point x="215.833" y="293.141"/>
      <point x="230.766" y="313.167"/>
      <point x="280.485" y="349.873" type="curve" smooth="yes"/>
      <point x="356.284" y="405.905"/>
      <point x="391" y="447.636"/>
      <point x="391" y="509.176" type="curve" smooth="yes"/>
      <point x="391" y="598.667"/>
      <point x="324.167" y="658.833"/>
      <point x="220.167" y="658.833" type="curve" smooth="yes"/>
      <point x="147.823" y="658.833"/>
      <point x="42.6667" y="617.474"/>
      <point x="42.6667" y="534.848" type="curve" smooth="yes"/>
      <point x="42.6667" y="496.013"/>
      <point x="67.7316" y="485"/>
      <point x="86.3333" y="485" type="curve" smooth="yes"/>
      <point x="107.167" y="485"/>
      <point x="127.667" y="497.667" name=".hr01"/>
      <point x="127.667" y="524.626" type="curve" smooth="yes"/>
      <point x="127.667" y="534.167"/>
      <point x="125.667" y="540.5"/>
      <point x="122" y="545.833" type="curve" smooth="yes"/>
      <point x="118.167" y="551.333"/>
      <point x="116.167" y="557.5" name=".hr02"/>
      <point x="116.167" y="566.02" type="curve" smooth="yes"/>
      <point x="116.167" y="601.333"/>
      <point x="155.333" y="625.333"/>
      <point x="210.167" y="625.333" type="curve" smooth="yes"/>
      <point x="275.345" y="625.333"/>
      <point x="302.667" y="561.015"/>
      <point x="302.667" y="503.146" type="curve" smooth="yes"/>
      <point x="302.667" y="458.667"/>
      <point x="286.61" y="429.76"/>
      <point x="249.333" y="393" type="curve" smooth="yes"/>
      <point x="236.833" y="380.667" type="line" smooth="yes"/>
      <point x="184.506" y="329.114"/>
      <point x="177.5" y="274.306"/>
      <point x="177.5" y="230.167" type="curve" smooth="yes"/>
    </contour>
    <contour>
      <point x="140.167" y="45.5" type="curve" smooth="yes" name=".hr03"/>
      <point x="140.167" y="15"/>
      <point x="165.5" y="-10"/>
      <point x="196.333" y="-10" type="curve" smooth="yes"/>
      <point x="227.167" y="-10"/>
      <point x="252.833" y="15.3333"/>
      <point x="252.833" y="45.8333" type="curve" smooth="yes"/>
      <point x="252.833" y="76.5"/>
      <point x="227.5" y="101.5"/>
      <point x="196.667" y="101.5" type="curve" smooth="yes"/>
      <point x="165.833" y="101.5"/>
      <point x="140.167" y="76.1667"/>
    </contour>
  </outline>
</glyph>
<glyph name="at" format="2">
  <advance width="911"/>
  <unicode hex="0040"/>
  <outline>
    <contour>
      <point x="592.5" y="75" type="curve" smooth="yes"/>
      <point x="592.5" y="82.667"/>
      <point x="599.5" y="115"/>
      <point x="605.5" y="141.833" type="curve" smooth="yes"/>
      <point x="665.334" y="399" type="line"/>
      <point x="650.667" y="404.167" type="line"/>
      <point x="593.856" y="392.334" type="line"/>
      <point x="588.659" y="368.667" type="line"/>
      <point x="578.335" y="393.955"/>
      <point x="543.469" y="410.755"/>
      <point x="510.209" y="410.755" type="curve" smooth="yes"/>
      <point x="402.684" y="410.755"/>
      <point x="277" y="294.046"/>
      <point x="277" y="153.833" type="curve" smooth="yes"/>
      <point x="277" y="78.784"/>
      <point x="324.542" y="28.457"/>
      <point x="397.306" y="28.457" type="curve" smooth="yes"/>
      <point x="436.089" y="28.457"/>
      <point x="490.592" y="56.326"/>
      <point x="532.416" y="126.949" type="curve"/>
      <point x="534.285" y="126.116" type="line"/>
      <point x="526.886" y="103.366"/>
      <point x="520.615" y="82.293"/>
      <point x="520.615" y="68.068" type="curve"/>
      <point x="520.616" y="49.108"/>
      <point x="534.696" y="26.579"/>
      <point x="574.871" y="26.561" type="curve" smooth="yes"/>
      <point x="738.814" y="26.419"/>
      <point x="847.5" y="128.613"/>
      <point x="847.5" y="282.834" type="curve" smooth="yes"/>
      <point x="847.5" y="470.167"/>
      <point x="693.167" y="612.667"/>
      <point x="476.333" y="612.667" type="curve" smooth="yes"/>
      <point x="246.667" y="612.667"/>
      <point x="64.5" y="436.334"/>
      <point x="64.5" y="222.667" type="curve" smooth="yes"/>
      <point x="64.5" y="7.167"/>
      <point x="223.333" y="-158.333"/>
      <point x="462" y="-158.333" type="curve" smooth="yes"/>
      <point x="576.667" y="-158.333"/>
      <point x="637.167" y="-123.166"/>
      <point x="697.834" y="-76.666" type="curve"/>
      <point x="683.5" y="-56.833" type="line"/>
      <point x="628.167" y="-101.166"/>
      <point x="564.667" y="-124.333"/>
      <point x="481" y="-124.333" type="curve" smooth="yes"/>
      <point x="225.333" y="-124.333"/>
      <point x="146.833" y="89.167"/>
      <point x="146.833" y="238.834" type="curve" smooth="yes"/>
      <point x="146.833" y="474.834"/>
      <point x="314" y="580.667"/>
      <point x="466.5" y="580.667" type="curve" smooth="yes"/>
      <point x="645.612" y="580.667"/>
      <point x="766.667" y="457.545"/>
      <point x="766.667" y="274.667" type="curve" smooth="yes"/>
      <point x="766.667" y="126.636"/>
      <point x="706.913" y="62.667"/>
      <point x="604.667" y="62.667" type="curve" smooth="yes"/>
      <point x="601.167" y="62.667"/>
      <point x="592.5" y="64.5"/>
    </contour>
    <contour>
      <point x="571.833" y="316.667" type="curve" smooth="yes"/>
      <point x="571.833" y="284.667"/>
      <point x="554.817" y="232.623"/>
      <point x="542.5" y="200.667" type="curve" smooth="yes"/>
      <point x="536.167" y="184.667" type="line" smooth="yes"/>
      <point x="509.625" y="115.283"/>
      <point x="462.331" y="70.846"/>
      <point x="430.137" y="70.846" type="curve" smooth="yes"/>
      <point x="371.087" y="70.846"/>
      <point x="357.333" y="114.514"/>
      <point x="357.333" y="162.333" type="curve" smooth="yes"/>
      <point x="357.333" y="248.535"/>
      <point x="407.945" y="378.923"/>
      <point x="510.008" y="378.923" type="curve" smooth="yes"/>
      <point x="545.224" y="378.923"/>
      <point x="571.833" y="353.823"/>
    </contour>
  </outline>
</glyph>
<glyph name="A" format="2">
  <advance width="703"/>
  <unicode hex="0041"/>
  <anchor x="354" y="740" name="t.uni0302"/>
  <anchor x="361.833" y="615" name="t.ring"/>
  <anchor x="352.833" y="-60" name="b.minus-60"/>
  <anchor x="603.667" y="10" name="b.ogonek"/>
  <anchor x="331.5" y="-60" name="ypogegrammeni"/>
  <outline>
    <contour>
      <point x="156.667" y="79" type="curve" smooth="yes"/>
      <point x="211.333" y="223" type="line" smooth="yes"/>
      <point x="216.333" y="236"/>
      <point x="222.333" y="240"/>
      <point x="246.333" y="240" type="curve" smooth="yes"/>
      <point x="453.833" y="240" type="line"/>
      <point x="511.5" y="72" type="line" smooth="yes"/>
      <point x="523.167" y="38.667"/>
      <point x="482.333" y="34.167"/>
      <point x="437.5" y="31.167" type="curve"/>
      <point x="431.5" y="25.167"/>
      <point x="431.5" y="4"/>
      <point x="437.5" y="-2" type="curve"/>
      <point x="474.5" y="-1"/>
      <point x="536.167" y="0"/>
      <point x="575.167" y="0" type="curve" smooth="yes"/>
      <point x="616.167" y="0"/>
      <point x="657.167" y="-1"/>
      <point x="692.5" y="-2" type="curve"/>
      <point x="698.5" y="4"/>
      <point x="698.5" y="25.167"/>
      <point x="692.5" y="31.167" type="curve"/>
      <point x="653.5" y="35.167"/>
      <point x="619.933" y="37.595"/>
      <point x="602.5" y="86" type="curve" smooth="yes"/>
      <point x="396.5" y="658" type="line"/>
      <point x="381.5" y="649"/>
      <point x="349" y="634"/>
      <point x="332.333" y="634" type="curve"/>
      <point x="107" y="102" type="line" smooth="yes"/>
      <point x="81" y="40"/>
      <point x="51" y="34.167"/>
      <point x="7" y="31.167" type="curve"/>
      <point x="1" y="25.167"/>
      <point x="1" y="4"/>
      <point x="7" y="-2" type="curve"/>
      <point x="34.833" y="-1"/>
      <point x="65.333" y="0"/>
      <point x="96.833" y="0" type="curve" smooth="yes"/>
      <point x="137.833" y="0"/>
      <point x="188.667" y="-1"/>
      <point x="225.667" y="-2" type="curve"/>
      <point x="231.667" y="4"/>
      <point x="231.667" y="25.167"/>
      <point x="225.667" y="31.167" type="curve"/>
      <point x="187.667" y="34.167"/>
      <point x="140.667" y="38"/>
    </contour>
    <contour>
      <point x="264.667" y="283" type="line" smooth="yes"/>
      <point x="242.667" y="283"/>
      <point x="235.667" y="286"/>
      <point x="239.667" y="296" type="curve" smooth="yes"/>
      <point x="339.333" y="549.167" type="line"/>
      <point x="345.5" y="549.167" type="line"/>
      <point x="437.5" y="283" type="line"/>
    </contour>
  </outline>
</glyph>
<glyph name="B" format="2">
  <advance width="-108"/>
  <unicode hex="0042"/>
  <anchor x="261.333" y="740" name="t.uni0302"/>
  <anchor x="261.833" y="-60" name="b.minus-60"/>
  <outline>
    <contour>
      <point x="20.3333" y="-2" type="curve"/>
      <point x="59.3333" y="-1"/>
      <point x="125.75" y="0"/>
      <point x="154.5" y="0" type="curve"/>
      <point x="154.5" y="645" type="line"/>
      <point x="127.833" y="645"/>
      <point x="62" y="646"/>
      <point x="20.3333" y="647" type="curve"/>
      <point x="14.3333" y="641"/>
      <point x="14.3333" y="619.833"/>
      <point x="20.3333" y="613.833" type="curve"/>
      <point x="90.3333" y="610.833"/>
      <point x="107.333" y="604.167"/>
      <point x="107.333" y="526.167" type="curve" smooth="yes"/>
      <point x="107.333" y="120.5" type="line" smooth="yes"/>
      <point x="107.333" y="39"/>
      <point x="90.3333" y="34.1667"/>
      <point x="20.3333" y="31.1667" type="curve"/>
      <point x="14.3333" y="25.1667"/>
      <point x="14.3333" y="4"/>
    </contour>
    <contour>
      <point x="154.5" y="645" type="curve"/>
      <point x="154.5" y="0" type="line"/>
      <point x="191.167" y="0"/>
      <point x="223.5" y="-2"/>
      <point x="303.5" y="-2" type="curve" smooth="yes"/>
      <point x="503.5" y="-2"/>
      <point x="558.667" y="95.6667"/>
      <point x="558.667" y="184.333" type="curve" smooth="yes"/>
      <point x="558.667" y="279"/>
      <point x="495.5" y="334.333"/>
      <point x="405.333" y="359.833" type="curve"/>
      <point x="405.333" y="361.833" type="line"/>
      <point x="456" y="386.667"/>
      <point x="500.5" y="439.167"/>
      <point x="500.5" y="492.667" type="curve" smooth="yes"/>
      <point x="500.5" y="560"/>
      <point x="470.167" y="647"/>
      <point x="281.5" y="647" type="curve" smooth="yes"/>
      <point x="244" y="647"/>
      <point x="189.833" y="645"/>
    </contour>
    <contour>
      <point x="201" y="332.333" type="line"/>
      <point x="270.333" y="332.333" type="line" smooth="yes"/>
      <point x="401.667" y="332.333"/>
      <point x="456.667" y="258"/>
      <point x="456.667" y="168.667" type="curve" smooth="yes"/>
      <point x="456.667" y="97.8333"/>
      <point x="429.833" y="32.5"/>
      <point x="281.167" y="32.5" type="curve" smooth="yes"/>
      <point x="212.833" y="32.5"/>
      <point x="201" y="56.6667"/>
      <point x="201" y="112.333" type="curve" smooth="yes"/>
    </contour>
    <contour>
      <point x="201" y="552" type="line" smooth="yes"/>
      <point x="201" y="601"/>
      <point x="201.833" y="611.667"/>
      <point x="285.167" y="611.667" type="curve" smooth="yes"/>
      <point x="339.5" y="611.667"/>
      <point x="409.667" y="583.667"/>
      <point x="409.667" y="482.333" type="curve" smooth="yes"/>
      <point x="409.667" y="398.167"/>
      <point x="353" y="367.667"/>
      <point x="272" y="367.667" type="curve" smooth="yes"/>
      <point x="201" y="367.667" type="line"/>
    </contour>
  </outline>
  <guideline angle="90" x="274" y="0"/>
</glyph>
<glyph name="C" format="2">
  <advance width="656"/>
  <unicode hex="0043"/>
  <anchor x="342.333" y="740" name="t.uni0302"/>
  <anchor x="342" y="-60" name="b.minus-60"/>
  <anchor x="356" y="0" name="b.cedilla"/>
  <outline>
    <contour>
      <point x="363.667" y="-10" type="curve" smooth="yes"/>
      <point x="460.667" y="-10"/>
      <point x="549.667" y="36"/>
      <point x="617.667" y="125" type="curve"/>
      <point x="612.667" y="134"/>
      <point x="604" y="141"/>
      <point x="593" y="141" type="curve"/>
      <point x="522" y="63"/>
      <point x="451.833" y="32.833"/>
      <point x="362.667" y="32.833" type="curve" smooth="yes"/>
      <point x="230.833" y="32.833"/>
      <point x="138" y="182.166"/>
      <point x="138" y="329.833" type="curve" smooth="yes"/>
      <point x="138" y="460.666"/>
      <point x="208.833" y="620.333"/>
      <point x="353.667" y="620.333" type="curve" smooth="yes"/>
      <point x="491.667" y="620.333"/>
      <point x="545" y="539"/>
      <point x="571" y="453" type="curve"/>
      <point x="583" y="449"/>
      <point x="594.667" y="452"/>
      <point x="605.667" y="458" type="curve"/>
      <point x="600.667" y="510"/>
      <point x="593.5" y="558"/>
      <point x="583.667" y="613" type="curve"/>
      <point x="532.667" y="618"/>
      <point x="487.667" y="658"/>
      <point x="364.667" y="658" type="curve" smooth="yes"/>
      <point x="170.333" y="658"/>
      <point x="37" y="502.5"/>
      <point x="37" y="310.833" type="curve" smooth="yes"/>
      <point x="37" y="128.5"/>
      <point x="150.333" y="-10"/>
    </contour>
  </outline>
</glyph>
<glyph name="D" format="2">
  <advance width="706"/>
  <unicode hex="0044"/>
  <anchor x="308.833" y="740" name="t.uni0302"/>
  <anchor x="333.5" y="-60" name="b.minus-60"/>
  <outline>
    <contour>
      <point x="20.333" y="-2" type="curve"/>
      <point x="59.333" y="-1"/>
      <point x="125.75" y="0"/>
      <point x="154.5" y="0" type="curve"/>
      <point x="154.5" y="645" type="line"/>
      <point x="127.833" y="645"/>
      <point x="62" y="646"/>
      <point x="20.333" y="647" type="curve"/>
      <point x="14.333" y="641"/>
      <point x="14.333" y="619.833"/>
      <point x="20.333" y="613.833" type="curve"/>
      <point x="90.333" y="610.833"/>
      <point x="107.333" y="604.167"/>
      <point x="107.333" y="526.167" type="curve" smooth="yes"/>
      <point x="107.333" y="120.5" type="line" smooth="yes"/>
      <point x="107.333" y="39"/>
      <point x="90.333" y="34.166"/>
      <point x="20.333" y="31.166" type="curve"/>
      <point x="14.333" y="25.166"/>
      <point x="14.333" y="4"/>
    </contour>
    <contour>
      <point x="20.333" y="-2" type="curve"/>
      <point x="59.333" y="-1"/>
      <point x="125.75" y="0"/>
      <point x="154.5" y="0" type="curve"/>
      <point x="154.5" y="645" type="line"/>
      <point x="127.833" y="645"/>
      <point x="62" y="646"/>
      <point x="20.333" y="647" type="curve"/>
      <point x="14.333" y="641"/>
      <point x="14.333" y="619.833"/>
      <point x="20.333" y="613.833" type="curve"/>
      <point x="90.333" y="610.833"/>
      <point x="107.333" y="604.167"/>
      <point x="107.333" y="526.167" type="curve" smooth="yes"/>
      <point x="107.333" y="120.5" type="line" smooth="yes"/>
      <point x="107.333" y="39"/>
      <point x="90.333" y="34.166"/>
      <point x="20.333" y="31.166" type="curve"/>
      <point x="14.333" y="25.166"/>
      <point x="14.333" y="4"/>
    </contour>
    <contour>
      <point x="154.083" y="0" type="line"/>
      <point x="191.583" y="0"/>
      <point x="241" y="-2"/>
      <point x="333.5" y="-2" type="curve" smooth="yes"/>
      <point x="485.333" y="-2"/>
      <point x="662.5" y="67.54"/>
      <point x="662.5" y="308.242" type="curve" smooth="yes"/>
      <point x="662.5" y="494"/>
      <point x="515" y="646.833"/>
      <point x="314" y="646.833" type="curve" smooth="yes"/>
      <point x="246" y="646.833"/>
      <point x="193.25" y="645"/>
      <point x="154.083" y="645" type="curve"/>
    </contour>
    <contour>
      <point x="201" y="89.891" type="curve" smooth="yes"/>
      <point x="201" y="558.167" type="line" smooth="yes"/>
      <point x="201" y="596.5"/>
      <point x="234.5" y="611.5"/>
      <point x="281.333" y="611.5" type="curve" smooth="yes"/>
      <point x="494.167" y="611.5"/>
      <point x="557" y="437.5"/>
      <point x="557" y="284.166" type="curve" smooth="yes"/>
      <point x="557" y="85.379"/>
      <point x="438" y="33.333"/>
      <point x="307.833" y="33.333" type="curve" smooth="yes"/>
      <point x="214.5" y="33.333"/>
      <point x="201" y="52.009"/>
    </contour>
  </outline>
</glyph>
<glyph name="E" format="2">
  <advance width="569"/>
  <unicode hex="0045"/>
  <anchor x="283.333" y="740" name="t.uni0302"/>
  <anchor x="325.333" y="10" name="b.ogonek"/>
  <anchor x="290.833" y="-60" name="b.minus-60"/>
  <anchor x="358.833" y="0" name="b.cedilla"/>
  <outline>
    <contour>
      <point x="20.3333" y="-2" type="curve"/>
      <point x="59.3333" y="-1"/>
      <point x="125.75" y="0"/>
      <point x="154.5" y="0" type="curve"/>
      <point x="154.5" y="645" type="line"/>
      <point x="127.833" y="645"/>
      <point x="62" y="646"/>
      <point x="20.3333" y="647" type="curve"/>
      <point x="14.3333" y="641"/>
      <point x="14.3333" y="619.833"/>
      <point x="20.3333" y="613.833" type="curve"/>
      <point x="90.3333" y="610.833"/>
      <point x="107.333" y="604.167"/>
      <point x="107.333" y="526.167" type="curve" smooth="yes"/>
      <point x="107.333" y="120.5" type="line" smooth="yes"/>
      <point x="107.333" y="39"/>
      <point x="90.3333" y="34.1667"/>
      <point x="20.3333" y="31.1667" type="curve"/>
      <point x="14.3333" y="25.1667"/>
      <point x="14.3333" y="4"/>
    </contour>
    <contour>
      <point x="201.5" y="543.167" type="line" smooth="yes"/>
      <point x="201.5" y="583.833"/>
      <point x="214.333" y="604.667"/>
      <point x="263.333" y="604.667" type="curve" smooth="yes"/>
      <point x="340" y="604.667" type="line" smooth="yes"/>
      <point x="415" y="604.667"/>
      <point x="431.833" y="565"/>
      <point x="453.833" y="496" type="curve"/>
      <point x="465.833" y="494"/>
      <point x="478.5" y="496"/>
      <point x="488.5" y="501" type="curve"/>
      <point x="483.5" y="542"/>
      <point x="470.167" y="638"/>
      <point x="468.167" y="646" type="curve"/>
      <point x="468.167" y="648"/>
      <point x="467.167" y="649"/>
      <point x="464.167" y="649" type="curve"/>
      <point x="447.167" y="646"/>
      <point x="439.167" y="645"/>
      <point x="415.167" y="645" type="curve" smooth="yes"/>
      <point x="154.083" y="645" type="line"/>
      <point x="154.083" y="0" type="line"/>
      <point x="372.833" y="0" type="line" smooth="yes"/>
      <point x="420.833" y="0"/>
      <point x="494.333" y="-1.8"/>
      <point x="502.5" y="-2" type="curve"/>
      <point x="516.5" y="48"/>
      <point x="529.833" y="114"/>
      <point x="537.833" y="165" type="curve"/>
      <point x="527.833" y="171"/>
      <point x="514.167" y="173"/>
      <point x="501.167" y="170" type="curve"/>
      <point x="481.167" y="98"/>
      <point x="444.5" y="39.5"/>
      <point x="368.5" y="39.5" type="curve" smooth="yes"/>
      <point x="255" y="39.5" type="line" smooth="yes"/>
      <point x="216.333" y="39.5"/>
      <point x="201.5" y="56.3333"/>
      <point x="201.5" y="100" type="curve" smooth="yes"/>
    </contour>
    <contour>
      <point x="290.833" y="361.667" type="curve" smooth="yes"/>
      <point x="186.5" y="361.667" type="line"/>
      <point x="186.5" y="322.333" type="line"/>
      <point x="290.833" y="322.333" type="line" smooth="yes"/>
      <point x="373.167" y="322.333"/>
      <point x="378.833" y="300"/>
      <point x="381.833" y="255" type="curve"/>
      <point x="387.833" y="249"/>
      <point x="410.5" y="249"/>
      <point x="416.5" y="255" type="curve"/>
      <point x="415.5" y="282.5"/>
      <point x="414.5" y="309"/>
      <point x="414.5" y="343" type="curve" smooth="yes"/>
      <point x="414.5" y="372"/>
      <point x="415.5" y="404"/>
      <point x="416.5" y="429" type="curve"/>
      <point x="410.5" y="435"/>
      <point x="387.833" y="435"/>
      <point x="381.833" y="429" type="curve"/>
      <point x="378.833" y="374"/>
      <point x="372.833" y="361.667"/>
    </contour>
  </outline>
</glyph>
<glyph name="F" format="2">
  <advance width="498"/>
  <unicode hex="0046"/>
  <anchor x="261.833" y="740" name="t.uni0302"/>
  <anchor x="261.5" y="-60" name="b.minus-60"/>
  <outline>
    <contour>
      <point x="20.333" y="-2" type="curve"/>
      <point x="59.333" y="-1"/>
      <point x="131.166" y="0"/>
      <point x="159.5" y="0" type="curve"/>
      <point x="159.5" y="645" type="line"/>
      <point x="132.833" y="645"/>
      <point x="62" y="646"/>
      <point x="20.333" y="647" type="curve"/>
      <point x="14.333" y="641"/>
      <point x="14.333" y="619.833"/>
      <point x="20.333" y="613.833" type="curve"/>
      <point x="90.333" y="610.833"/>
      <point x="107.333" y="604.167"/>
      <point x="107.333" y="526.167" type="curve" smooth="yes"/>
      <point x="107.333" y="120.5" type="line" smooth="yes"/>
      <point x="107.333" y="39"/>
      <point x="90.333" y="34.167"/>
      <point x="20.333" y="31.167" type="curve"/>
      <point x="14.333" y="25.167"/>
      <point x="14.333" y="4"/>
    </contour>
    <contour>
      <point x="154.083" y="0" type="line"/>
      <point x="198.25" y="0"/>
      <point x="253.5" y="-1"/>
      <point x="289.333" y="-2" type="curve"/>
      <point x="296" y="4"/>
      <point x="296" y="25.167"/>
      <point x="289.333" y="31.167" type="curve"/>
      <point x="221.833" y="34.167"/>
      <point x="201.333" y="39.834"/>
      <point x="201.333" y="120.675" type="curve" smooth="yes"/>
      <point x="201.333" y="543.167" type="line" smooth="yes"/>
      <point x="201.333" y="592.167"/>
      <point x="214.166" y="604.667"/>
      <point x="254.833" y="604.667" type="curve" smooth="yes"/>
      <point x="307.333" y="604.667" type="line" smooth="yes"/>
      <point x="408.167" y="604.667"/>
      <point x="433.333" y="564.167"/>
      <point x="455.333" y="495.167" type="curve"/>
      <point x="467.333" y="494.833"/>
      <point x="478.667" y="496.833"/>
      <point x="487" y="500.167" type="curve"/>
      <point x="482.333" y="541.667"/>
      <point x="468.5" y="638"/>
      <point x="466.667" y="646" type="curve"/>
      <point x="466.667" y="648"/>
      <point x="465.667" y="649"/>
      <point x="462.667" y="649" type="curve"/>
      <point x="445.667" y="646"/>
      <point x="440.167" y="645"/>
      <point x="415.333" y="645" type="curve" smooth="yes"/>
      <point x="154.083" y="645" type="line"/>
    </contour>
    <contour>
      <point x="186.333" y="319" type="line"/>
      <point x="292.333" y="319" type="line" smooth="yes"/>
      <point x="374.666" y="319"/>
      <point x="380.333" y="296.667"/>
      <point x="383.333" y="251.667" type="curve"/>
      <point x="389.333" y="245.667"/>
      <point x="412" y="245.667"/>
      <point x="418" y="251.667" type="curve"/>
      <point x="416.833" y="278.333"/>
      <point x="416" y="307.5"/>
      <point x="416" y="339.666" type="curve" smooth="yes"/>
      <point x="416" y="371.833"/>
      <point x="417" y="399.166"/>
      <point x="418" y="425.667" type="curve"/>
      <point x="412" y="431.667"/>
      <point x="389.333" y="431.667"/>
      <point x="383.333" y="425.667" type="curve"/>
      <point x="380.333" y="370.666"/>
      <point x="374.333" y="358.333"/>
      <point x="292.333" y="358.333" type="curve" smooth="yes"/>
      <point x="186.333" y="358.333" type="line"/>
    </contour>
  </outline>
</glyph>
<glyph name="G" format="2">
  <advance width="693"/>
  <unicode hex="0047"/>
  <anchor x="361.5" y="740" name="t.uni0302"/>
  <anchor x="361.167" y="-60" name="b.minus-60"/>
  <outline>
    <contour>
      <point x="380" y="658" type="curve" smooth="yes"/>
      <point x="206.167" y="658"/>
      <point x="36.333" y="525.667"/>
      <point x="36.333" y="307" type="curve" smooth="yes"/>
      <point x="36.333" y="121.5"/>
      <point x="165.333" y="-10"/>
      <point x="357.5" y="-10" type="curve" smooth="yes"/>
      <point x="474.5" y="-10"/>
      <point x="570" y="16.5"/>
      <point x="637.333" y="73.833" type="curve"/>
      <point x="626.5" y="82.833"/>
      <point x="621.5" y="90.833"/>
      <point x="621.5" y="101.833" type="curve" smooth="yes"/>
      <point x="621.5" y="218" type="line" smooth="yes"/>
      <point x="621.5" y="253"/>
      <point x="638.167" y="263"/>
      <point x="667" y="266" type="curve"/>
      <point x="673" y="272"/>
      <point x="673" y="296.167"/>
      <point x="667" y="302.167" type="curve"/>
      <point x="642.333" y="301.167"/>
      <point x="613.667" y="300.167"/>
      <point x="574" y="300.167" type="curve" smooth="yes"/>
      <point x="540.333" y="300.167"/>
      <point x="490.166" y="301.167"/>
      <point x="446" y="302.167" type="curve"/>
      <point x="440" y="296.167"/>
      <point x="440" y="272"/>
      <point x="446" y="266" type="curve"/>
      <point x="500.5" y="262"/>
      <point x="527.333" y="258"/>
      <point x="527.333" y="218" type="curve" smooth="yes"/>
      <point x="527.333" y="65.667" type="line"/>
      <point x="493.666" y="33.667"/>
      <point x="433.833" y="27"/>
      <point x="380.333" y="27" type="curve" smooth="yes"/>
      <point x="220.5" y="27"/>
      <point x="141.5" y="195"/>
      <point x="141.5" y="327" type="curve" smooth="yes"/>
      <point x="141.5" y="494.667"/>
      <point x="242.333" y="621"/>
      <point x="366" y="621" type="curve" smooth="yes"/>
      <point x="508.5" y="621"/>
      <point x="553.666" y="539"/>
      <point x="579.5" y="453" type="curve"/>
      <point x="591.333" y="451.834"/>
      <point x="603.167" y="453.834"/>
      <point x="614.333" y="459" type="curve"/>
      <point x="611.167" y="501"/>
      <point x="606.167" y="542.667"/>
      <point x="591.667" y="614.667" type="curve"/>
      <point x="533" y="623"/>
      <point x="493.333" y="658"/>
    </contour>
  </outline>
</glyph>
<glyph name="H" format="2">
  <advance width="739"/>
  <unicode hex="0048"/>
  <anchor x="360.5" y="740" name="t.uni0302"/>
  <anchor x="370.5" y="-60" name="b.minus-60"/>
  <anchor x="158.167" y="10" name="b.cedilla"/>
  <outline>
    <contour>
      <point x="20.8333" y="-2" type="curve"/>
      <point x="64.1667" y="-1"/>
      <point x="116.5" y="0"/>
      <point x="154.833" y="0" type="curve" smooth="yes"/>
      <point x="191.5" y="0"/>
      <point x="244.333" y="-1"/>
      <point x="287.667" y="-2" type="curve"/>
      <point x="294.333" y="4"/>
      <point x="294.333" y="25.1667"/>
      <point x="287.667" y="31.1667" type="curve"/>
      <point x="220.167" y="34.1667"/>
      <point x="201.333" y="39"/>
      <point x="201.333" y="122" type="curve" smooth="yes"/>
      <point x="201.333" y="320.667" type="line"/>
      <point x="538" y="320.667" type="line"/>
      <point x="538" y="122" type="line" smooth="yes"/>
      <point x="538" y="39"/>
      <point x="519.167" y="34.1667"/>
      <point x="451.667" y="31.1667" type="curve"/>
      <point x="445" y="25.1667"/>
      <point x="445" y="4"/>
      <point x="451.667" y="-2" type="curve"/>
      <point x="495.833" y="-1"/>
      <point x="548.167" y="0"/>
      <point x="585.667" y="0" type="curve" smooth="yes"/>
      <point x="623.167" y="0"/>
      <point x="675.167" y="-1"/>
      <point x="718.5" y="-2" type="curve"/>
      <point x="725.167" y="4"/>
      <point x="725.167" y="25.1667"/>
      <point x="718.5" y="31.1667" type="curve"/>
      <point x="651" y="34.1667"/>
      <point x="632.167" y="39"/>
      <point x="632.167" y="122" type="curve" smooth="yes"/>
      <point x="632.167" y="523" type="line" smooth="yes"/>
      <point x="632.167" y="606"/>
      <point x="651" y="610.833"/>
      <point x="718.5" y="613.833" type="curve"/>
      <point x="725.167" y="619.833"/>
      <point x="725.167" y="641"/>
      <point x="718.5" y="647" type="curve"/>
      <point x="677.667" y="646"/>
      <point x="623.167" y="645"/>
      <point x="584.833" y="645" type="curve" smooth="yes"/>
      <point x="547.333" y="645"/>
      <point x="495" y="646"/>
      <point x="451.667" y="647" type="curve"/>
      <point x="445" y="641"/>
      <point x="445" y="619.833"/>
      <point x="451.667" y="613.833" type="curve"/>
      <point x="519.167" y="610.833"/>
      <point x="538" y="606"/>
      <point x="538" y="523" type="curve" smooth="yes"/>
      <point x="538" y="363.667" type="line"/>
      <point x="201.333" y="363.667" type="line"/>
      <point x="201.333" y="523" type="line" smooth="yes"/>
      <point x="201.333" y="606"/>
      <point x="220.167" y="610.833"/>
      <point x="287.667" y="613.833" type="curve"/>
      <point x="294.333" y="619.833"/>
      <point x="294.333" y="641"/>
      <point x="287.667" y="647" type="curve"/>
      <point x="249.333" y="646"/>
      <point x="203.167" y="645"/>
      <point x="154" y="645" type="curve" smooth="yes"/>
      <point x="105.667" y="645"/>
      <point x="59.1667" y="646"/>
      <point x="20.8333" y="647" type="curve"/>
      <point x="14.1667" y="641"/>
      <point x="14.1667" y="619.833"/>
      <point x="20.8333" y="613.833" type="curve"/>
      <point x="88.3333" y="610.833"/>
      <point x="107.167" y="606"/>
      <point x="107.167" y="523" type="curve" smooth="yes"/>
      <point x="107.167" y="122" type="line" smooth="yes"/>
      <point x="107.167" y="39"/>
      <point x="88.3333" y="34.1667"/>
      <point x="20.8333" y="31.1667" type="curve"/>
      <point x="14.1667" y="25.1667"/>
      <point x="14.1667" y="4"/>
    </contour>
  </outline>
  <guideline angle="90" x="362" y="0"/>
</glyph>
<glyph name="I" format="2">
  <advance width="309"/>
  <unicode hex="0049"/>
  <anchor x="153.833" y="740" name="t.uni0302"/>
  <anchor x="197.333" y="10" name="b.ogonek"/>
  <anchor x="154.5" y="-60" name="b.minus-60"/>
  <outline>
    <contour>
      <point x="20.8333" y="-2" type="curve"/>
      <point x="65" y="-1"/>
      <point x="118.167" y="0"/>
      <point x="154.833" y="0" type="curve" smooth="yes"/>
      <point x="191.5" y="0"/>
      <point x="243.5" y="-1"/>
      <point x="287.667" y="-2" type="curve"/>
      <point x="294.333" y="4"/>
      <point x="294.333" y="25.1667"/>
      <point x="287.667" y="31.1667" type="curve"/>
      <point x="220.167" y="34.1675"/>
      <point x="201.333" y="37.3353"/>
      <point x="201.333" y="120.359" type="curve"/>
      <point x="107.167" y="120.359" type="line"/>
      <point x="107.167" y="37.3353"/>
      <point x="88.3333" y="34.1675"/>
      <point x="20.8333" y="31.1667" type="curve"/>
      <point x="14.1667" y="25.1667"/>
      <point x="14.1667" y="4"/>
    </contour>
    <contour>
      <point x="107.167" y="120.333" type="line"/>
      <point x="201.333" y="120.333" type="line"/>
      <point x="201.333" y="526.333" type="line"/>
      <point x="107.167" y="526.333" type="line"/>
    </contour>
    <contour>
      <point x="58" y="598.833" type="curve"/>
      <point x="116.333" y="604.692"/>
      <point x="135.167" y="610"/>
      <point x="144.333" y="541.333" type="curve"/>
      <point x="156.414" y="542.333"/>
      <point x="206.42" y="546"/>
      <point x="215.167" y="547" type="curve"/>
      <point x="208.5" y="616"/>
      <point x="210.667" y="616.667"/>
      <point x="262.333" y="619.167" type="curve"/>
      <point x="260.667" y="624.167"/>
      <point x="248.333" y="641.833"/>
      <point x="236.667" y="647" type="curve"/>
      <point x="198.333" y="645.167"/>
      <point x="159.167" y="640.667"/>
      <point x="128.333" y="639.667" type="curve" smooth="yes"/>
      <point x="110" y="639.167"/>
      <point x="73.8873" y="633.858"/>
      <point x="34.6667" y="626.333" type="curve"/>
      <point x="32.4564" y="621.333"/>
      <point x="50.2103" y="603.833"/>
    </contour>
  </outline>
  <guideline angle="90" x="148" y="0"/>
</glyph>
<glyph name="J" format="2">
  <advance width="331"/>
  <unicode hex="004A"/>
  <anchor x="183.167" y="740" name="t.uni0302"/>
  <outline>
    <contour>
      <point x="235.167" y="522.833" type="line" smooth="yes"/>
      <point x="235.167" y="605.833"/>
      <point x="252.167" y="610.833"/>
      <point x="312.167" y="613.833" type="curve"/>
      <point x="318.167" y="619.833"/>
      <point x="318.167" y="641"/>
      <point x="312.167" y="647" type="curve"/>
      <point x="272.334" y="646"/>
      <point x="229.667" y="645"/>
      <point x="187.5" y="645" type="curve" smooth="yes"/>
      <point x="146.667" y="645"/>
      <point x="94" y="646"/>
      <point x="44" y="647" type="curve"/>
      <point x="38" y="641"/>
      <point x="38" y="619.833"/>
      <point x="44" y="613.833" type="curve"/>
      <point x="124" y="610.833"/>
      <point x="141" y="605.833"/>
      <point x="141" y="522.833" type="curve" smooth="yes"/>
      <point x="141" y="81" type="line" smooth="yes"/>
      <point x="141" y="-99"/>
      <point x="96.667" y="-127.167"/>
      <point x="62" y="-127.167" type="curve" smooth="yes"/>
      <point x="43.167" y="-127.167"/>
      <point x="28.5" y="-115.5"/>
      <point x="21" y="-100.834" type="curve"/>
      <point x="13.833" y="-88"/>
      <point x="5.5" y="-72.5"/>
      <point x="-22" y="-72.5" type="curve" smooth="yes"/>
      <point x="-36.667" y="-72.5"/>
      <point x="-68.333" y="-94.5"/>
      <point x="-68.333" y="-117.667" type="curve" smooth="yes"/>
      <point x="-68.333" y="-155.5"/>
      <point x="-12.667" y="-174.5"/>
      <point x="10.5" y="-174.5" type="curve" smooth="yes"/>
      <point x="57.833" y="-174.5"/>
      <point x="92.167" y="-164"/>
      <point x="133.167" y="-129" type="curve" smooth="yes"/>
      <point x="177.167" y="-92"/>
      <point x="235.167" y="-40"/>
      <point x="235.167" y="103" type="curve" smooth="yes"/>
    </contour>
  </outline>
</glyph>
<glyph name="K" format="2">
  <advance width="654"/>
  <unicode hex="004B"/>
  <anchor x="320.667" y="740" name="t.uni0302"/>
  <anchor x="320.333" y="-60" name="b.minus-60"/>
  <outline>
    <contour>
      <point x="20.3333" y="-2" type="curve"/>
      <point x="59.3333" y="-1"/>
      <point x="125.75" y="0"/>
      <point x="154.5" y="0" type="curve"/>
      <point x="154.5" y="645" type="line"/>
      <point x="127.833" y="645"/>
      <point x="62" y="646"/>
      <point x="20.3333" y="647" type="curve"/>
      <point x="14.3333" y="641"/>
      <point x="14.3333" y="619.833"/>
      <point x="20.3333" y="613.833" type="curve"/>
      <point x="90.3333" y="610.833"/>
      <point x="107.333" y="604.167"/>
      <point x="107.333" y="526.167" type="curve" smooth="yes"/>
      <point x="107.333" y="120.5" type="line" smooth="yes"/>
      <point x="107.333" y="39"/>
      <point x="90.3333" y="34.1667"/>
      <point x="20.3333" y="31.1667" type="curve"/>
      <point x="14.3333" y="25.1667"/>
      <point x="14.3333" y="4"/>
    </contour>
    <contour>
      <point x="154.083" y="0" type="line"/>
      <point x="192.417" y="0"/>
      <point x="243.167" y="-1"/>
      <point x="287.333" y="-2" type="curve"/>
      <point x="294" y="4"/>
      <point x="294" y="25.1667"/>
      <point x="287.333" y="31.1667" type="curve"/>
      <point x="219.833" y="34.1667"/>
      <point x="201" y="39"/>
      <point x="201" y="122" type="curve" smooth="yes"/>
      <point x="201" y="523" type="line" smooth="yes"/>
      <point x="201" y="606"/>
      <point x="219.833" y="610.833"/>
      <point x="287.333" y="613.833" type="curve"/>
      <point x="294" y="619.833"/>
      <point x="294" y="641"/>
      <point x="287.333" y="647" type="curve"/>
      <point x="242.333" y="646"/>
      <point x="191.583" y="645"/>
      <point x="154.083" y="645" type="curve"/>
    </contour>
    <contour>
      <point x="184.5" y="311" type="line"/>
      <point x="229.833" y="311"/>
      <point x="259.994" y="298.328"/>
      <point x="281" y="271" type="curve" smooth="yes"/>
      <point x="437" y="73.1667" type="line" smooth="yes"/>
      <point x="456.993" y="47.1609"/>
      <point x="471" y="20"/>
      <point x="473" y="4" type="curve"/>
      <point x="473" y="1"/>
      <point x="474" y="-2"/>
      <point x="478" y="-2" type="curve"/>
      <point x="498" y="-1"/>
      <point x="517.667" y="0"/>
      <point x="540.167" y="0" type="curve" smooth="yes"/>
      <point x="575" y="0"/>
      <point x="610" y="-1"/>
      <point x="644" y="-2" type="curve"/>
      <point x="650" y="4"/>
      <point x="650" y="25.1667"/>
      <point x="644" y="31.1667" type="curve"/>
      <point x="614.833" y="34.3333"/>
      <point x="587.772" y="38.1143"/>
      <point x="557.667" y="73.1667" type="curve" smooth="yes"/>
      <point x="338.667" y="333" type="line" smooth="yes"/>
      <point x="329.175" y="343.841"/>
      <point x="322.833" y="353.333"/>
      <point x="322.833" y="361.333" type="curve" smooth="yes"/>
      <point x="322.833" y="368.333"/>
      <point x="323.785" y="376.217"/>
      <point x="354" y="407" type="curve" smooth="yes"/>
      <point x="494.667" y="549" type="line" smooth="yes"/>
      <point x="543.526" y="597.845"/>
      <point x="585.5" y="610"/>
      <point x="628.667" y="613.833" type="curve"/>
      <point x="634.667" y="619.833"/>
      <point x="634.667" y="641"/>
      <point x="628.667" y="647" type="curve"/>
      <point x="598.667" y="646"/>
      <point x="566.167" y="645"/>
      <point x="533.667" y="645" type="curve" smooth="yes"/>
      <point x="496.167" y="645"/>
      <point x="456.167" y="646"/>
      <point x="419" y="647" type="curve"/>
      <point x="413" y="641"/>
      <point x="413" y="619.833"/>
      <point x="419" y="613.833" type="curve"/>
      <point x="458.833" y="610.333"/>
      <point x="487.151" y="601.159"/>
      <point x="443.167" y="555.833" type="curve" smooth="yes"/>
      <point x="287.833" y="393.333" type="line"/>
      <point x="255.507" y="360.95"/>
      <point x="226.5" y="344.833"/>
      <point x="184.5" y="344.833" type="curve"/>
    </contour>
  </outline>
  <guideline angle="90" x="313" y="0"/>
</glyph>
<glyph name="L" format="2">
  <advance width="536"/>
  <unicode hex="004C"/>
  <anchor x="183" y="740" name="t.uni0302"/>
  <anchor x="269.333" y="-60" name="b.minus-60"/>
  <anchor x="357" y="657" name="apostrophe"/>
  <outline>
    <contour>
      <point x="20.3333" y="-2" type="curve"/>
      <point x="59.3333" y="-1"/>
      <point x="124.833" y="0"/>
      <point x="154.083" y="0" type="curve"/>
      <point x="154.083" y="645" type="line"/>
      <point x="127.417" y="645"/>
      <point x="62" y="646"/>
      <point x="20.3333" y="647" type="curve"/>
      <point x="14.3333" y="641"/>
      <point x="14.3333" y="619.833"/>
      <point x="20.3333" y="613.833" type="curve"/>
      <point x="90.3333" y="610.833"/>
      <point x="107.333" y="604.167"/>
      <point x="107.333" y="526.167" type="curve" smooth="yes"/>
      <point x="107.333" y="120.454" type="line" smooth="yes"/>
      <point x="107.333" y="39"/>
      <point x="90.3333" y="34.1667"/>
      <point x="20.3333" y="31.1667" type="curve"/>
      <point x="14.3333" y="25.1667"/>
      <point x="14.3333" y="4"/>
    </contour>
    <contour>
      <point x="154.083" y="0" type="line"/>
      <point x="369.167" y="0" type="line" smooth="yes"/>
      <point x="396.5" y="0"/>
      <point x="479.333" y="-2"/>
      <point x="488.333" y="-2" type="curve"/>
      <point x="498.333" y="48"/>
      <point x="508.333" y="113"/>
      <point x="514.333" y="165" type="curve"/>
      <point x="504.333" y="170"/>
      <point x="491.667" y="172"/>
      <point x="479.667" y="170" type="curve"/>
      <point x="459.667" y="98"/>
      <point x="422.667" y="39.5"/>
      <point x="316.833" y="39.5" type="curve" smooth="yes"/>
      <point x="254.333" y="39.5" type="line" smooth="yes"/>
      <point x="218.333" y="39.5"/>
      <point x="201" y="58.5"/>
      <point x="201" y="111" type="curve" smooth="yes"/>
      <point x="201" y="523" type="line" smooth="yes"/>
      <point x="201" y="606"/>
      <point x="219.833" y="610.833"/>
      <point x="287.333" y="613.833" type="curve"/>
      <point x="294" y="619.833"/>
      <point x="294" y="641"/>
      <point x="287.333" y="647" type="curve"/>
      <point x="236.167" y="646"/>
      <point x="192.417" y="645"/>
      <point x="154.083" y="645" type="curve"/>
    </contour>
  </outline>
  <guideline angle="90" x="149" y="0"/>
</glyph>
<glyph name="M" format="2">
  <advance width="849"/>
  <unicode hex="004D"/>
  <anchor x="389" y="740" name="t.uni0302"/>
  <anchor x="388.667" y="-60" name="b.minus-60"/>
  <outline>
    <contour>
      <point x="663" y="116" type="line" smooth="yes"/>
      <point x="668" y="35"/>
      <point x="664" y="34.1667"/>
      <point x="599" y="31.1667" type="curve"/>
      <point x="593" y="25.1667"/>
      <point x="593" y="4"/>
      <point x="599" y="-2" type="curve"/>
      <point x="637.667" y="-1"/>
      <point x="686" y="0"/>
      <point x="716" y="0" type="curve" smooth="yes"/>
      <point x="746" y="0"/>
      <point x="792" y="-1"/>
      <point x="825" y="-2" type="curve"/>
      <point x="831" y="4"/>
      <point x="831" y="25.1667"/>
      <point x="825" y="31.1667" type="curve"/>
      <point x="757" y="34.1667"/>
      <point x="754" y="38"/>
      <point x="748" y="121" type="curve" smooth="yes"/>
      <point x="718" y="542" type="line" smooth="yes"/>
      <point x="714" y="596"/>
      <point x="719" y="609.833"/>
      <point x="787" y="613.833" type="curve"/>
      <point x="793" y="619.833"/>
      <point x="793" y="641"/>
      <point x="787" y="647" type="curve"/>
      <point x="644.333" y="645" type="line"/>
      <point x="436" y="148.5" type="line" smooth="yes"/>
      <point x="432.5" y="139.833"/>
      <point x="429.833" y="136.167"/>
      <point x="428" y="136.167" type="curve" smooth="yes"/>
      <point x="426.167" y="136.167"/>
      <point x="423.5" y="140.667"/>
      <point x="420.833" y="147.667" type="curve" smooth="yes"/>
      <point x="220.333" y="645" type="line"/>
      <point x="65.3333" y="647" type="line"/>
      <point x="59.3333" y="641"/>
      <point x="59.3333" y="619.833"/>
      <point x="65.3333" y="613.833" type="curve"/>
      <point x="134.333" y="609.833"/>
      <point x="140.333" y="608"/>
      <point x="133.333" y="533" type="curve" smooth="yes"/>
      <point x="93.3333" y="121" type="line" smooth="yes"/>
      <point x="87.3333" y="61"/>
      <point x="75.3333" y="36.1667"/>
      <point x="18.3333" y="31.1667" type="curve"/>
      <point x="12.3333" y="25.1667"/>
      <point x="12.3333" y="4"/>
      <point x="18.3333" y="-2" type="curve"/>
      <point x="48.3333" y="-1"/>
      <point x="80.3333" y="0"/>
      <point x="104.333" y="0" type="curve" smooth="yes"/>
      <point x="128.333" y="0"/>
      <point x="171.667" y="-1"/>
      <point x="201.667" y="-2" type="curve"/>
      <point x="207.667" y="4"/>
      <point x="207.667" y="25.1667"/>
      <point x="201.667" y="31.1667" type="curve"/>
      <point x="135.667" y="36.1667"/>
      <point x="130.833" y="67"/>
      <point x="135.667" y="123" type="curve" smooth="yes"/>
      <point x="171.667" y="519.667" type="line"/>
      <point x="174" y="519.667" type="line"/>
      <point x="379.333" y="5" type="line" smooth="yes"/>
      <point x="382.333" y="-2"/>
      <point x="389.167" y="-9.66667"/>
      <point x="395.167" y="-9.66667" type="curve" smooth="yes"/>
      <point x="401.167" y="-9.66667"/>
      <point x="406" y="-3.16667"/>
      <point x="410" y="5" type="curve"/>
      <point x="635" y="534" type="line" name=".hr01"/>
      <point x="637" y="534" type="line"/>
    </contour>
  </outline>
  <guideline angle="90" x="396" y="0"/>
</glyph>
<glyph name="N" format="2">
  <advance width="706"/>
  <unicode hex="004E"/>
  <anchor x="367.333" y="740" name="t.uni0302"/>
  <anchor x="367" y="-60" name="b.minus-60"/>
  <outline>
    <contour>
      <point x="16.5" y="-2" type="curve"/>
      <point x="60.5" y="-1"/>
      <point x="101.167" y="0"/>
      <point x="128.5" y="0" type="curve" smooth="yes"/>
      <point x="155" y="0"/>
      <point x="196.334" y="-1"/>
      <point x="239.667" y="-2" type="curve"/>
      <point x="245.667" y="4"/>
      <point x="245.667" y="25.167"/>
      <point x="239.667" y="31.167" type="curve"/>
      <point x="169.667" y="38.167"/>
      <point x="152.667" y="42"/>
      <point x="152.667" y="133" type="curve" smooth="yes"/>
      <point x="152.667" y="437.5" type="line" smooth="yes"/>
      <point x="152.667" y="467.5"/>
      <point x="153" y="481.666"/>
      <point x="160.667" y="481.666" type="curve" smooth="yes"/>
      <point x="166.5" y="481.666"/>
      <point x="177" y="471.333"/>
      <point x="193" y="450.833" type="curve" smooth="yes"/>
      <point x="539.666" y="17" type="line" smooth="yes"/>
      <point x="552.614" y="0.684"/>
      <point x="558.997" y="-4.816"/>
      <point x="568.833" y="-10.333" type="curve"/>
      <point x="586.333" y="-10.333"/>
      <point x="604.667" y="-8.167"/>
      <point x="620.167" y="0" type="curve"/>
      <point x="614.333" y="21.167"/>
      <point x="608.5" y="59.334"/>
      <point x="608.5" y="102.834" type="curve" smooth="yes"/>
      <point x="608.5" y="226.5"/>
      <point x="608.5" y="451.5"/>
      <point x="608.5" y="512" type="curve" smooth="yes"/>
      <point x="608.5" y="601"/>
      <point x="625.5" y="606.833"/>
      <point x="695.5" y="613.833" type="curve"/>
      <point x="701.5" y="619.833"/>
      <point x="701.5" y="641"/>
      <point x="695.5" y="647" type="curve"/>
      <point x="653.167" y="646"/>
      <point x="611.167" y="645"/>
      <point x="584.167" y="645" type="curve" smooth="yes"/>
      <point x="559.166" y="645"/>
      <point x="517.333" y="646"/>
      <point x="472.333" y="647" type="curve"/>
      <point x="466.333" y="641"/>
      <point x="466.333" y="619.833"/>
      <point x="472.333" y="613.833" type="curve"/>
      <point x="542.333" y="606.833"/>
      <point x="559.333" y="603"/>
      <point x="559.333" y="512" type="curve" smooth="yes"/>
      <point x="559.333" y="437.167"/>
      <point x="559.333" y="276.667"/>
      <point x="559.333" y="192.667" type="curve" smooth="yes"/>
      <point x="559.333" y="174.834"/>
      <point x="558.833" y="164.834"/>
      <point x="552.166" y="164.834" type="curve" smooth="yes"/>
      <point x="548" y="164.834"/>
      <point x="534.333" y="180.833"/>
      <point x="509" y="213" type="curve" smooth="yes"/>
      <point x="164.167" y="645" type="line"/>
      <point x="24.5" y="647" type="line"/>
      <point x="18.5" y="641"/>
      <point x="18.5" y="619.833"/>
      <point x="24.5" y="613.833" type="curve"/>
      <point x="67.5" y="610.833"/>
      <point x="97.5" y="576"/>
      <point x="103.5" y="550" type="curve"/>
      <point x="103.5" y="133" type="line" smooth="yes"/>
      <point x="103.5" y="44"/>
      <point x="86.5" y="38.167"/>
      <point x="16.5" y="31.167" type="curve"/>
      <point x="10.5" y="25.167"/>
      <point x="10.5" y="4"/>
    </contour>
  </outline>
</glyph>
<glyph name="O" format="2">
  <advance width="707"/>
  <unicode hex="004F"/>
  <anchor x="344" y="740" name="t.uni0302"/>
  <anchor x="387" y="10" name="b.ogonek"/>
  <anchor x="345.333" y="-60" name="b.minus-60"/>
  <outline>
    <contour>
      <point x="670.667" y="327.947" type="curve" smooth="yes"/>
      <point x="670.667" y="534.666"/>
      <point x="526.833" y="658"/>
      <point x="350.304" y="658" type="curve" smooth="yes"/>
      <point x="152.5" y="658"/>
      <point x="37" y="503.166"/>
      <point x="37" y="319.145" type="curve" smooth="yes"/>
      <point x="37" y="112.667"/>
      <point x="182.334" y="-10"/>
      <point x="357.942" y="-10" type="curve" smooth="yes"/>
      <point x="551.667" y="-10"/>
      <point x="670.667" y="139.333"/>
    </contour>
    <contour>
      <point x="342.429" y="621.333" type="curve" smooth="yes"/>
      <point x="462.167" y="621.333"/>
      <point x="565.5" y="512.106"/>
      <point x="565.5" y="310.745" type="curve" smooth="yes"/>
      <point x="565.5" y="132.896"/>
      <point x="484.167" y="27"/>
      <point x="369.129" y="27" type="curve" smooth="yes"/>
      <point x="252.334" y="27"/>
      <point x="142.167" y="136.062"/>
      <point x="142.167" y="327.503" type="curve" smooth="yes"/>
      <point x="142.167" y="536.619"/>
      <point x="237" y="621.333"/>
    </contour>
  </outline>
</glyph>
<glyph name="P" format="2">
  <advance width="555"/>
  <unicode hex="0050"/>
  <anchor x="267.5" y="740" name="t.uni0302"/>
  <anchor x="267.167" y="-60" name="b.minus-60"/>
  <outline>
    <contour>
      <point x="20.333" y="-2" type="curve"/>
      <point x="59.333" y="-1"/>
      <point x="131.166" y="0"/>
      <point x="159.499" y="0" type="curve"/>
      <point x="159.499" y="645" type="line"/>
      <point x="132.833" y="645"/>
      <point x="62" y="646"/>
      <point x="20.333" y="647" type="curve"/>
      <point x="14.333" y="641"/>
      <point x="14.333" y="619.834"/>
      <point x="20.333" y="613.833" type="curve"/>
      <point x="90.333" y="610.833"/>
      <point x="107.333" y="604.166"/>
      <point x="107.333" y="526.166" type="curve" smooth="yes"/>
      <point x="107.333" y="120.5" type="line" smooth="yes"/>
      <point x="107.333" y="39"/>
      <point x="90.333" y="34.167"/>
      <point x="20.333" y="31.167" type="curve"/>
      <point x="14.333" y="25.167"/>
      <point x="14.333" y="4"/>
    </contour>
    <contour>
      <point x="154.083" y="0" type="line"/>
      <point x="189.916" y="0"/>
      <point x="252.166" y="-1"/>
      <point x="300.5" y="-2" type="curve"/>
      <point x="307.166" y="4"/>
      <point x="307.166" y="25.167"/>
      <point x="300.5" y="31.167" type="curve"/>
      <point x="226.333" y="35"/>
      <point x="201.666" y="39"/>
      <point x="201.666" y="122" type="curve" smooth="yes"/>
      <point x="201.666" y="549" type="line" smooth="yes"/>
      <point x="201.666" y="584.5"/>
      <point x="215.333" y="617.167"/>
      <point x="284.166" y="617.167" type="curve" smooth="yes"/>
      <point x="351.333" y="617.167"/>
      <point x="420" y="594"/>
      <point x="420" y="467.833" type="curve" smooth="yes"/>
      <point x="420" y="360.5"/>
      <point x="371.833" y="316.5"/>
      <point x="277.333" y="316.5" type="curve" smooth="yes"/>
      <point x="231.499" y="316.5"/>
      <point x="209.666" y="319.167"/>
      <point x="178.166" y="324.5" type="curve"/>
      <point x="178.166" y="311.333"/>
      <point x="183.333" y="299.833"/>
      <point x="193.166" y="290" type="curve"/>
      <point x="216.333" y="284.667"/>
      <point x="244.166" y="281.167"/>
      <point x="282.333" y="281.167" type="curve" smooth="yes"/>
      <point x="457.667" y="281.167"/>
      <point x="522.667" y="387.833"/>
      <point x="522.667" y="485.666" type="curve" smooth="yes"/>
      <point x="522.667" y="558.333"/>
      <point x="468.333" y="652.334"/>
      <point x="295.333" y="652.334" type="curve" smooth="yes"/>
      <point x="260.166" y="652.334"/>
      <point x="199.583" y="645.333"/>
      <point x="154.083" y="645" type="curve"/>
    </contour>
  </outline>
</glyph>
<glyph name="Q" format="2">
  <advance width="720"/>
  <unicode hex="0051"/>
  <anchor x="327.333" y="740" name="t.uni0302"/>
  <outline>
    <contour>
      <point x="36.333" y="309.833" type="curve" smooth="yes"/>
      <point x="36.333" y="128.333"/>
      <point x="159.667" y="10.5"/>
      <point x="311.5" y="-8" type="curve"/>
      <point x="255.5" y="-36.167"/>
      <point x="175.833" y="-98"/>
      <point x="141.667" y="-153" type="curve"/>
      <point x="180.667" y="-174.667" type="line"/>
      <point x="192.5" y="-157.833"/>
      <point x="205.5" y="-142.833"/>
      <point x="218.333" y="-128.833" type="curve"/>
      <point x="232.5" y="-118.833"/>
      <point x="245.667" y="-115.666"/>
      <point x="253.667" y="-115.666" type="curve" smooth="yes"/>
      <point x="296.5" y="-115.666"/>
      <point x="332.667" y="-135.167"/>
      <point x="371.666" y="-157.5" type="curve" smooth="yes"/>
      <point x="418.666" y="-184.666"/>
      <point x="468.666" y="-212.333"/>
      <point x="539.666" y="-212.333" type="curve" smooth="yes"/>
      <point x="602.666" y="-212.333"/>
      <point x="644.667" y="-184.666"/>
      <point x="683.667" y="-128.666" type="curve"/>
      <point x="666.667" y="-115" type="line"/>
      <point x="644.667" y="-142"/>
      <point x="608.666" y="-152"/>
      <point x="579.666" y="-152" type="curve" smooth="yes"/>
      <point x="537.833" y="-152"/>
      <point x="498.224" y="-133.544"/>
      <point x="456.5" y="-113.333" type="curve" smooth="yes"/>
      <point x="409.891" y="-90.877"/>
      <point x="360.333" y="-68.333"/>
      <point x="302.333" y="-68.333" type="curve" smooth="yes"/>
      <point x="297" y="-68.333"/>
      <point x="290.833" y="-68.333"/>
      <point x="284.833" y="-69.166" type="curve"/>
      <point x="333.667" y="-34.167"/>
      <point x="381.5" y="-13.5"/>
      <point x="412.666" y="-4.833" type="curve"/>
      <point x="581.333" y="23.667"/>
      <point x="670" y="165.667"/>
      <point x="670" y="329" type="curve" smooth="yes"/>
      <point x="670" y="534.667"/>
      <point x="526.166" y="658"/>
      <point x="346.5" y="658" type="curve" smooth="yes"/>
      <point x="151.833" y="658"/>
      <point x="36.333" y="503.167"/>
    </contour>
    <contour>
      <point x="141.5" y="327.333" type="curve" smooth="yes"/>
      <point x="141.5" y="536.333"/>
      <point x="236.333" y="621"/>
      <point x="333.667" y="621" type="curve" smooth="yes"/>
      <point x="461.5" y="621"/>
      <point x="564.833" y="511.833"/>
      <point x="564.833" y="309.667" type="curve" smooth="yes"/>
      <point x="564.833" y="132.833"/>
      <point x="483.5" y="27"/>
      <point x="371.666" y="27" type="curve" smooth="yes"/>
      <point x="251.667" y="27"/>
      <point x="141.5" y="136"/>
    </contour>
  </outline>
</glyph>
<glyph name="R" format="2">
  <advance width="611"/>
  <unicode hex="0052"/>
  <anchor x="286.833" y="740" name="t.uni0302"/>
  <anchor x="286.5" y="-60" name="b.minus-60"/>
  <outline>
    <contour>
      <point x="20.333" y="-2" type="curve"/>
      <point x="59.333" y="-1"/>
      <point x="131.166" y="0"/>
      <point x="159.5" y="0" type="curve"/>
      <point x="159.5" y="645" type="line"/>
      <point x="132.833" y="645"/>
      <point x="62" y="646"/>
      <point x="20.333" y="647" type="curve"/>
      <point x="14.333" y="641"/>
      <point x="14.333" y="619.834"/>
      <point x="20.333" y="613.833" type="curve"/>
      <point x="90.333" y="610.833"/>
      <point x="107.333" y="604.166"/>
      <point x="107.333" y="526.166" type="curve" smooth="yes"/>
      <point x="107.333" y="120.5" type="line" smooth="yes"/>
      <point x="107.333" y="39"/>
      <point x="90.333" y="34.167"/>
      <point x="20.333" y="31.167" type="curve"/>
      <point x="14.333" y="25.167"/>
      <point x="14.333" y="4"/>
    </contour>
    <contour>
      <point x="154.083" y="0" type="line"/>
      <point x="192.416" y="0"/>
      <point x="244.833" y="-1"/>
      <point x="288.166" y="-2" type="curve"/>
      <point x="294.833" y="4"/>
      <point x="294.833" y="25.167"/>
      <point x="288.166" y="31.167" type="curve"/>
      <point x="220.666" y="34.167"/>
      <point x="201.833" y="39"/>
      <point x="201.833" y="122" type="curve" smooth="yes"/>
      <point x="201.833" y="289.667" type="line"/>
      <point x="283.514" y="289.667"/>
      <point x="302.162" y="275.891"/>
      <point x="316.333" y="253" type="curve" smooth="yes"/>
      <point x="425" y="79" type="line" smooth="yes"/>
      <point x="454.248" y="32.276"/>
      <point x="496.999" y="-10"/>
      <point x="556.999" y="-10" type="curve" smooth="yes"/>
      <point x="576.166" y="-10"/>
      <point x="598.999" y="-7.833"/>
      <point x="608.999" y="-2.833" type="curve"/>
      <point x="612.999" y="4.167"/>
      <point x="611.999" y="14.833"/>
      <point x="607.999" y="22.833" type="curve"/>
      <point x="562.999" y="22.833"/>
      <point x="538.333" y="55.167"/>
      <point x="511.999" y="98" type="curve" smooth="yes"/>
      <point x="384.333" y="308" type="line"/>
      <point x="429.166" y="323.333"/>
      <point x="517.166" y="375.333"/>
      <point x="517.166" y="479.833" type="curve" smooth="yes"/>
      <point x="517.166" y="616.667"/>
      <point x="403.666" y="652.334"/>
      <point x="288.166" y="652.334" type="curve" smooth="yes"/>
      <point x="245.333" y="652.334"/>
      <point x="197.25" y="645.333"/>
      <point x="154.083" y="645" type="curve"/>
    </contour>
    <contour>
      <point x="201.833" y="325" type="line"/>
      <point x="201.833" y="549" type="line" smooth="yes"/>
      <point x="201.833" y="584.5"/>
      <point x="215.666" y="617.167"/>
      <point x="283.666" y="617.167" type="curve" smooth="yes"/>
      <point x="344.166" y="617.167"/>
      <point x="415.333" y="594.833"/>
      <point x="415.333" y="476.166" type="curve" smooth="yes"/>
      <point x="415.333" y="351.5"/>
      <point x="343.833" y="325"/>
      <point x="249" y="325" type="curve" smooth="yes"/>
    </contour>
  </outline>
</glyph>
<glyph name="S" format="2">
  <advance width="488"/>
  <unicode hex="0053"/>
  <anchor x="234.167" y="740" name="t.uni0302"/>
  <anchor x="233" y="-60" name="b.minus-60"/>
  <anchor x="239.167" y="0" name="b.cedilla"/>
  <outline>
    <contour>
      <point x="46.8333" y="12.5" type="curve"/>
      <point x="108.334" y="12.5"/>
      <point x="141.588" y="-10.0103" name=".hr01"/>
      <point x="226.812" y="-10.0103" type="curve" smooth="yes"/>
      <point x="353.254" y="-10.0103"/>
      <point x="447.167" y="72.7049"/>
      <point x="447.167" y="184" type="curve" smooth="yes"/>
      <point x="447.167" y="270.956"/>
      <point x="395.072" y="330.503"/>
      <point x="281.969" y="372.679" type="curve" smooth="yes"/>
      <point x="178.232" y="411.153"/>
      <point x="129.333" y="456.812"/>
      <point x="129.333" y="514.5" type="curve" smooth="yes"/>
      <point x="129.333" y="572.03"/>
      <point x="179.009" y="622.667"/>
      <point x="235.167" y="622.667" type="curve" smooth="yes"/>
      <point x="290.582" y="622.667"/>
      <point x="353.143" y="583.713"/>
      <point x="380.333" y="492.333" type="curve"/>
      <point x="393.936" y="489.562"/>
      <point x="408.077" y="491.812"/>
      <point x="416.167" y="498.167" type="curve"/>
      <point x="408.827" y="544.965"/>
      <point x="407.235" y="571.773"/>
      <point x="408.5" y="630.167" type="curve"/>
      <point x="347.667" y="638.167"/>
      <point x="326.747" y="658"/>
      <point x="242.833" y="658" type="curve" smooth="yes"/>
      <point x="131.749" y="658"/>
      <point x="49.3333" y="584.244"/>
      <point x="49.3333" y="485" type="curve" smooth="yes"/>
      <point x="49.3333" y="400.136"/>
      <point x="99.9852" y="341.201"/>
      <point x="222" y="293.167" type="curve" smooth="yes"/>
      <point x="288.36" y="266.764"/>
      <point x="356.167" y="236.427"/>
      <point x="356.167" y="143.333" type="curve" smooth="yes"/>
      <point x="356.167" y="68.2018"/>
      <point x="312" y="27"/>
      <point x="234.667" y="27" type="curve" smooth="yes"/>
      <point x="142.667" y="27"/>
      <point x="83.7596" y="75.3365"/>
      <point x="62.8333" y="169.667" type="curve" name=".hr02"/>
      <point x="50.5838" y="173.304"/>
      <point x="38.3684" y="172.312"/>
      <point x="27" y="166.667" type="curve"/>
      <point x="38.6607" y="99.1515"/>
      <point x="43.2867" y="62.6932"/>
    </contour>
  </outline>
  <guideline angle="90" x="232" y="0"/>
</glyph>
<glyph name="T" format="2">
  <advance width="606"/>
  <unicode hex="0054"/>
  <anchor x="315.667" y="740" name="t.uni0302"/>
  <anchor x="315.333" y="-60" name="b.minus-60"/>
  <anchor x="356" y="0" name="b.cedilla"/>
  <outline>
    <contour>
      <point x="359.167" y="122.167" type="curve" smooth="yes"/>
      <point x="359.167" y="503.834" type="line" smooth="yes"/>
      <point x="359.167" y="567.834"/>
      <point x="369.167" y="605.667"/>
      <point x="405.167" y="605.667" type="curve" smooth="yes"/>
      <point x="427.167" y="605.667" type="line" smooth="yes"/>
      <point x="502.167" y="605.667"/>
      <point x="548.334" y="579.834"/>
      <point x="565.334" y="502.834" type="curve"/>
      <point x="576.334" y="502.834"/>
      <point x="591.167" y="503.834"/>
      <point x="600.167" y="507.834" type="curve"/>
      <point x="593.167" y="553.834"/>
      <point x="588.167" y="605"/>
      <point x="587.167" y="650" type="curve"/>
      <point x="587.167" y="651"/>
      <point x="585.167" y="653"/>
      <point x="584.167" y="653" type="curve"/>
      <point x="550.167" y="650"/>
      <point x="439.167" y="645"/>
      <point x="360.167" y="645" type="curve" smooth="yes"/>
      <point x="265" y="645" type="line" smooth="yes"/>
      <point x="188" y="645"/>
      <point x="70" y="650"/>
      <point x="32" y="653" type="curve"/>
      <point x="30" y="653"/>
      <point x="28" y="651"/>
      <point x="28" y="650" type="curve"/>
      <point x="24" y="605"/>
      <point x="14" y="552.834"/>
      <point x="3" y="504.834" type="curve"/>
      <point x="13" y="500.834"/>
      <point x="25.833" y="499.834"/>
      <point x="37.833" y="499.834" type="curve"/>
      <point x="57.833" y="579.834"/>
      <point x="103" y="605.667"/>
      <point x="169" y="605.667" type="curve" smooth="yes"/>
      <point x="218" y="605.667" type="line" smooth="yes"/>
      <point x="255" y="605.667"/>
      <point x="265" y="567.834"/>
      <point x="265" y="506.834" type="curve" smooth="yes"/>
      <point x="265" y="122.167" type="line" smooth="yes"/>
      <point x="265" y="39.167"/>
      <point x="248" y="34.167"/>
      <point x="168" y="31.167" type="curve"/>
      <point x="162" y="25.167"/>
      <point x="162" y="4"/>
      <point x="168" y="-2" type="curve"/>
      <point x="217" y="-1"/>
      <point x="268.167" y="0"/>
      <point x="312.167" y="0" type="curve" smooth="yes"/>
      <point x="354.834" y="0"/>
      <point x="406.167" y="-1"/>
      <point x="456.167" y="-2" type="curve"/>
      <point x="462.167" y="4"/>
      <point x="462.167" y="25.167"/>
      <point x="456.167" y="31.167" type="curve"/>
      <point x="376.167" y="34.167"/>
      <point x="359.167" y="39.167"/>
    </contour>
  </outline>
</glyph>
<glyph name="U" format="2">
  <advance width="673"/>
  <unicode hex="0055"/>
  <anchor x="350.667" y="735.333" name="t.uni0302"/>
  <anchor x="395.833" y="10" name="b.ogonek"/>
  <anchor x="349" y="-60" name="b.minus-60"/>
  <outline>
    <contour>
      <point x="181.167" y="522.833" type="line" smooth="yes"/>
      <point x="181.167" y="605.833"/>
      <point x="196.167" y="610.833"/>
      <point x="273.167" y="613.833" type="curve"/>
      <point x="279.167" y="619.833"/>
      <point x="279.167" y="641"/>
      <point x="273.167" y="647" type="curve"/>
      <point x="225.833" y="646"/>
      <point x="174" y="645"/>
      <point x="133.5" y="645" type="curve" smooth="yes"/>
      <point x="93.5" y="645"/>
      <point x="50.8333" y="646"/>
      <point x="10" y="647" type="curve"/>
      <point x="4" y="641"/>
      <point x="4" y="619.833"/>
      <point x="10" y="613.833" type="curve"/>
      <point x="70" y="610.833"/>
      <point x="87" y="605.833"/>
      <point x="87" y="522.833" type="curve" smooth="yes"/>
      <point x="87" y="233.5" type="line" smooth="yes"/>
      <point x="87" y="30.5"/>
      <point x="215.833" y="-10"/>
      <point x="330.167" y="-10" type="curve" smooth="yes"/>
      <point x="535.167" y="-10"/>
      <point x="586.833" y="117"/>
      <point x="586.833" y="295" type="curve" smooth="yes"/>
      <point x="586.833" y="522.833" type="line" smooth="yes"/>
      <point x="586.833" y="603.333"/>
      <point x="604" y="607"/>
      <point x="663.833" y="613.833" type="curve"/>
      <point x="669.833" y="619.833"/>
      <point x="669.833" y="641"/>
      <point x="663.833" y="647" type="curve"/>
      <point x="625.667" y="646"/>
      <point x="584.833" y="645"/>
      <point x="561" y="645" type="curve" smooth="yes"/>
      <point x="538.667" y="645"/>
      <point x="489.167" y="646"/>
      <point x="443.167" y="647" type="curve"/>
      <point x="437.167" y="641"/>
      <point x="437.167" y="619.833"/>
      <point x="443.167" y="613.833" type="curve"/>
      <point x="518.333" y="607"/>
      <point x="535.167" y="604.167"/>
      <point x="535.167" y="522.833" type="curve" smooth="yes"/>
      <point x="535.167" y="277" type="line" smooth="yes"/>
      <point x="535.167" y="165"/>
      <point x="520.167" y="31.1667"/>
      <point x="351.167" y="31.1667" type="curve" smooth="yes"/>
      <point x="209.667" y="31.1667"/>
      <point x="181.167" y="149"/>
      <point x="181.167" y="266.5" type="curve" smooth="yes"/>
    </contour>
  </outline>
</glyph>
<glyph name="V" format="2">
  <advance width="662"/>
  <unicode hex="0056"/>
  <anchor x="337.5" y="740" name="t.uni0302"/>
  <anchor x="347.167" y="-60" name="b.minus-60"/>
  <outline>
    <contour>
      <point x="298.333" y="11" type="line" smooth="yes"/>
      <point x="304.5" y="-5.167"/>
      <point x="312.333" y="-12"/>
      <point x="323" y="-12" type="curve" smooth="yes"/>
      <point x="334.5" y="-12"/>
      <point x="342.5" y="-3.667"/>
      <point x="348.666" y="11" type="curve" smooth="yes"/>
      <point x="556.666" y="524.666" type="line" smooth="yes"/>
      <point x="576.5" y="573.833"/>
      <point x="595.166" y="607.5"/>
      <point x="655" y="613.833" type="curve"/>
      <point x="661" y="619.833"/>
      <point x="661" y="641"/>
      <point x="655" y="647" type="curve"/>
      <point x="625" y="646"/>
      <point x="590.5" y="645"/>
      <point x="566" y="645" type="curve" smooth="yes"/>
      <point x="540" y="645"/>
      <point x="493.333" y="646"/>
      <point x="453" y="647" type="curve"/>
      <point x="447" y="641"/>
      <point x="447" y="619.833"/>
      <point x="453" y="613.833" type="curve"/>
      <point x="521" y="609.166"/>
      <point x="528.666" y="585.666"/>
      <point x="508.666" y="534.333" type="curve" smooth="yes"/>
      <point x="351.5" y="134.833" type="line"/>
      <point x="347.666" y="134.833" type="line"/>
      <point x="191.333" y="540.5" type="line" smooth="yes"/>
      <point x="170.333" y="596"/>
      <point x="181.5" y="607.5"/>
      <point x="246.166" y="613.833" type="curve"/>
      <point x="252.166" y="619.833"/>
      <point x="252.166" y="641"/>
      <point x="246.166" y="647" type="curve"/>
      <point x="206.666" y="646"/>
      <point x="152.5" y="645"/>
      <point x="116" y="645" type="curve" smooth="yes"/>
      <point x="79.1663" y="645"/>
      <point x="40.6663" y="646"/>
      <point x="7.00033" y="647" type="curve"/>
      <point x="1.00033" y="641"/>
      <point x="1.83333" y="619.833"/>
      <point x="7.83333" y="613.833" type="curve"/>
      <point x="60.1663" y="609"/>
      <point x="72.3333" y="594"/>
      <point x="97.8333" y="529" type="curve" smooth="yes"/>
    </contour>
  </outline>
</glyph>
<glyph name="W" format="2">
  <advance width="961"/>
  <unicode hex="0057"/>
  <anchor x="474.5" y="740" name="t.uni0302"/>
  <anchor x="379.167" y="-60" name="b.minus-60"/>
  <outline>
    <contour>
      <point x="616.666" y="14.333" type="line" smooth="yes"/>
      <point x="622.833" y="-3"/>
      <point x="628.833" y="-12"/>
      <point x="641.333" y="-12" type="curve" smooth="yes"/>
      <point x="652.666" y="-12"/>
      <point x="660.833" y="-2"/>
      <point x="666.166" y="13.5" type="curve" smooth="yes"/>
      <point x="865" y="548" type="line" smooth="yes"/>
      <point x="879.333" y="587"/>
      <point x="901" y="610.833"/>
      <point x="954.166" y="613.833" type="curve"/>
      <point x="960.166" y="619.833"/>
      <point x="960.166" y="641"/>
      <point x="954.166" y="647" type="curve"/>
      <point x="924.5" y="646"/>
      <point x="892.166" y="645"/>
      <point x="864.666" y="645" type="curve" smooth="yes"/>
      <point x="836.166" y="645"/>
      <point x="791.666" y="646"/>
      <point x="752.166" y="647" type="curve"/>
      <point x="746.166" y="641"/>
      <point x="746.166" y="619.833"/>
      <point x="752.166" y="613.833" type="curve"/>
      <point x="795.833" y="609.833"/>
      <point x="832.333" y="603.833"/>
      <point x="817.833" y="561.833" type="curve" smooth="yes"/>
      <point x="667" y="138.166" type="line"/>
      <point x="663.5" y="139.166" type="line"/>
      <point x="526" y="557.166" type="line" smooth="yes"/>
      <point x="510" y="607.666"/>
      <point x="545.333" y="610.833"/>
      <point x="581.666" y="613.833" type="curve"/>
      <point x="587.666" y="619.833"/>
      <point x="587.666" y="641"/>
      <point x="581.666" y="647" type="curve"/>
      <point x="541.333" y="646"/>
      <point x="488" y="645"/>
      <point x="448.166" y="645" type="curve" smooth="yes"/>
      <point x="413.833" y="645"/>
      <point x="375.333" y="646"/>
      <point x="342.5" y="647" type="curve"/>
      <point x="336.5" y="641"/>
      <point x="336.5" y="619.833"/>
      <point x="342.5" y="613.833" type="curve"/>
      <point x="393.166" y="610.666"/>
      <point x="417.166" y="583.5"/>
      <point x="427.5" y="554.833" type="curve" smooth="yes"/>
    </contour>
    <contour>
      <point x="269.166" y="14.333" type="line"/>
      <point x="274.5" y="-2.5"/>
      <point x="282" y="-12"/>
      <point x="293" y="-12" type="curve" smooth="yes"/>
      <point x="305.5" y="-12"/>
      <point x="313.166" y="-3.334"/>
      <point x="320.333" y="14.333" type="curve" smooth="yes"/>
      <point x="495.833" y="418.333" type="line"/>
      <point x="472.166" y="486.333" type="line"/>
      <point x="324.5" y="138.166" type="line"/>
      <point x="319.833" y="139.166" type="line"/>
      <point x="178.833" y="572.166" type="line" smooth="yes"/>
      <point x="167.166" y="606.833"/>
      <point x="195.666" y="611.666"/>
      <point x="232.833" y="613.833" type="curve"/>
      <point x="238.833" y="619.833"/>
      <point x="238.833" y="641"/>
      <point x="232.833" y="647" type="curve"/>
      <point x="199.166" y="646"/>
      <point x="145.833" y="645"/>
      <point x="106.833" y="645" type="curve" smooth="yes"/>
      <point x="70.8333" y="645"/>
      <point x="37.3333" y="646"/>
      <point x="7.00033" y="647" type="curve"/>
      <point x="1.00033" y="641"/>
      <point x="1.00033" y="619.833"/>
      <point x="7.00033" y="613.833" type="curve"/>
      <point x="51.0003" y="610.666"/>
      <point x="62.8333" y="608.666"/>
      <point x="81.1663" y="556.5" type="curve" smooth="yes"/>
    </contour>
  </outline>
</glyph>
<glyph name="X" format="2">
  <advance width="670"/>
  <unicode hex="0058"/>
  <anchor x="332.333" y="740" name="t.uni0302"/>
  <anchor x="352.833" y="-60" name="b.minus-60"/>
  <outline>
    <contour>
      <point x="421.667" y="-1.83333" type="curve"/>
      <point x="459.167" y="-0.833333"/>
      <point x="502.667" y="0.166667"/>
      <point x="542.667" y="0.166667" type="curve" smooth="yes"/>
      <point x="581.667" y="0.166667"/>
      <point x="621.333" y="-0.833333"/>
      <point x="651.333" y="-1.83333" type="curve"/>
      <point x="657.333" y="4.16667"/>
      <point x="656.333" y="25.3333"/>
      <point x="650.333" y="31.3333" type="curve"/>
      <point x="608.333" y="34.3333"/>
      <point x="589.833" y="44.1667"/>
      <point x="548.667" y="101.5" type="curve"/>
      <point x="352.833" y="366.167" type="line"/>
      <point x="225.167" y="559.5" type="line"/>
      <point x="197.333" y="599"/>
      <point x="194.167" y="610.833"/>
      <point x="250.167" y="613.833" type="curve"/>
      <point x="256.167" y="619.833"/>
      <point x="256.167" y="641"/>
      <point x="250.167" y="647" type="curve"/>
      <point x="212.667" y="646"/>
      <point x="170.667" y="645"/>
      <point x="130.667" y="645" type="curve" smooth="yes"/>
      <point x="91.6667" y="645"/>
      <point x="49.8333" y="646"/>
      <point x="19.8333" y="647" type="curve"/>
      <point x="13.8333" y="641"/>
      <point x="14.8333" y="619.833"/>
      <point x="20.8333" y="613.833" type="curve"/>
      <point x="62.8333" y="610.833"/>
      <point x="81.8333" y="605"/>
      <point x="122.333" y="547" type="curve"/>
      <point x="300.5" y="301.667" type="line"/>
      <point x="445.667" y="85.6667" type="line"/>
      <point x="473.167" y="46.5"/>
      <point x="477.667" y="34.3333"/>
      <point x="421.667" y="31.3333" type="curve"/>
      <point x="415.667" y="25.3333"/>
      <point x="415.667" y="4.16667"/>
    </contour>
    <contour>
      <point x="7.5" y="-1.83333" type="curve"/>
      <point x="37.5" y="-0.833333"/>
      <point x="78" y="0.166667"/>
      <point x="101" y="0.166667" type="curve" smooth="yes"/>
      <point x="124" y="0.166667"/>
      <point x="168.833" y="-0.833333"/>
      <point x="208.833" y="-1.83333" type="curve"/>
      <point x="214.833" y="4.16667"/>
      <point x="214.833" y="25.3333"/>
      <point x="208.833" y="31.3333" type="curve"/>
      <point x="164.833" y="34.3333"/>
      <point x="145.833" y="41.5"/>
      <point x="169" y="74.5" type="curve" smooth="yes"/>
      <point x="325" y="296.833" type="line"/>
      <point x="296.667" y="328.667" type="line"/>
      <point x="118" y="91" type="line" smooth="yes"/>
      <point x="85" y="46.6667"/>
      <point x="52.5" y="35.3333"/>
      <point x="7.5" y="31.3333" type="curve"/>
      <point x="1.5" y="25.3333"/>
      <point x="1.5" y="4.16667"/>
    </contour>
    <contour>
      <point x="330.5" y="361" type="line"/>
      <point x="354.167" y="331.333" type="line"/>
      <point x="526.333" y="554.167" type="line" smooth="yes"/>
      <point x="560.167" y="597.667"/>
      <point x="591" y="609.833"/>
      <point x="636" y="613.833" type="curve"/>
      <point x="642" y="619.833"/>
      <point x="642" y="641"/>
      <point x="636" y="647" type="curve"/>
      <point x="606" y="646"/>
      <point x="567" y="645"/>
      <point x="544" y="645" type="curve" smooth="yes"/>
      <point x="521" y="645"/>
      <point x="477.167" y="646"/>
      <point x="437.167" y="647" type="curve"/>
      <point x="431.167" y="641"/>
      <point x="431.167" y="619.833"/>
      <point x="437.167" y="613.833" type="curve"/>
      <point x="481.167" y="610.833"/>
      <point x="499.5" y="603.167"/>
      <point x="477" y="570.667" type="curve" smooth="yes"/>
    </contour>
  </outline>
  <guideline angle="52.2597" x="379" y="375"/>
  <guideline angle="234.898" x="471" y="572"/>
</glyph>
<glyph name="Y" format="2">
  <advance width="583"/>
  <unicode hex="0059"/>
  <anchor x="311.5" y="740" name="t.uni0302"/>
  <anchor x="352.833" y="-60" name="b.minus-60"/>
  <outline>
    <contour>
      <point x="345.333" y="122" type="curve" smooth="yes"/>
      <point x="345.333" y="259.667" type="line" smooth="yes"/>
      <point x="345.333" y="291.333"/>
      <point x="346.833" y="308.167"/>
      <point x="363.167" y="336.833" type="curve" smooth="yes"/>
      <point x="483.667" y="552.5" type="line" smooth="yes"/>
      <point x="510.833" y="601.333"/>
      <point x="532.333" y="609.833"/>
      <point x="577.333" y="613.833" type="curve"/>
      <point x="583.333" y="619.833"/>
      <point x="583.333" y="641"/>
      <point x="577.333" y="647" type="curve"/>
      <point x="549" y="646"/>
      <point x="515.667" y="645"/>
      <point x="492.667" y="645" type="curve" smooth="yes"/>
      <point x="469.667" y="645"/>
      <point x="431.667" y="646"/>
      <point x="398.333" y="647" type="curve"/>
      <point x="392.333" y="641"/>
      <point x="392.333" y="619.833"/>
      <point x="398.333" y="613.833" type="curve"/>
      <point x="442.333" y="610.833"/>
      <point x="459.5" y="599.833"/>
      <point x="439.333" y="561.5" type="curve" smooth="yes"/>
      <point x="329.667" y="355" type="line" smooth="yes"/>
      <point x="321.833" y="340.333"/>
      <point x="316.5" y="341.167"/>
      <point x="307.5" y="357.167" type="curve" smooth="yes"/>
      <point x="193.5" y="558.667" type="line" smooth="yes"/>
      <point x="170" y="600"/>
      <point x="173.333" y="610.833"/>
      <point x="229.333" y="613.833" type="curve"/>
      <point x="235.333" y="619.833"/>
      <point x="235.333" y="641"/>
      <point x="229.333" y="647" type="curve"/>
      <point x="192.667" y="646"/>
      <point x="153.667" y="645"/>
      <point x="113.667" y="645" type="curve" smooth="yes"/>
      <point x="74.6667" y="645"/>
      <point x="35" y="646"/>
      <point x="5" y="647" type="curve"/>
      <point x="-1" y="641"/>
      <point x="0" y="619.833"/>
      <point x="6" y="613.833" type="curve"/>
      <point x="48" y="610.833"/>
      <point x="65.3333" y="604.667"/>
      <point x="100" y="547" type="curve" smooth="yes"/>
      <point x="230.333" y="327" type="line" smooth="yes"/>
      <point x="248.333" y="298"/>
      <point x="251.167" y="287.667"/>
      <point x="251.167" y="250.667" type="curve" smooth="yes"/>
      <point x="251.167" y="122" type="line" smooth="yes"/>
      <point x="251.167" y="39"/>
      <point x="234.167" y="34.1667"/>
      <point x="154.167" y="31.1667" type="curve"/>
      <point x="148.167" y="25.1667"/>
      <point x="148.167" y="4"/>
      <point x="154.167" y="-2" type="curve"/>
      <point x="203.167" y="-1"/>
      <point x="256.167" y="0"/>
      <point x="300" y="0" type="curve" smooth="yes"/>
      <point x="341.667" y="0"/>
      <point x="392.333" y="-1"/>
      <point x="442.333" y="-2" type="curve"/>
      <point x="448.333" y="4"/>
      <point x="448.333" y="25.1667"/>
      <point x="442.333" y="31.1667" type="curve"/>
      <point x="362.333" y="34.1667"/>
      <point x="345.333" y="39"/>
    </contour>
  </outline>
</glyph>
<glyph name="Z" format="2">
  <advance width="607"/>
  <unicode hex="005A"/>
  <anchor x="315.667" y="740" name="t.uni0302"/>
  <anchor x="283" y="-60" name="b.minus-60"/>
  <outline>
    <contour>
      <point x="37.5" y="15" type="curve" smooth="yes"/>
      <point x="37.5" y="5"/>
      <point x="42.5" y="0"/>
      <point x="56.5" y="0" type="curve" smooth="yes"/>
      <point x="409.667" y="0" type="line" smooth="yes"/>
      <point x="445" y="0"/>
      <point x="539.667" y="-2.5"/>
      <point x="553.5" y="-3.83333" type="curve"/>
      <point x="553.833" y="-3.83333"/>
      <point x="555.833" y="-1.83333"/>
      <point x="555.833" y="-1.66667" type="curve"/>
      <point x="559.667" y="50.8333"/>
      <point x="569.667" y="112.333"/>
      <point x="582" y="166.167" type="curve"/>
      <point x="574.5" y="168.5"/>
      <point x="562.5" y="171.167"/>
      <point x="549.667" y="171.167" type="curve"/>
      <point x="520.5" y="98.6667"/>
      <point x="491.667" y="44"/>
      <point x="389.833" y="42.3333" type="curve" smooth="yes"/>
      <point x="195.667" y="39" type="line"/>
      <point x="178.5" y="39"/>
      <point x="170.667" y="43.6667"/>
      <point x="170.667" y="52.1667" type="curve" smooth="yes"/>
      <point x="170.667" y="57.1667"/>
      <point x="173.833" y="63.1667"/>
      <point x="178.833" y="72" type="curve"/>
      <point x="550.333" y="591" type="line" smooth="yes"/>
      <point x="570.333" y="619.167"/>
      <point x="574" y="625.167"/>
      <point x="574" y="636.167" type="curve" smooth="yes"/>
      <point x="574" y="643"/>
      <point x="569.333" y="647"/>
      <point x="560.333" y="647" type="curve" smooth="yes"/>
      <point x="548.167" y="647"/>
      <point x="518.333" y="645"/>
      <point x="488.5" y="645" type="curve" smooth="yes"/>
      <point x="270.833" y="645" type="line" smooth="yes"/>
      <point x="218.833" y="645"/>
      <point x="120" y="650"/>
      <point x="83.6667" y="653.833" type="curve"/>
      <point x="83.3333" y="653.833"/>
      <point x="79.6667" y="651.833"/>
      <point x="79.6667" y="650.833" type="curve"/>
      <point x="76.5" y="599.167"/>
      <point x="66.3333" y="539.833"/>
      <point x="57.8333" y="497.667" type="curve"/>
      <point x="67.8333" y="494.5"/>
      <point x="78.1667" y="492.667"/>
      <point x="89.3333" y="492.667" type="curve"/>
      <point x="110.167" y="563.5"/>
      <point x="148.833" y="601.167"/>
      <point x="222.333" y="602" type="curve" smooth="yes"/>
      <point x="430" y="605.333" type="line"/>
      <point x="436.333" y="605.333"/>
      <point x="440.167" y="602.5"/>
      <point x="440.167" y="596.833" type="curve" smooth="yes"/>
      <point x="440.167" y="592.167"/>
      <point x="436.833" y="585.833"/>
      <point x="432" y="579" type="curve" smooth="yes"/>
      <point x="45.5" y="38" type="line" smooth="yes"/>
      <point x="39.5" y="30"/>
      <point x="37.5" y="22"/>
    </contour>
  </outline>
</glyph>
<glyph name="bracketleft" format="2">
  <advance width="363"/>
  <unicode hex="005B"/>
  <outline>
    <contour>
      <point x="106.167" y="-193" type="line"/>
      <point x="323.667" y="-193" type="line"/>
      <point x="329.667" y="-187"/>
      <point x="329.667" y="-169"/>
      <point x="323.667" y="-163" type="curve"/>
      <point x="185.667" y="-152"/>
      <point x="178.667" y="-137"/>
      <point x="178.667" y="-50" type="curve" smooth="yes"/>
      <point x="178.667" y="561" type="line" smooth="yes"/>
      <point x="178.667" y="648"/>
      <point x="186.667" y="663"/>
      <point x="323.667" y="673" type="curve"/>
      <point x="329.667" y="679"/>
      <point x="329.667" y="697"/>
      <point x="323.667" y="703" type="curve"/>
      <point x="106.167" y="703" type="line"/>
    </contour>
  </outline>
</glyph>
<glyph name="bracketright" format="2">
  <advance width="363"/>
  <unicode hex="005D"/>
  <outline>
    <contour>
      <point x="257" y="703.5" type="line"/>
      <point x="39.5" y="703.5" type="line"/>
      <point x="33.5" y="697.5"/>
      <point x="33.5" y="679.5"/>
      <point x="39.5" y="673.5" type="curve"/>
      <point x="177.5" y="662.5"/>
      <point x="184.5" y="647.5"/>
      <point x="184.5" y="560.5" type="curve" smooth="yes"/>
      <point x="184.5" y="-50.5" type="line" smooth="yes"/>
      <point x="184.5" y="-137.5"/>
      <point x="176.5" y="-152.5"/>
      <point x="39.5" y="-162.5" type="curve"/>
      <point x="33.5" y="-168.5"/>
      <point x="33.5" y="-186.5"/>
      <point x="39.5" y="-192.5" type="curve"/>
      <point x="257" y="-192.5" type="line"/>
    </contour>
  </outline>
</glyph>
<glyph name="asciicircum" format="2">
  <advance width="518"/>
  <unicode hex="005E"/>
  <outline>
    <contour>
      <point x="259" y="589" type="line"/>
      <point x="360" y="346" type="line"/>
      <point x="407" y="346" type="line"/>
      <point x="281" y="650" type="line"/>
      <point x="239" y="650" type="line"/>
      <point x="112" y="346" type="line"/>
      <point x="159" y="346" type="line"/>
    </contour>
  </outline>
</glyph>
<glyph name="underscore" format="2">
  <advance width="486"/>
  <unicode hex="005F"/>
  <outline>
    <contour>
      <point x="188.833" y="-149.333" type="line"/>
      <point x="188.833" y="-108.833" type="line"/>
      <point x="23.5" y="-108.833" type="line" smooth="yes"/>
      <point x="14.5" y="-108.833"/>
      <point x="3.5" y="-123"/>
      <point x="3.5" y="-134.833" type="curve" smooth="yes"/>
      <point x="3.5" y="-141.166"/>
      <point x="6.5" y="-149.333"/>
      <point x="14.333" y="-149.333" type="curve" smooth="yes"/>
    </contour>
    <contour>
      <point x="353.667" y="-108.833" type="line"/>
      <point x="164.167" y="-108.833" type="line"/>
      <point x="164.167" y="-149.333" type="line"/>
      <point x="353.667" y="-149.333" type="line"/>
    </contour>
    <contour>
      <point x="328.334" y="-149.333" type="line"/>
      <point x="461.667" y="-149.333" type="line" smooth="yes"/>
      <point x="473.5" y="-149.333"/>
      <point x="483.334" y="-134.833"/>
      <point x="483.334" y="-122.833" type="curve" smooth="yes"/>
      <point x="483.334" y="-117.166"/>
      <point x="480.334" y="-108.833"/>
      <point x="471.667" y="-108.833" type="curve" smooth="yes"/>
      <point x="328.334" y="-108.833" type="line"/>
    </contour>
  </outline>
</glyph>
<glyph name="grave" format="2">
  <advance width="392"/>
  <unicode hex="0060"/>
  <anchor x="175" y="500" name="_t.uni0302"/>
  <anchor x="208.167" y="500" name="_top"/>
  <outline>
    <contour>
      <point x="181.333" y="661.833" type="line"/>
      <point x="177.333" y="662.833"/>
      <point x="170.5" y="663.833"/>
      <point x="165.5" y="663.833" type="curve" smooth="yes"/>
      <point x="131.167" y="663.833"/>
      <point x="107.167" y="645.833"/>
      <point x="99.167" y="639.333" type="curve"/>
      <point x="97.167" y="628.333" type="line"/>
      <point x="212.333" y="520" type="line" smooth="yes"/>
      <point x="228.5" y="505"/>
      <point x="236" y="500"/>
      <point x="242.333" y="500" type="curve" smooth="yes"/>
      <point x="250.5" y="500"/>
      <point x="257.667" y="506.167"/>
      <point x="257.667" y="511.833" type="curve" smooth="yes"/>
      <point x="257.667" y="519"/>
      <point x="256" y="526.667"/>
      <point x="251.167" y="536.167" type="curve"/>
    </contour>
  </outline>
</glyph>
<glyph name="a" format="2">
  <advance width="465"/>
  <unicode hex="0061"/>
  <anchor x="213" y="500" name="t.uni0302"/>
  <anchor x="213.921" y="500" name="t.ring"/>
  <anchor x="429.5" y="10" name="b.ogonek"/>
  <anchor x="225.333" y="-60" name="b.minus-60"/>
  <outline>
    <contour>
      <point x="291.667" y="48.1667" type="line"/>
      <point x="297.833" y="15.5"/>
      <point x="313.167" y="-10"/>
      <point x="362.167" y="-10" type="curve" smooth="yes"/>
      <point x="403" y="-10"/>
      <point x="439.5" y="7.66667"/>
      <point x="463.167" y="30.1667" type="curve"/>
      <point x="461.167" y="42.1667" name=".hr01"/>
      <point x="457.167" y="51"/>
      <point x="446" y="57.3333" type="curve"/>
      <point x="438" y="50.6667"/>
      <point x="422.167" y="41.6667"/>
      <point x="407.235" y="41.6667" type="curve" smooth="yes"/>
      <point x="380.333" y="41.6667"/>
      <point x="378.667" y="77.1667"/>
      <point x="378.667" y="123.667" type="curve" smooth="yes"/>
      <point x="378.667" y="270.167" type="line" smooth="yes"/>
      <point x="378.667" y="385.553"/>
      <point x="321.508" y="439.833"/>
      <point x="229.31" y="439.833" type="curve" smooth="yes"/>
      <point x="142.333" y="439.833"/>
      <point x="54.5" y="387.833"/>
      <point x="54.5" y="327.929" type="curve" smooth="yes"/>
      <point x="54.5" y="304.667"/>
      <point x="66.5" y="291"/>
      <point x="92.1667" y="291" type="curve" smooth="yes"/>
      <point x="122.333" y="291"/>
      <point x="142.5" y="312.167"/>
      <point x="142.5" y="332.277" type="curve" smooth="yes"/>
      <point x="142.5" y="341.28"/>
      <point x="139.333" y="349.761"/>
      <point x="139.333" y="363.628" type="curve" smooth="yes"/>
      <point x="139.333" y="391.753"/>
      <point x="156.615" y="405.333"/>
      <point x="201.803" y="405.333" type="curve" smooth="yes"/>
      <point x="262.342" y="405.333"/>
      <point x="290.833" y="367.639"/>
      <point x="290.833" y="263.667" type="curve" smooth="yes"/>
      <point x="290.833" y="80.1667" type="line"/>
      <point x="255" y="50.1667"/>
      <point x="223.333" y="34.1667" name=".hr02"/>
      <point x="194.5" y="34.1667" type="curve" smooth="yes"/>
      <point x="147.5" y="34.1667"/>
      <point x="124.833" y="71.8333"/>
      <point x="124.833" y="109.473" type="curve" smooth="yes"/>
      <point x="124.833" y="148.5"/>
      <point x="146.285" y="191.035"/>
      <point x="216.333" y="210.167" type="curve" smooth="yes"/>
      <point x="305.333" y="234.488" type="line"/>
      <point x="305.333" y="267.322" type="line"/>
      <point x="203" y="241.833" type="line" smooth="yes"/>
      <point x="100.117" y="215.535"/>
      <point x="35.6667" y="164.833"/>
      <point x="35.6667" y="97.5" type="curve" smooth="yes"/>
      <point x="35.6667" y="18"/>
      <point x="89.3333" y="-10"/>
      <point x="158.244" y="-10" type="curve" smooth="yes"/>
      <point x="194.333" y="-10"/>
      <point x="226.483" y="-1.28053"/>
      <point x="267.333" y="31.1667" type="curve" smooth="yes"/>
      <point x="289" y="48.1667" type="line"/>
    </contour>
  </outline>
</glyph>
<glyph name="b" format="2">
  <advance width="501"/>
  <unicode hex="0062"/>
  <anchor x="251.667" y="740" name="t.uni0302"/>
  <anchor x="233.167" y="-60" name="b.minus-60"/>
  <outline>
    <contour>
      <point x="72.167" y="-1" type="curve"/>
      <point x="78.333" y="-8.333"/>
      <point x="84.333" y="-12.167"/>
      <point x="96.167" y="-12.167" type="curve"/>
      <point x="110.833" y="-0.333"/>
      <point x="123.333" y="12.833"/>
      <point x="134" y="27.5" type="curve"/>
      <point x="165.5" y="-2.5"/>
      <point x="199.833" y="-10"/>
      <point x="242.5" y="-10" type="curve" smooth="yes"/>
      <point x="346" y="-10"/>
      <point x="464.667" y="85.833"/>
      <point x="464.667" y="234.912" type="curve" smooth="yes"/>
      <point x="464.667" y="351.501"/>
      <point x="388.611" y="439.833"/>
      <point x="285.333" y="439.833" type="curve" smooth="yes"/>
      <point x="239.139" y="439.833"/>
      <point x="206.348" y="421.52"/>
      <point x="150.833" y="374.833" type="curve"/>
      <point x="150.833" y="335.666" type="line"/>
      <point x="201.298" y="381.396"/>
      <point x="223.7" y="391.333"/>
      <point x="262.833" y="391.333" type="curve" smooth="yes"/>
      <point x="321.834" y="391.333"/>
      <point x="369.667" y="322.166"/>
      <point x="369.667" y="225" type="curve" smooth="yes"/>
      <point x="369.667" y="116.333"/>
      <point x="329" y="25.333"/>
      <point x="236.667" y="25.333" type="curve" smooth="yes"/>
      <point x="206" y="25.333"/>
      <point x="184.666" y="45.666"/>
      <point x="164.833" y="70.333" type="curve"/>
      <point x="164.833" y="583" type="line" smooth="yes"/>
      <point x="164.833" y="648"/>
      <point x="168.666" y="683.499"/>
      <point x="168.666" y="687.499" type="curve" smooth="yes"/>
      <point x="168.666" y="694.833"/>
      <point x="164.166" y="697.999"/>
      <point x="155.166" y="697.999" type="curve"/>
      <point x="128.166" y="687.666"/>
      <point x="51.5" y="674.166"/>
      <point x="6.333" y="671.166" type="curve"/>
      <point x="4.167" y="662.499"/>
      <point x="6" y="647.333"/>
      <point x="11.833" y="640.833" type="curve"/>
      <point x="64" y="638.333"/>
      <point x="76.5" y="631.5"/>
      <point x="76.5" y="598.333" type="curve" smooth="yes"/>
      <point x="76.5" y="80.333" type="line" smooth="yes"/>
      <point x="76.5" y="34"/>
      <point x="75.333" y="17"/>
    </contour>
  </outline>
</glyph>
<glyph name="c" format="2">
  <advance width="433"/>
  <unicode hex="0063"/>
  <anchor x="240.5" y="500" name="t.uni0302"/>
  <anchor x="245.667" y="-60" name="b.minus-60"/>
  <anchor x="249.833" y="0" name="b.cedilla"/>
  <outline>
    <contour>
      <point x="402" y="90.3333" type="curve"/>
      <point x="398.667" y="99.8333"/>
      <point x="391.667" y="106.333"/>
      <point x="382.333" y="107.167" type="curve"/>
      <point x="347.333" y="64.3333"/>
      <point x="305.833" y="42.8333"/>
      <point x="265.167" y="42.8333" type="curve" smooth="yes"/>
      <point x="191.833" y="42.8333"/>
      <point x="131.167" y="113.5"/>
      <point x="131.167" y="231" type="curve" smooth="yes"/>
      <point x="131.167" y="341.167"/>
      <point x="175.333" y="405.333"/>
      <point x="239.167" y="405.333" type="curve" smooth="yes"/>
      <point x="294.5" y="405.333"/>
      <point x="303.667" y="369.667"/>
      <point x="307.5" y="335.167" type="curve" smooth="yes"/>
      <point x="310.5" y="308.167"/>
      <point x="326.667" y="297.333"/>
      <point x="349.5" y="297.333" type="curve" smooth="yes"/>
      <point x="372.333" y="297.333"/>
      <point x="399.5" y="312.333"/>
      <point x="399.5" y="343.333" type="curve" smooth="yes"/>
      <point x="399.5" y="396.667"/>
      <point x="343" y="439.833"/>
      <point x="244.833" y="439.833" type="curve" smooth="yes"/>
      <point x="142.667" y="439.833"/>
      <point x="37" y="349.833"/>
      <point x="37" y="206.833" type="curve" smooth="yes"/>
      <point x="37" y="76.5"/>
      <point x="111.333" y="-10"/>
      <point x="238.333" y="-10" type="curve" smooth="yes"/>
      <point x="298.333" y="-10"/>
      <point x="354" y="12.8333"/>
    </contour>
  </outline>
</glyph>
<glyph name="d" format="2">
  <advance width="515"/>
  <unicode hex="0064"/>
  <anchor x="264.667" y="740" name="t.uni0302"/>
  <anchor x="250.333" y="-60" name="b.minus-60"/>
  <anchor x="494" y="657" name="apostrophe"/>
  <outline>
    <contour>
      <point x="359.833" y="-7.167" type="curve"/>
      <point x="366.833" y="-11.667"/>
      <point x="372.167" y="-11.667"/>
      <point x="379.5" y="-10" type="curve"/>
      <point x="404" y="6.667"/>
      <point x="443.166" y="21.5"/>
      <point x="505.5" y="28.833" type="curve"/>
      <point x="510.833" y="34.833"/>
      <point x="510.5" y="50.666"/>
      <point x="505.166" y="56.666" type="curve"/>
      <point x="443.666" y="61.666"/>
      <point x="434.333" y="80.166"/>
      <point x="434.333" y="130.499" type="curve" smooth="yes"/>
      <point x="434.333" y="590" type="line"/>
      <point x="346" y="590" type="line"/>
      <point x="346" y="109.166" type="line" smooth="yes"/>
      <point x="346" y="64.666"/>
      <point x="349.833" y="35.667"/>
    </contour>
    <contour>
      <point x="361.333" y="414.833" type="line"/>
      <point x="329.667" y="430.333"/>
      <point x="291.5" y="439.833"/>
      <point x="261.5" y="439.833" type="curve" smooth="yes"/>
      <point x="129.167" y="439.833"/>
      <point x="38.667" y="331.833"/>
      <point x="38.667" y="202.166" type="curve" smooth="yes"/>
      <point x="38.667" y="80.833"/>
      <point x="102" y="-10"/>
      <point x="211.5" y="-10" type="curve" smooth="yes"/>
      <point x="258.167" y="-10"/>
      <point x="325.167" y="35.167"/>
      <point x="356" y="68.166" type="curve"/>
      <point x="354.833" y="107.999" type="line"/>
      <point x="328.167" y="81.333"/>
      <point x="282.5" y="40.167"/>
      <point x="240.167" y="40.167" type="curve" smooth="yes"/>
      <point x="186.834" y="40.167"/>
      <point x="133.667" y="98.532"/>
      <point x="133.667" y="221.915" type="curve" smooth="yes"/>
      <point x="133.667" y="300.065"/>
      <point x="152" y="402.833"/>
      <point x="251.833" y="402.833" type="curve" smooth="yes"/>
      <point x="296" y="402.833"/>
      <point x="315.333" y="391.479"/>
      <point x="361.333" y="332.666" type="curve"/>
    </contour>
    <contour>
      <point x="346.001" y="576" type="curve"/>
      <point x="434.334" y="576" type="line"/>
      <point x="434.334" y="627.166"/>
      <point x="435.401" y="657.389"/>
      <point x="438.334" y="689.333" type="curve"/>
      <point x="438.334" y="694.574"/>
      <point x="432.503" y="698"/>
      <point x="423.667" y="698" type="curve"/>
      <point x="391.809" y="685.449"/>
      <point x="327.216" y="672.616"/>
      <point x="279.001" y="669.166" type="curve"/>
      <point x="277.36" y="663.566"/>
      <point x="278.437" y="647.858"/>
      <point x="281.001" y="640.166" type="curve"/>
      <point x="337.268" y="635.157"/>
      <point x="346.001" y="626.583"/>
    </contour>
  </outline>
</glyph>
<glyph name="e" format="2">
  <advance width="454"/>
  <unicode hex="0065"/>
  <anchor x="243.833" y="500" name="t.uni0302"/>
  <anchor x="326.333" y="10" name="b.ogonek"/>
  <anchor x="251.833" y="-60" name="b.minus-60"/>
  <anchor x="241.333" y="0" name="b.cedilla"/>
  <outline>
    <contour>
      <point x="393.5" y="99" type="curve"/>
      <point x="353.459" y="57.895"/>
      <point x="319.442" y="45.167"/>
      <point x="268" y="45.167" type="curve" smooth="yes"/>
      <point x="181.234" y="45.167"/>
      <point x="129.667" y="120.134"/>
      <point x="129.667" y="245.834" type="curve"/>
      <point x="391.333" y="243.167" type="line" smooth="yes"/>
      <point x="404.919" y="243.004"/>
      <point x="412" y="250.501"/>
      <point x="412" y="262.5" type="curve" smooth="yes"/>
      <point x="412" y="362.638"/>
      <point x="352.081" y="438.167"/>
      <point x="248.323" y="438.167" type="curve" smooth="yes"/>
      <point x="129.613" y="438.167"/>
      <point x="37" y="337.823"/>
      <point x="37" y="197.915" type="curve" smooth="yes"/>
      <point x="37" y="68.392"/>
      <point x="115.115" y="-10"/>
      <point x="237.542" y="-10" type="curve" smooth="yes"/>
      <point x="309.504" y="-10"/>
      <point x="367.94" y="19.939"/>
      <point x="413.5" y="80.5" type="curve"/>
      <point x="410.931" y="91.232"/>
      <point x="404.904" y="98.189"/>
    </contour>
    <contour>
      <point x="132.5" y="280.167" type="line"/>
      <point x="144.666" y="358.238"/>
      <point x="186.742" y="403.667"/>
      <point x="240.607" y="403.667" type="curve" smooth="yes"/>
      <point x="287.334" y="403.667"/>
      <point x="319.167" y="367.197"/>
      <point x="319.167" y="298.834" type="curve" smooth="yes"/>
      <point x="319.167" y="289.639"/>
      <point x="314.598" y="283.897"/>
      <point x="304.167" y="283.667" type="curve" smooth="yes"/>
    </contour>
  </outline>
</glyph>
<glyph name="f" format="2">
  <advance width="324"/>
  <unicode hex="0066"/>
  <anchor x="234" y="740" name="t.uni0302"/>
  <anchor x="352.833" y="-60" name="b.minus-60"/>
  <outline>
    <contour>
      <point x="30" y="-2" type="curve"/>
      <point x="64.5" y="-1"/>
      <point x="109" y="0"/>
      <point x="151.167" y="0" type="curve"/>
      <point x="151.167" y="122" type="line"/>
      <point x="102" y="122" type="line"/>
      <point x="102" y="39.834"/>
      <point x="91" y="35"/>
      <point x="30" y="31.167" type="curve"/>
      <point x="24" y="25.167"/>
      <point x="24" y="4"/>
    </contour>
    <contour>
      <point x="141.167" y="0" type="line"/>
      <point x="182" y="-0.167"/>
      <point x="227.334" y="-1"/>
      <point x="262.334" y="-2" type="curve"/>
      <point x="268.334" y="4"/>
      <point x="268.334" y="25.167"/>
      <point x="262.334" y="31.167" type="curve"/>
      <point x="201.334" y="35"/>
      <point x="190.334" y="39.834"/>
      <point x="190.334" y="122" type="curve"/>
      <point x="141.167" y="122" type="line"/>
    </contour>
    <contour>
      <point x="214.001" y="389.334" type="line"/>
      <point x="214.001" y="429.833" type="line"/>
      <point x="48.6667" y="429.833" type="line" smooth="yes"/>
      <point x="39.6667" y="429.833"/>
      <point x="28.6667" y="415.667"/>
      <point x="28.6667" y="403.833" type="curve" smooth="yes"/>
      <point x="28.6667" y="397.5"/>
      <point x="31.6667" y="389.334"/>
      <point x="39.4997" y="389.334" type="curve" smooth="yes"/>
    </contour>
    <contour>
      <point x="102" y="110" type="line"/>
      <point x="190.334" y="110" type="line"/>
      <point x="190.334" y="497.466" type="line" smooth="yes"/>
      <point x="190.334" y="635.599"/>
      <point x="231.884" y="662.667"/>
      <point x="264.109" y="662.667" type="curve" smooth="yes"/>
      <point x="292" y="662.667"/>
      <point x="306.874" y="649.868"/>
      <point x="320.41" y="617.219" type="curve" smooth="yes"/>
      <point x="329.353" y="595.609"/>
      <point x="342.904" y="580.833"/>
      <point x="365.667" y="580.833" type="curve" smooth="yes"/>
      <point x="385.775" y="580.833"/>
      <point x="409.334" y="602.329"/>
      <point x="409.334" y="624.062" type="curve" smooth="yes"/>
      <point x="409.334" y="678.5"/>
      <point x="338.334" y="698"/>
      <point x="284.834" y="698" type="curve" smooth="yes"/>
      <point x="192.334" y="698"/>
      <point x="102" y="617.334"/>
      <point x="102" y="466.5" type="curve" smooth="yes"/>
    </contour>
    <contour>
      <point x="154.5" y="389.334" type="line"/>
      <point x="287.833" y="389.334" type="line" smooth="yes"/>
      <point x="299.667" y="389.334"/>
      <point x="309.5" y="403.833"/>
      <point x="309.5" y="415.833" type="curve" smooth="yes"/>
      <point x="309.5" y="421.5"/>
      <point x="306.5" y="429.833"/>
      <point x="297.833" y="429.833" type="curve" smooth="yes"/>
      <point x="154.5" y="429.833" type="line"/>
    </contour>
  </outline>
</glyph>
<glyph name="g" format="2">
  <advance width="504"/>
  <unicode hex="0067"/>
  <anchor x="243" y="500" name="t.uni0302"/>
  <outline>
    <contour>
      <point x="57.6667" y="288.5" type="curve" smooth="yes"/>
      <point x="57.6667" y="191.667"/>
      <point x="141" y="137"/>
      <point x="230.167" y="137" type="curve" smooth="yes"/>
      <point x="318.5" y="137"/>
      <point x="401.167" y="191"/>
      <point x="401.167" y="289.333" type="curve" smooth="yes"/>
      <point x="401.167" y="337.833"/>
      <point x="384.833" y="366.5"/>
      <point x="355" y="396.167" type="curve"/>
      <point x="362.167" y="406.167"/>
      <point x="384.333" y="420.833"/>
      <point x="396.833" y="420.833" type="curve" smooth="yes"/>
      <point x="404.167" y="420.833"/>
      <point x="411.167" y="417.333"/>
      <point x="416.667" y="408.833" type="curve"/>
      <point x="420.667" y="400"/>
      <point x="434.5" y="388.167"/>
      <point x="447.833" y="388.167" type="curve" smooth="yes"/>
      <point x="468.333" y="388.167"/>
      <point x="486" y="405.167"/>
      <point x="486" y="428" type="curve" smooth="yes"/>
      <point x="486" y="448.667"/>
      <point x="465.833" y="466.833"/>
      <point x="437" y="466.833" type="curve" smooth="yes"/>
      <point x="408" y="466.833"/>
      <point x="358.333" y="447.167"/>
      <point x="331.833" y="414.5" type="curve"/>
      <point x="318.833" y="422.833"/>
      <point x="287.833" y="439.833" name=".hr01"/>
      <point x="231.167" y="439.833" type="curve" smooth="yes"/>
      <point x="142.5" y="439.833"/>
      <point x="57.6667" y="381.667"/>
    </contour>
    <contour>
      <point x="28.5" y="-121" type="curve" smooth="yes"/>
      <point x="28.5" y="-213.333" name=".hr02"/>
      <point x="112.333" y="-238"/>
      <point x="193" y="-238" type="curve" smooth="yes"/>
      <point x="328.667" y="-238"/>
      <point x="476.833" y="-171.667"/>
      <point x="476.833" y="-63.3333" type="curve" smooth="yes"/>
      <point x="476.833" y="37.8333"/>
      <point x="351.333" y="52.8333"/>
      <point x="275.333" y="52.8333" type="curve" smooth="yes"/>
      <point x="244.328" y="52.8333"/>
      <point x="210.857" y="46.3802"/>
      <point x="184.072" y="46.3802" type="curve" smooth="yes"/>
      <point x="137.087" y="46.3802"/>
      <point x="108" y="59.4979"/>
      <point x="108" y="101" type="curve" smooth="yes"/>
      <point x="108" y="117"/>
      <point x="127.333" y="145"/>
      <point x="151" y="168.167" type="curve"/>
      <point x="125.5" y="181.833" type="line"/>
      <point x="84" y="149"/>
      <point x="47.3333" y="100.833"/>
      <point x="47.3333" y="73" type="curve" smooth="yes"/>
      <point x="47.3333" y="12.0179"/>
      <point x="114.683" y="-16.7542"/>
      <point x="170.294" y="-16.7759" type="curve" smooth="yes"/>
      <point x="199.989" y="-16.7853"/>
      <point x="227.177" y="-13.699"/>
      <point x="242.735" y="-13.6954" type="curve" smooth="yes"/>
      <point x="297.86" y="-13.6829"/>
      <point x="414.167" y="-19.7313"/>
      <point x="414.167" y="-89.3333" type="curve" smooth="yes"/>
      <point x="414.167" y="-166.699"/>
      <point x="311.395" y="-200.167"/>
      <point x="222.667" y="-200.167" type="curve" smooth="yes"/>
      <point x="181.667" y="-200.167"/>
      <point x="104.167" y="-167.833"/>
      <point x="104.167" y="-102.667" type="curve" smooth="yes"/>
      <point x="104.167" y="-63.5"/>
      <point x="106.667" y="-36.8333"/>
      <point x="145.667" y="3.66667" type="curve"/>
      <point x="127.833" y="5.16667" type="line" name=".hr03"/>
      <point x="65.8333" y="-24.8333"/>
      <point x="28.5" y="-78.6667"/>
    </contour>
    <contour>
      <point x="146" y="302.5" type="curve" smooth="yes" name=".hr04"/>
      <point x="146" y="373.167"/>
      <point x="169.833" y="407.667" name=".hr05"/>
      <point x="222.167" y="407.667" type="curve" smooth="yes"/>
      <point x="282.5" y="407.667"/>
      <point x="314.167" y="362.833"/>
      <point x="314.167" y="280.5" type="curve" smooth="yes"/>
      <point x="314.167" y="187"/>
      <point x="270.333" y="169.167"/>
      <point x="235.167" y="169.167" type="curve" smooth="yes"/>
      <point x="154.833" y="169.167"/>
      <point x="146" y="240.667"/>
    </contour>
  </outline>
</glyph>
<glyph name="h" format="2">
  <advance width="559"/>
  <unicode hex="0068"/>
  <anchor x="298.167" y="740" name="t.uni0302"/>
  <anchor x="343" y="-60" name="b.minus-60"/>
  <anchor x="322.5" y="1.66667" name="b.cedilla"/>
  <outline>
    <contour>
      <point x="23.5" y="-2" type="curve"/>
      <point x="55.5" y="-1"/>
      <point x="95.8333" y="0"/>
      <point x="138" y="0" type="curve" smooth="yes"/>
      <point x="179" y="0"/>
      <point x="209.5" y="-1"/>
      <point x="241.667" y="-2" type="curve"/>
      <point x="247.667" y="4"/>
      <point x="247.667" y="25.1667"/>
      <point x="241.667" y="31.1667" type="curve"/>
      <point x="192.167" y="36"/>
      <point x="182.167" y="39.8333"/>
      <point x="182.167" y="122" type="curve"/>
      <point x="93.8333" y="122" type="line"/>
      <point x="93.8333" y="39.8333"/>
      <point x="83.6667" y="36.1667"/>
      <point x="23.5" y="31.1667" type="curve"/>
      <point x="17.5" y="25.1667"/>
      <point x="17.5" y="4"/>
    </contour>
    <contour>
      <point x="323.167" y="-2" type="curve"/>
      <point x="355.167" y="-1"/>
      <point x="387.167" y="0"/>
      <point x="428.5" y="0" type="curve" smooth="yes"/>
      <point x="471" y="0"/>
      <point x="509.167" y="-1"/>
      <point x="541.333" y="-2" type="curve"/>
      <point x="546.5" y="4"/>
      <point x="546.5" y="25.1667"/>
      <point x="541.333" y="31.1667" type="curve"/>
      <point x="484.5" y="35.8333"/>
      <point x="472.667" y="39.8333"/>
      <point x="472.667" y="122" type="curve"/>
      <point x="384.333" y="122" type="line"/>
      <point x="384.333" y="39.8333"/>
      <point x="373.333" y="35.8333"/>
      <point x="323.167" y="31.1667" type="curve"/>
      <point x="318" y="25.1667"/>
      <point x="318" y="4"/>
    </contour>
    <contour>
      <point x="182.167" y="122" type="line"/>
      <point x="182.167" y="576" type="line"/>
      <point x="93.8333" y="576" type="line"/>
      <point x="93.8333" y="122" type="line"/>
    </contour>
    <contour>
      <point x="472.667" y="122" type="line"/>
      <point x="472.667" y="273.167" type="line" smooth="yes"/>
      <point x="472.667" y="391.124"/>
      <point x="438.969" y="439.833"/>
      <point x="358" y="439.833" type="curve" smooth="yes"/>
      <point x="308.757" y="439.833"/>
      <point x="242.621" y="404.531"/>
      <point x="168.167" y="338.167" type="curve"/>
      <point x="169.833" y="301.667" type="line"/>
      <point x="218.172" y="354.875"/>
      <point x="270.749" y="384.167"/>
      <point x="317.667" y="384.167" type="curve" smooth="yes"/>
      <point x="360.223" y="384.167"/>
      <point x="384.333" y="345.513"/>
      <point x="384.333" y="277.5" type="curve" smooth="yes"/>
      <point x="384.333" y="122" type="line"/>
    </contour>
    <contour>
      <point x="93.8759" y="576" type="curve"/>
      <point x="182.209" y="576" type="line"/>
      <point x="182.209" y="626"/>
      <point x="183.209" y="656.667"/>
      <point x="186.209" y="689.333" type="curve"/>
      <point x="186.209" y="694.5"/>
      <point x="180.543" y="698"/>
      <point x="171.543" y="698" type="curve"/>
      <point x="143.209" y="686.833"/>
      <point x="79.8759" y="673"/>
      <point x="26.8759" y="669.167" type="curve"/>
      <point x="24.8759" y="662.333"/>
      <point x="26.8759" y="646.167"/>
      <point x="28.8759" y="640.167" type="curve"/>
      <point x="84.8201" y="635.081"/>
      <point x="93.8759" y="626.25"/>
    </contour>
  </outline>
  <guideline angle="0" x="0" y="576"/>
</glyph>
<glyph name="i" format="2">
  <advance width="280"/>
  <unicode hex="0069"/>
  <anchor x="137" y="795" name="t.uni0302"/>
  <anchor x="216.833" y="10" name="b.ogonek"/>
  <anchor x="155.5" y="-60" name="b.minus-60"/>
  <outline>
    <component base="dotlessi"/>
    <contour>
      <point x="91.1667" y="596.5" type="curve" smooth="yes"/>
      <point x="91.1667" y="568.026"/>
      <point x="113.289" y="544.167"/>
      <point x="144" y="544.167" type="curve" smooth="yes"/>
      <point x="174.88" y="544.167"/>
      <point x="197" y="568.022"/>
      <point x="197" y="596.5" type="curve" smooth="yes"/>
      <point x="197" y="625.145"/>
      <point x="174.887" y="648.833"/>
      <point x="144" y="648.833" type="curve" smooth="yes"/>
      <point x="113.283" y="648.833"/>
      <point x="91.1667" y="625.14"/>
    </contour>
  </outline>
  <guideline angle="90" x="140" y="0"/>
  <guideline angle="0" x="0" y="597"/>
</glyph>
<glyph name="j" format="2">
  <advance width="279"/>
  <unicode hex="006A"/>
  <outline>
    <component base="uni0237"/>
    <contour>
      <point x="98.3333" y="598.5" type="curve" smooth="yes"/>
      <point x="98.3333" y="571.333"/>
      <point x="122.333" y="544.167"/>
      <point x="149" y="544.167" type="curve" smooth="yes"/>
      <point x="179.833" y="544.167"/>
      <point x="204.167" y="572.667"/>
      <point x="204.167" y="594.5" type="curve" smooth="yes"/>
      <point x="204.167" y="619.5"/>
      <point x="182.833" y="648.833"/>
      <point x="153.333" y="648.833" type="curve" smooth="yes"/>
      <point x="125.5" y="648.833"/>
      <point x="98.3333" y="623.5"/>
    </contour>
  </outline>
</glyph>
<glyph name="k" format="2">
  <advance width="529"/>
  <unicode hex="006B"/>
  <anchor x="268.667" y="740" name="t.uni0302"/>
  <anchor x="273.5" y="-60" name="b.minus-60"/>
  <outline>
    <contour>
      <point x="26" y="-2" type="curve"/>
      <point x="58" y="-1"/>
      <point x="98.333" y="0"/>
      <point x="140.5" y="0" type="curve" smooth="yes"/>
      <point x="181.5" y="0"/>
      <point x="212" y="-1"/>
      <point x="244.167" y="-2" type="curve"/>
      <point x="250.167" y="4"/>
      <point x="250.167" y="25.167"/>
      <point x="244.167" y="31.167" type="curve"/>
      <point x="194.667" y="36"/>
      <point x="184.667" y="39.834"/>
      <point x="184.667" y="122" type="curve"/>
      <point x="96.333" y="122" type="line"/>
      <point x="96.333" y="39.834"/>
      <point x="86.167" y="36.167"/>
      <point x="26" y="31.167" type="curve"/>
      <point x="20" y="25.167"/>
      <point x="20" y="4"/>
    </contour>
    <contour>
      <point x="96.333" y="122" type="line"/>
      <point x="184.667" y="122" type="line"/>
      <point x="184.667" y="583" type="line" smooth="yes"/>
      <point x="184.667" y="648"/>
      <point x="188.5" y="683.499"/>
      <point x="188.5" y="687.499" type="curve" smooth="yes"/>
      <point x="188.5" y="694.833"/>
      <point x="184" y="697.999"/>
      <point x="175" y="697.999" type="curve"/>
      <point x="148" y="687.666"/>
      <point x="71.333" y="674.166"/>
      <point x="26.167" y="671.166" type="curve"/>
      <point x="24" y="662.499"/>
      <point x="25.833" y="647.333"/>
      <point x="31.667" y="640.833" type="curve"/>
      <point x="82.167" y="640"/>
      <point x="96.333" y="629.833"/>
      <point x="96.333" y="590" type="curve" smooth="yes"/>
    </contour>
    <contour>
      <point x="162.833" y="209.834" type="line"/>
      <point x="211.333" y="209.834"/>
      <point x="238.5" y="200"/>
      <point x="258.833" y="172.5" type="curve" smooth="yes"/>
      <point x="330" y="73.834" type="line" smooth="yes"/>
      <point x="356" y="38.334"/>
      <point x="366.833" y="18.667"/>
      <point x="367.667" y="2.833" type="curve"/>
      <point x="367.667" y="0"/>
      <point x="368.833" y="-2"/>
      <point x="371.833" y="-2" type="curve"/>
      <point x="389.333" y="-1.167"/>
      <point x="413.833" y="0"/>
      <point x="436.333" y="0" type="curve" smooth="yes"/>
      <point x="469" y="0"/>
      <point x="504.167" y="-1"/>
      <point x="527" y="-2" type="curve"/>
      <point x="533" y="4"/>
      <point x="533" y="25.167"/>
      <point x="527" y="31.167" type="curve"/>
      <point x="484.667" y="36"/>
      <point x="462.667" y="44.667"/>
      <point x="440.167" y="73.834" type="curve" smooth="yes"/>
      <point x="310.833" y="240.667" type="line" smooth="yes"/>
      <point x="307" y="245.5"/>
      <point x="304.167" y="249.667"/>
      <point x="304.167" y="254.5" type="curve" smooth="yes"/>
      <point x="304.167" y="258.167"/>
      <point x="304.459" y="260.622"/>
      <point x="308.348" y="264.566" type="curve" smooth="yes"/>
      <point x="389.5" y="349" type="line" smooth="yes"/>
      <point x="423.308" y="385.356"/>
      <point x="456" y="394.5"/>
      <point x="499.5" y="398.667" type="curve"/>
      <point x="505.5" y="404.667"/>
      <point x="505.5" y="425.834"/>
      <point x="499.5" y="431.834" type="curve"/>
      <point x="476.667" y="430.834"/>
      <point x="442.833" y="429.834"/>
      <point x="408.5" y="429.834" type="curve" smooth="yes"/>
      <point x="370.667" y="429.834"/>
      <point x="332" y="430.834"/>
      <point x="306.667" y="431.834" type="curve"/>
      <point x="300.667" y="425.834"/>
      <point x="300.667" y="404.667"/>
      <point x="306.667" y="398.667" type="curve"/>
      <point x="336" y="396.5"/>
      <point x="345.833" y="388.167"/>
      <point x="345.833" y="377.334" type="curve" smooth="yes"/>
      <point x="345.833" y="349.167"/>
      <point x="275.833" y="279.667"/>
      <point x="249.5" y="261.167" type="curve" smooth="yes"/>
      <point x="224.667" y="244"/>
      <point x="184.667" y="235"/>
      <point x="162.833" y="235" type="curve"/>
    </contour>
  </outline>
</glyph>
<glyph name="l" format="2">
  <advance width="266"/>
  <unicode hex="006C"/>
  <anchor x="120.5" y="740" name="t.uni0302"/>
  <anchor x="137.667" y="-60" name="b.minus-60"/>
  <anchor x="258.833" y="657" name="apostrophe"/>
  <outline>
    <contour>
      <point x="21.5" y="-2" type="curve"/>
      <point x="56" y="-1"/>
      <point x="100.5" y="0"/>
      <point x="142.666" y="0" type="curve"/>
      <point x="142.666" y="122" type="line"/>
      <point x="93.5" y="122" type="line"/>
      <point x="93.5" y="39.834"/>
      <point x="82.5" y="35"/>
      <point x="21.5" y="31.167" type="curve"/>
      <point x="15.5" y="25.167"/>
      <point x="15.5" y="4"/>
    </contour>
    <contour>
      <point x="132.667" y="0" type="line"/>
      <point x="173.5" y="-0.167"/>
      <point x="218.833" y="-1"/>
      <point x="253.833" y="-2" type="curve"/>
      <point x="259.833" y="4"/>
      <point x="259.833" y="25.167"/>
      <point x="253.833" y="31.167" type="curve"/>
      <point x="192.833" y="35"/>
      <point x="181.833" y="39.834"/>
      <point x="181.833" y="122" type="curve"/>
      <point x="132.667" y="122" type="line"/>
    </contour>
    <contour>
      <point x="93.5" y="110" type="line"/>
      <point x="181.833" y="110" type="line"/>
      <point x="181.833" y="588.334" type="line"/>
      <point x="93.5" y="588.334" type="line"/>
    </contour>
    <contour>
      <point x="93.4571" y="576" type="curve"/>
      <point x="181.79" y="576" type="line"/>
      <point x="181.79" y="627.167"/>
      <point x="182.857" y="657.39"/>
      <point x="185.79" y="689.334" type="curve"/>
      <point x="185.79" y="694.574"/>
      <point x="179.959" y="698"/>
      <point x="171.124" y="698" type="curve"/>
      <point x="139.266" y="685.45"/>
      <point x="74.6731" y="672.616"/>
      <point x="26.4571" y="669.167" type="curve"/>
      <point x="24.8171" y="663.567"/>
      <point x="25.8931" y="647.859"/>
      <point x="28.4571" y="640.167" type="curve"/>
      <point x="84.7251" y="635.157"/>
      <point x="93.4571" y="626.584"/>
    </contour>
  </outline>
</glyph>
<glyph name="m" format="2">
  <advance width="812"/>
  <unicode hex="006D"/>
  <anchor x="413.833" y="500" name="t.uni0302"/>
  <anchor x="416.167" y="-60" name="b.minus-60"/>
  <outline>
    <contour>
      <point x="29.1667" y="-2" type="curve"/>
      <point x="61.1667" y="-1"/>
      <point x="101.5" y="0"/>
      <point x="143.667" y="0" type="curve" smooth="yes"/>
      <point x="184.667" y="0"/>
      <point x="215.167" y="-1"/>
      <point x="247.334" y="-2" type="curve"/>
      <point x="253.334" y="4"/>
      <point x="253.334" y="25.167"/>
      <point x="247.334" y="31.167" type="curve"/>
      <point x="197.834" y="36"/>
      <point x="187.834" y="39.834"/>
      <point x="187.834" y="122" type="curve"/>
      <point x="99.4997" y="122" type="line"/>
      <point x="99.4997" y="39.834"/>
      <point x="89.3337" y="36.167"/>
      <point x="29.1667" y="31.167" type="curve"/>
      <point x="23.1667" y="25.167"/>
      <point x="23.1667" y="4"/>
    </contour>
    <contour>
      <point x="313.5" y="-2" type="curve"/>
      <point x="348" y="-1"/>
      <point x="375" y="0"/>
      <point x="417.167" y="0" type="curve"/>
      <point x="458.035" y="-0.11"/>
      <point x="485.798" y="-1"/>
      <point x="520.833" y="-2" type="curve"/>
      <point x="526.833" y="4.042"/>
      <point x="526.833" y="25.104"/>
      <point x="520.833" y="31.167" type="curve"/>
      <point x="471.5" y="35"/>
      <point x="461.333" y="39.834"/>
      <point x="461.333" y="122" type="curve"/>
      <point x="373" y="122" type="line"/>
      <point x="373" y="39.834"/>
      <point x="362.834" y="35"/>
      <point x="313.5" y="31.167" type="curve"/>
      <point x="307.5" y="25.104"/>
      <point x="307.5" y="4.042"/>
    </contour>
    <contour>
      <point x="585.334" y="-2" type="curve"/>
      <point x="617.334" y="-1"/>
      <point x="649.334" y="0"/>
      <point x="690.667" y="0" type="curve" smooth="yes"/>
      <point x="733.167" y="0"/>
      <point x="771.333" y="-1"/>
      <point x="803.5" y="-2" type="curve"/>
      <point x="808.667" y="4"/>
      <point x="808.667" y="25.167"/>
      <point x="803.5" y="31.167" type="curve"/>
      <point x="746.667" y="35.834"/>
      <point x="734.833" y="39.834"/>
      <point x="734.833" y="122" type="curve"/>
      <point x="646.5" y="122" type="line"/>
      <point x="646.5" y="39.834"/>
      <point x="635.5" y="35.834"/>
      <point x="585.334" y="31.167" type="curve"/>
      <point x="580.167" y="25.167"/>
      <point x="580.167" y="4"/>
    </contour>
    <contour>
      <point x="99.4997" y="316" type="curve"/>
      <point x="187.834" y="336" type="line"/>
      <point x="187.834" y="368.939"/>
      <point x="182.356" y="418.231"/>
      <point x="176.5" y="432.834" type="curve" smooth="yes"/>
      <point x="174.07" y="438.895"/>
      <point x="169.935" y="442.334"/>
      <point x="162.667" y="442.334" type="curve"/>
      <point x="123.138" y="427.857"/>
      <point x="87.6217" y="419.857"/>
      <point x="32.4997" y="412.667" type="curve"/>
      <point x="30.8467" y="407.707"/>
      <point x="31.9687" y="391.595"/>
      <point x="34.4997" y="384" type="curve"/>
      <point x="91.7447" y="378.715"/>
      <point x="99.4997" y="368.455"/>
    </contour>
    <contour>
      <point x="646.5" y="122" type="line"/>
      <point x="734.833" y="122" type="line"/>
      <point x="734.833" y="281.167" type="line" smooth="yes"/>
      <point x="734.833" y="373.667"/>
      <point x="714.833" y="440.334"/>
      <point x="627.167" y="440.334" type="curve" smooth="yes"/>
      <point x="574.667" y="440.334"/>
      <point x="494" y="406"/>
      <point x="441" y="347.167" type="curve"/>
      <point x="444.667" y="308.833" type="line"/>
      <point x="495.667" y="368.667"/>
      <point x="546.333" y="384.667"/>
      <point x="585.167" y="384.667" type="curve" smooth="yes"/>
      <point x="623.5" y="384.667"/>
      <point x="646.5" y="363.333"/>
      <point x="646.5" y="298" type="curve" smooth="yes"/>
    </contour>
    <contour>
      <point x="373" y="122" type="line"/>
      <point x="461.333" y="122" type="line"/>
      <point x="461.333" y="282" type="line" smooth="yes"/>
      <point x="461.333" y="359.5"/>
      <point x="444.333" y="440.334"/>
      <point x="348.334" y="440.334" type="curve" smooth="yes"/>
      <point x="289.334" y="440.334"/>
      <point x="218.334" y="389.5"/>
      <point x="174.334" y="341.5" type="curve"/>
      <point x="178.167" y="307" type="line"/>
      <point x="213.334" y="345"/>
      <point x="259.667" y="384.667"/>
      <point x="306.334" y="384.667" type="curve" smooth="yes"/>
      <point x="344.667" y="384.667"/>
      <point x="373" y="361.667"/>
      <point x="373" y="296.333" type="curve" smooth="yes"/>
    </contour>
    <contour>
      <point x="99.4997" y="122" type="line"/>
      <point x="187.834" y="122" type="line"/>
      <point x="187.834" y="336" type="line"/>
      <point x="99.4997" y="316" type="line"/>
    </contour>
  </outline>
</glyph>
<glyph name="n" format="2">
  <advance width="554"/>
  <unicode hex="006E"/>
  <anchor x="241.333" y="500" name="t.uni0302"/>
  <anchor x="260.667" y="-60" name="b.minus-60"/>
  <anchor x="-16" y="657" name="apostrophe"/>
  <outline>
    <contour>
      <point x="23.7501" y="-2" type="curve"/>
      <point x="55.7501" y="-1"/>
      <point x="96.0834" y="0"/>
      <point x="138.25" y="0" type="curve" smooth="yes"/>
      <point x="179.25" y="0"/>
      <point x="209.75" y="-1"/>
      <point x="241.917" y="-2" type="curve"/>
      <point x="247.917" y="4"/>
      <point x="247.917" y="25.1667"/>
      <point x="241.917" y="31.1667" type="curve"/>
      <point x="192.417" y="36"/>
      <point x="182.417" y="39.8333"/>
      <point x="182.417" y="122" type="curve"/>
      <point x="94.0834" y="122" type="line"/>
      <point x="94.0834" y="39.8333"/>
      <point x="83.9168" y="36.1667"/>
      <point x="23.7501" y="31.1667" type="curve"/>
      <point x="17.7501" y="25.1667"/>
      <point x="17.7501" y="4"/>
    </contour>
    <contour>
      <point x="318.417" y="-2" type="curve"/>
      <point x="350.417" y="-1"/>
      <point x="382.417" y="0"/>
      <point x="423.75" y="0" type="curve" smooth="yes"/>
      <point x="466.25" y="0"/>
      <point x="504.417" y="-1"/>
      <point x="536.583" y="-2" type="curve"/>
      <point x="541.75" y="4"/>
      <point x="541.75" y="25.1667"/>
      <point x="536.583" y="31.1667" type="curve"/>
      <point x="479.75" y="35.8333"/>
      <point x="467.917" y="39.8333"/>
      <point x="467.917" y="122" type="curve"/>
      <point x="379.583" y="122" type="line"/>
      <point x="379.583" y="39.8333"/>
      <point x="368.583" y="35.8333"/>
      <point x="318.417" y="31.1667" type="curve"/>
      <point x="313.25" y="25.1667"/>
      <point x="313.25" y="4"/>
    </contour>
    <contour>
      <point x="94.0834" y="316" type="curve"/>
      <point x="182.417" y="336" type="line"/>
      <point x="182.417" y="368.939"/>
      <point x="176.939" y="418.23"/>
      <point x="171.083" y="432.833" type="curve" smooth="yes"/>
      <point x="168.653" y="438.894"/>
      <point x="164.518" y="442.333"/>
      <point x="157.25" y="442.333" type="curve"/>
      <point x="117.722" y="427.856"/>
      <point x="82.2052" y="419.856"/>
      <point x="27.0834" y="412.667" type="curve"/>
      <point x="25.4301" y="407.707"/>
      <point x="26.5519" y="391.594"/>
      <point x="29.0834" y="384" type="curve"/>
      <point x="86.3277" y="378.715"/>
      <point x="94.0834" y="368.455"/>
    </contour>
    <contour>
      <point x="94.0834" y="122" type="line"/>
      <point x="182.417" y="122" type="line"/>
      <point x="182.417" y="336" type="line"/>
      <point x="94.0834" y="316" type="line"/>
    </contour>
    <contour>
      <point x="379.583" y="122" type="line"/>
      <point x="467.917" y="122" type="line"/>
      <point x="467.917" y="273.167" type="line" smooth="yes"/>
      <point x="467.917" y="390.493"/>
      <point x="433.803" y="439.833"/>
      <point x="353.25" y="439.833" type="curve" smooth="yes"/>
      <point x="301.458" y="439.833"/>
      <point x="237.059" y="396.229"/>
      <point x="170.583" y="339.167" type="curve"/>
      <point x="182.417" y="313" type="line"/>
      <point x="236.791" y="361.001"/>
      <point x="274.982" y="384.167"/>
      <point x="308.359" y="384.167" type="curve" smooth="yes"/>
      <point x="355.989" y="384.167"/>
      <point x="379.583" y="345.751"/>
      <point x="379.583" y="277.5" type="curve" smooth="yes"/>
    </contour>
  </outline>
  <guideline angle="90" x="133.3" y="0"/>
  <guideline angle="90" x="416.3" y="0"/>
</glyph>
<glyph name="o" format="2">
  <advance width="512"/>
  <unicode hex="006F"/>
  <anchor x="241.667" y="500" name="t.uni0302"/>
  <anchor x="342.667" y="10" name="b.ogonek"/>
  <anchor x="254" y="-60" name="b.minus-60"/>
  <outline>
    <contour>
      <point x="40.333" y="211.946" type="curve" smooth="yes"/>
      <point x="40.333" y="97.969"/>
      <point x="111.107" y="-10"/>
      <point x="252.61" y="-10" type="curve" smooth="yes"/>
      <point x="385.475" y="-10"/>
      <point x="471.5" y="86.306"/>
      <point x="471.5" y="213.008" type="curve" smooth="yes"/>
      <point x="471.5" y="324.536"/>
      <point x="409.908" y="439.834"/>
      <point x="263.093" y="439.834" type="curve" smooth="yes"/>
      <point x="122.387" y="439.834"/>
      <point x="40.333" y="334.636"/>
    </contour>
    <contour>
      <point x="135.333" y="230.749" type="curve" smooth="yes"/>
      <point x="135.333" y="319.971"/>
      <point x="172.167" y="403.667"/>
      <point x="250.333" y="403.667" type="curve" smooth="yes"/>
      <point x="326.145" y="403.667"/>
      <point x="376.5" y="324.587"/>
      <point x="376.5" y="182.334" type="curve" smooth="yes"/>
      <point x="376.5" y="61.84"/>
      <point x="316.061" y="26.167"/>
      <point x="265.879" y="26.167" type="curve" smooth="yes"/>
      <point x="171.365" y="26.167"/>
      <point x="135.333" y="146.025"/>
    </contour>
  </outline>
</glyph>
<glyph name="p" format="2">
  <advance width="548"/>
  <unicode hex="0070"/>
  <anchor x="241.667" y="500" name="t.uni0302"/>
  <anchor x="352.833" y="-60" name="b.minus-60"/>
  <outline>
    <contour>
      <point x="102" y="-110" type="line"/>
      <point x="190.333" y="-110" type="line"/>
      <point x="190.333" y="312.667" type="line" smooth="yes"/>
      <point x="190.333" y="363.5"/>
      <point x="183.776" y="407.821"/>
      <point x="179" y="432.833" type="curve" smooth="yes"/>
      <point x="177.776" y="438.988"/>
      <point x="174.166" y="442.333"/>
      <point x="165.166" y="442.333" type="curve"/>
      <point x="135.667" y="431.5"/>
      <point x="104" y="421.667"/>
      <point x="35" y="412.667" type="curve"/>
      <point x="33" y="406.667"/>
      <point x="35" y="390"/>
      <point x="37" y="384" type="curve"/>
      <point x="91.167" y="379"/>
      <point x="102" y="373.5"/>
      <point x="102" y="315.667" type="curve" smooth="yes"/>
    </contour>
    <contour>
      <point x="174.5" y="15.833" type="line"/>
      <point x="199.166" y="2.333"/>
      <point x="252.5" y="-10"/>
      <point x="284.833" y="-10" type="curve" smooth="yes"/>
      <point x="426.833" y="-10"/>
      <point x="510.833" y="100"/>
      <point x="510.833" y="235.333" type="curve" smooth="yes"/>
      <point x="510.833" y="343.833"/>
      <point x="435.833" y="439.833"/>
      <point x="330.5" y="439.833" type="curve" smooth="yes"/>
      <point x="287.333" y="439.833"/>
      <point x="230.833" y="403.167"/>
      <point x="191.666" y="360.333" type="curve"/>
      <point x="181.5" y="360.333" type="line"/>
      <point x="181.5" y="305.833" type="line"/>
      <point x="206.5" y="336.667"/>
      <point x="255.833" y="390.333"/>
      <point x="301.833" y="390.333" type="curve" smooth="yes"/>
      <point x="362" y="390.333"/>
      <point x="415.833" y="322"/>
      <point x="415.833" y="208.333" type="curve" smooth="yes"/>
      <point x="415.833" y="126"/>
      <point x="386.666" y="25.333"/>
      <point x="278.833" y="25.333" type="curve" smooth="yes"/>
      <point x="245.833" y="25.333"/>
      <point x="213.5" y="40.166"/>
      <point x="174.5" y="75.833" type="curve"/>
    </contour>
    <contour>
      <point x="30" y="-234" type="curve"/>
      <point x="64.5" y="-233"/>
      <point x="104" y="-232"/>
      <point x="146.166" y="-232" type="curve"/>
      <point x="187.035" y="-232.11"/>
      <point x="227.298" y="-233"/>
      <point x="262.333" y="-234" type="curve"/>
      <point x="268.333" y="-227.958"/>
      <point x="268.333" y="-206.896"/>
      <point x="262.333" y="-200.834" type="curve"/>
      <point x="201.333" y="-197"/>
      <point x="190.333" y="-192.167"/>
      <point x="190.333" y="-110" type="curve"/>
      <point x="102" y="-110" type="line"/>
      <point x="102" y="-192.167"/>
      <point x="91" y="-197"/>
      <point x="30" y="-200.834" type="curve"/>
      <point x="24" y="-206.896"/>
      <point x="24" y="-227.958"/>
    </contour>
  </outline>
</glyph>
<glyph name="q" format="2">
  <advance width="515"/>
  <unicode hex="0071"/>
  <anchor x="241.667" y="500" name="t.uni0302"/>
  <anchor x="352.833" y="-60" name="b.minus-60"/>
  <outline>
    <contour>
      <point x="35.1667" y="207.167" type="curve" smooth="yes"/>
      <point x="35.1667" y="108.333"/>
      <point x="100.333" y="-10"/>
      <point x="241.833" y="-10" type="curve" smooth="yes"/>
      <point x="280.5" y="-10"/>
      <point x="305.167" y="-1.33333"/>
      <point x="344.667" y="20.5" type="curve"/>
      <point x="364.47" y="20.5" type="line"/>
      <point x="364.47" y="66.106" type="line"/>
      <point x="336.682" y="44.9397"/>
      <point x="306.803" y="36"/>
      <point x="269.667" y="36" type="curve" smooth="yes"/>
      <point x="213" y="36"/>
      <point x="130.167" y="77"/>
      <point x="130.167" y="227.333" type="curve" smooth="yes"/>
      <point x="130.167" y="330.667"/>
      <point x="172.5" y="404.5"/>
      <point x="250" y="404.5" type="curve" smooth="yes"/>
      <point x="288.167" y="404.5"/>
      <point x="311.833" y="391.333"/>
      <point x="347.167" y="346" type="curve"/>
      <point x="347.167" y="-110" type="line"/>
      <point x="435.5" y="-110" type="line"/>
      <point x="435.5" y="331" type="line" smooth="yes"/>
      <point x="435.5" y="362.667"/>
      <point x="435.925" y="393.046"/>
      <point x="439.5" y="418.667" type="curve"/>
      <point x="439.5" y="432.167"/>
      <point x="430.5" y="442.333"/>
      <point x="419" y="442.333" type="curve" smooth="yes"/>
      <point x="408.5" y="442.333"/>
      <point x="388.167" y="421.167"/>
      <point x="376.167" y="403.667" type="curve"/>
      <point x="335" y="426.5"/>
      <point x="305.167" y="439.833"/>
      <point x="253.833" y="439.833" type="curve" smooth="yes"/>
      <point x="130" y="439.833"/>
      <point x="35.1667" y="339.333"/>
    </contour>
    <contour>
      <point x="275.167" y="-234" type="curve"/>
      <point x="309.667" y="-233"/>
      <point x="349.167" y="-232"/>
      <point x="391.333" y="-232" type="curve"/>
      <point x="432.202" y="-232.11"/>
      <point x="472.465" y="-233"/>
      <point x="507.5" y="-234" type="curve"/>
      <point x="513.5" y="-227.958"/>
      <point x="513.5" y="-206.896"/>
      <point x="507.5" y="-200.833" type="curve"/>
      <point x="446.5" y="-197"/>
      <point x="435.5" y="-192.167"/>
      <point x="435.5" y="-110" type="curve"/>
      <point x="347.167" y="-110" type="line"/>
      <point x="347.167" y="-192.167"/>
      <point x="336.167" y="-197"/>
      <point x="275.167" y="-200.833" type="curve"/>
      <point x="269.167" y="-206.896"/>
      <point x="269.167" y="-227.958"/>
    </contour>
  </outline>
</glyph>
<glyph name="r" format="2">
  <advance width="381"/>
  <unicode hex="0072"/>
  <anchor x="241.667" y="500" name="t.uni0302"/>
  <anchor x="146.333" y="-60" name="b.minus-60"/>
  <outline>
    <contour>
      <point x="99.6667" y="120" type="line"/>
      <point x="99.6667" y="37.3333"/>
      <point x="87.8333" y="35.3333"/>
      <point x="26" y="31.1667" type="curve"/>
      <point x="20" y="25.1667"/>
      <point x="20" y="4"/>
      <point x="26" y="-2" type="curve"/>
      <point x="62.1667" y="-1"/>
      <point x="101.667" y="0"/>
      <point x="144" y="0" type="curve" smooth="yes"/>
      <point x="186.167" y="0"/>
      <point x="231.167" y="-1"/>
      <point x="267.5" y="-2" type="curve"/>
      <point x="273.5" y="4"/>
      <point x="273.5" y="25.1667"/>
      <point x="267.5" y="31.1667" type="curve"/>
      <point x="199" y="36"/>
      <point x="187.167" y="37.3333"/>
      <point x="187.167" y="120" type="curve"/>
    </contour>
    <contour>
      <point x="187.167" y="120" type="line" name=".hr01"/>
      <point x="187.167" y="262.167" type="line" smooth="yes"/>
      <point x="187.167" y="307.167"/>
      <point x="226.833" y="372.667"/>
      <point x="254.833" y="372.667" type="curve" smooth="yes"/>
      <point x="263.833" y="372.667"/>
      <point x="273.167" y="369.5"/>
      <point x="281.167" y="358.667" type="curve" smooth="yes"/>
      <point x="288.167" y="349"/>
      <point x="301" y="336.833" name=".hr02"/>
      <point x="319" y="336.833" type="curve" smooth="yes"/>
      <point x="343.833" y="336.833"/>
      <point x="367.667" y="362.667"/>
      <point x="367.667" y="390.5" type="curve" smooth="yes"/>
      <point x="367.667" y="410.667"/>
      <point x="347.667" y="439.833"/>
      <point x="306.667" y="439.833" type="curve" smooth="yes"/>
      <point x="261.667" y="439.833"/>
      <point x="221.167" y="398.167"/>
      <point x="194.333" y="354.667" type="curve"/>
      <point x="189.169" y="345.5"/>
      <point x="184.732" y="352.167"/>
      <point x="184.667" y="356.333" type="curve"/>
      <point x="182.667" y="394.667"/>
      <point x="181" y="424.5"/>
      <point x="176.833" y="432.833" type="curve"/>
      <point x="175" y="438.5"/>
      <point x="172" y="442.333"/>
      <point x="163" y="442.333" type="curve"/>
      <point x="131.667" y="431.167"/>
      <point x="101.167" y="421.333"/>
      <point x="32.6667" y="412.667" type="curve"/>
      <point x="30.6667" y="406.667"/>
      <point x="32.6667" y="390.167"/>
      <point x="34.6667" y="384.167" type="curve"/>
      <point x="88.8333" y="379.167"/>
      <point x="99.6667" y="373.5" name=".hr03"/>
      <point x="99.6667" y="315.667" type="curve" smooth="yes"/>
      <point x="99.6667" y="120" type="line"/>
    </contour>
  </outline>
</glyph>
<glyph name="s" format="2">
  <advance width="396"/>
  <unicode hex="0073"/>
  <anchor x="195.833" y="500" name="t.uni0302"/>
  <anchor x="213.167" y="-60" name="b.minus-60"/>
  <anchor x="208.667" y="0" name="b.cedilla"/>
  <outline>
    <contour>
      <point x="58" y="139.333" type="curve"/>
      <point x="68.0407" y="90.6561"/>
      <point x="71.9175" y="43.3458"/>
      <point x="72.2101" y="-0.333333" type="curve"/>
      <point x="114.138" y="-0.204"/>
      <point x="159.299" y="-10"/>
      <point x="202.333" y="-10" type="curve" smooth="yes"/>
      <point x="290.249" y="-10"/>
      <point x="354.5" y="39.1179"/>
      <point x="354.5" y="118.5" type="curve" smooth="yes"/>
      <point x="354.5" y="185.01"/>
      <point x="306.545" y="226.733"/>
      <point x="237.667" y="251.478" type="curve" smooth="yes"/>
      <point x="176.083" y="274.356"/>
      <point x="140.167" y="289.602"/>
      <point x="140.167" y="338.333" type="curve" smooth="yes"/>
      <point x="140.167" y="381.333"/>
      <point x="173.333" y="403.667"/>
      <point x="207.167" y="403.667" type="curve" smooth="yes"/>
      <point x="230.667" y="403.667"/>
      <point x="284.667" y="391.667"/>
      <point x="299.667" y="310.667" type="curve"/>
      <point x="306.833" y="306.833"/>
      <point x="324.833" y="307.833"/>
      <point x="331.167" y="312.333" type="curve"/>
      <point x="325.491" y="351.452"/>
      <point x="323.959" y="385"/>
      <point x="325.292" y="418.5" type="curve"/>
      <point x="292.626" y="423.833"/>
      <point x="258.082" y="439.833"/>
      <point x="212.167" y="439.833" type="curve" smooth="yes"/>
      <point x="122.79" y="439.833"/>
      <point x="62.1667" y="392.42"/>
      <point x="62.1667" y="323.167" type="curve" smooth="yes"/>
      <point x="62.1667" y="253.519"/>
      <point x="95.1366" y="220.735"/>
      <point x="176.833" y="187.833" type="curve" smooth="yes"/>
      <point x="252.006" y="156.971"/>
      <point x="271.833" y="135.439"/>
      <point x="271.833" y="98.5" type="curve" smooth="yes"/>
      <point x="271.833" y="52.8304"/>
      <point x="243.627" y="25.6667"/>
      <point x="196.167" y="25.6667" type="curve" smooth="yes"/>
      <point x="127" y="25.6667"/>
      <point x="107.333" y="77.5"/>
      <point x="90.5" y="140.5" type="curve"/>
      <point x="82.8333" y="146"/>
      <point x="65.6667" y="145"/>
    </contour>
  </outline>
</glyph>
<glyph name="t" format="2">
  <advance width="325"/>
  <unicode hex="0074"/>
  <anchor x="139.667" y="631.667" name="t.uni0302"/>
  <anchor x="173.167" y="-60" name="b.minus-60"/>
  <anchor x="180" y="0" name="b.cedilla"/>
  <outline>
    <contour>
      <point x="64.6667" y="429.833" type="line" smooth="yes"/>
      <point x="50.6667" y="429.833"/>
      <point x="34.8333" y="423.333"/>
      <point x="24.3333" y="414.833" type="curve"/>
      <point x="24.3333" y="395" type="line" smooth="yes"/>
      <point x="24.3333" y="390"/>
      <point x="25.3333" y="389"/>
      <point x="29.3333" y="389" type="curve" smooth="yes"/>
      <point x="89.3333" y="389" type="line"/>
      <point x="89.3333" y="91.6667" type="line" smooth="yes"/>
      <point x="89.3333" y="20.3333"/>
      <point x="122" y="-10"/>
      <point x="172.667" y="-10" type="curve" smooth="yes"/>
      <point x="220.167" y="-10"/>
      <point x="272.667" y="13"/>
      <point x="308.5" y="54.3333" type="curve"/>
      <point x="306.833" y="64.6667"/>
      <point x="300.833" y="70.6667"/>
      <point x="290.5" y="73.1667" type="curve"/>
      <point x="266.667" y="54.8333"/>
      <point x="237.5" y="47.5"/>
      <point x="212.667" y="47.5" type="curve" smooth="yes"/>
      <point x="186.5" y="47.5"/>
      <point x="177.667" y="75.3333"/>
      <point x="177.667" y="135.333" type="curve" smooth="yes"/>
      <point x="177.667" y="389" type="line"/>
      <point x="281.167" y="389" type="line" smooth="yes"/>
      <point x="291.167" y="389"/>
      <point x="305.167" y="393"/>
      <point x="305.167" y="402" type="curve" smooth="yes"/>
      <point x="305.167" y="423.833" type="line" smooth="yes"/>
      <point x="305.167" y="427.833"/>
      <point x="302.167" y="429.833"/>
      <point x="297.167" y="429.833" type="curve" smooth="yes"/>
      <point x="177.667" y="429.833" type="line"/>
      <point x="178.667" y="468" type="line" smooth="yes"/>
      <point x="180.384" y="533.341"/>
      <point x="185.167" y="568.167"/>
      <point x="185.667" y="574.333" type="curve"/>
      <point x="185.667" y="580.333"/>
      <point x="182.667" y="583.333"/>
      <point x="177.667" y="583.333" type="curve" smooth="yes"/>
      <point x="171.5" y="583.333"/>
      <point x="98.8333" y="553"/>
      <point x="96.1667" y="545.833" type="curve"/>
      <point x="92.5" y="533.5"/>
      <point x="89.3333" y="491.5"/>
      <point x="89.3333" y="429.833" type="curve"/>
    </contour>
  </outline>
</glyph>
<glyph name="u" format="2">
  <advance width="542"/>
  <unicode hex="0075"/>
  <anchor x="262.667" y="500" name="t.uni0302"/>
  <anchor x="432.333" y="10" name="b.ogonek"/>
  <anchor x="285.5" y="-60" name="b.minus-60"/>
  <outline>
    <contour>
      <point x="217" y="-10" type="curve" smooth="yes"/>
      <point x="258.5" y="-10"/>
      <point x="329.667" y="29" name=".hr01"/>
      <point x="382.167" y="72.3333" type="curve"/>
      <point x="379.333" y="108.167" type="line"/>
      <point x="341" y="72"/>
      <point x="280.833" y="41.5" name=".hr02"/>
      <point x="254" y="41.5" type="curve" smooth="yes"/>
      <point x="222.333" y="41.5"/>
      <point x="175.667" y="54"/>
      <point x="175.667" y="139.833" type="curve" smooth="yes"/>
      <point x="175.667" y="319.333" type="line" smooth="yes"/>
      <point x="175.667" y="358.333"/>
      <point x="179.333" y="417.167"/>
      <point x="179.333" y="421.167" type="curve" smooth="yes"/>
      <point x="179.333" y="426.5"/>
      <point x="176.167" y="430.833"/>
      <point x="171" y="431.833" type="curve"/>
      <point x="163.833" y="430.833"/>
      <point x="147.833" y="429.833"/>
      <point x="132.333" y="429.833" type="curve" smooth="yes"/>
      <point x="97.1667" y="429.833"/>
      <point x="60" y="430.833"/>
      <point x="24.5" y="431.833" type="curve"/>
      <point x="18.5" y="425.833"/>
      <point x="18.5" y="404.667"/>
      <point x="24.5" y="398.667" type="curve"/>
      <point x="72.1667" y="395"/>
      <point x="87.3333" y="384.167"/>
      <point x="87.3333" y="316" type="curve" smooth="yes"/>
      <point x="87.3333" y="130" type="line" smooth="yes"/>
      <point x="87.3333" y="54.8333"/>
      <point x="120.167" y="-10"/>
    </contour>
    <contour>
      <point x="377.167" y="1.16667" type="curve"/>
      <point x="378.167" y="-6.66667"/>
      <point x="387.833" y="-10"/>
      <point x="399.333" y="-10" type="curve"/>
      <point x="423.833" y="6.66667"/>
      <point x="463.833" y="21.5"/>
      <point x="526.167" y="28.8333" type="curve"/>
      <point x="531.5" y="34.8333" name=".hr03"/>
      <point x="531.167" y="50.6667"/>
      <point x="525.833" y="56.6667" type="curve"/>
      <point x="463.5" y="61.6667"/>
      <point x="454.167" y="80.1667"/>
      <point x="454.167" y="130.5" type="curve" smooth="yes"/>
      <point x="454.167" y="319.333" type="line" smooth="yes"/>
      <point x="454.167" y="358.333"/>
      <point x="457.833" y="417.167"/>
      <point x="457.833" y="421.167" type="curve" smooth="yes"/>
      <point x="457.833" y="426.5"/>
      <point x="454.667" y="430.833"/>
      <point x="449.5" y="431.833" type="curve"/>
      <point x="442.333" y="430.833"/>
      <point x="425.667" y="429.833"/>
      <point x="410" y="429.833" type="curve" smooth="yes"/>
      <point x="378.667" y="429.833"/>
      <point x="337.833" y="430.833"/>
      <point x="303" y="431.833" type="curve"/>
      <point x="297" y="425.833"/>
      <point x="297" y="404.667"/>
      <point x="303" y="398.667" type="curve"/>
      <point x="352.333" y="395.333"/>
      <point x="365.833" y="384.167"/>
      <point x="365.833" y="315.167" type="curve" smooth="yes"/>
      <point x="365.833" y="123.5" type="line" smooth="yes"/>
      <point x="365.833" y="78.8333"/>
      <point x="368.833" y="44.1667"/>
    </contour>
  </outline>
</glyph>
<glyph name="v" format="2">
  <advance width="502"/>
  <unicode hex="0076"/>
  <anchor x="241.667" y="500" name="t.uni0302"/>
  <anchor x="352.833" y="-60" name="b.minus-60"/>
  <outline>
    <contour>
      <point x="327.833" y="398.667" type="curve"/>
      <point x="381.833" y="394.667"/>
      <point x="388" y="382"/>
      <point x="366.833" y="331" type="curve" smooth="yes"/>
      <point x="286.167" y="137.167" type="line" smooth="yes"/>
      <point x="272.167" y="103.167"/>
      <point x="267.333" y="104.333"/>
      <point x="253.5" y="140.5" type="curve" smooth="yes"/>
      <point x="182.167" y="333.333" type="line" smooth="yes"/>
      <point x="164.833" y="379.667"/>
      <point x="161.667" y="392"/>
      <point x="214" y="398.667" type="curve"/>
      <point x="220" y="404.667"/>
      <point x="220" y="425.833"/>
      <point x="214" y="431.833" type="curve"/>
      <point x="180.333" y="430.833"/>
      <point x="144.5" y="429.833"/>
      <point x="108.833" y="429.833" type="curve" smooth="yes"/>
      <point x="75.5" y="429.833"/>
      <point x="42" y="430.833"/>
      <point x="10.8333" y="431.833" type="curve"/>
      <point x="4.83333" y="425.833"/>
      <point x="4.83333" y="404.667"/>
      <point x="10.8333" y="398.667" type="curve"/>
      <point x="64.6667" y="392.5"/>
      <point x="70.8333" y="375.833"/>
      <point x="90.8333" y="325" type="curve" smooth="yes"/>
      <point x="219.333" y="9" type="line" smooth="yes"/>
      <point x="225.333" y="-6"/>
      <point x="233.167" y="-12"/>
      <point x="246.167" y="-12" type="curve" smooth="yes"/>
      <point x="256.167" y="-12"/>
      <point x="265.333" y="-6.66667"/>
      <point x="272.667" y="11" type="curve" smooth="yes"/>
      <point x="406.333" y="324" type="line" smooth="yes"/>
      <point x="425.5" y="368.167"/>
      <point x="436.833" y="393.667"/>
      <point x="492.333" y="398.667" type="curve"/>
      <point x="498.333" y="404.667"/>
      <point x="498.333" y="425.833"/>
      <point x="492.333" y="431.833" type="curve"/>
      <point x="472" y="430.833"/>
      <point x="446.667" y="429.833"/>
      <point x="421.333" y="429.833" type="curve" smooth="yes"/>
      <point x="387.667" y="429.833"/>
      <point x="353.167" y="430.833"/>
      <point x="327.833" y="431.833" type="curve"/>
      <point x="321.833" y="425.833"/>
      <point x="321.833" y="404.667"/>
    </contour>
  </outline>
</glyph>
